SplineFontDB: 3.0
FontName: Cr-Udom
FullName: Cr-Udom
FamilyName: Cr-Udom
Weight: Normal
Copyright: Created By Charintr Jamjitt 20-9-2000 Modify 27-1-007
UComments: "2014-8-22: Created with FontForge (http://fontforge.org)"
Version: 1.000
ItalicAngle: 0
UnderlinePosition: -133
UnderlineWidth: 20
Ascent: 800
Descent: 200
InvalidEm: 0
LayerCount: 2
Layer: 0 0 "Back" 1
Layer: 1 0 "Fore" 0
XUID: [1021 243 219183981 12113180]
FSType: 0
OS2Version: 0
OS2_WeightWidthSlopeOnly: 0
OS2_UseTypoMetrics: 0
CreationTime: 1408699575
ModificationTime: 1526490067
PfmFamily: 16
TTFWeight: 400
TTFWidth: 5
LineGap: 90
VLineGap: 90
Panose: 2 0 5 3 0 0 0 0 0 0
OS2TypoAscent: 0
OS2TypoAOffset: 1
OS2TypoDescent: 0
OS2TypoDOffset: 1
OS2TypoLinegap: 90
OS2WinAscent: 0
OS2WinAOffset: 1
OS2WinDescent: 0
OS2WinDOffset: 1
HheadAscent: 0
HheadAOffset: 1
HheadDescent: 0
HheadDOffset: 1
OS2SubXSize: 650
OS2SubYSize: 700
OS2SubXOff: 0
OS2SubYOff: 140
OS2SupXSize: 650
OS2SupYSize: 700
OS2SupXOff: 0
OS2SupYOff: 480
OS2StrikeYSize: 49
OS2StrikeYPos: 258
OS2Vendor: 'PfEd'
OS2CodePages: 00000000.00000000
Lookup: 262 0 0 "_holdAnchorsmark" { "_someAnchorsmark"  } []
Lookup: 260 0 0 "_holdAnchorsbase" { "_someAnchorsbase"  } []
MarkAttachClasses: 1
DEI: 91125

StartChar: u1A55
Encoding: 1 6741 1
Width: 186
VWidth: 0
Flags: HW
LayerCount: 2
Fore
SplineSet
190 -47 m 0
 182 -47 178 -49 178 -54 c 0
 180 -60 181 -65 183 -69 c 0
 183 -73 l 0
 175 -73 168 -71 162 -65 c 0
 157 -61 154 -54 152 -44 c 0
 152 -24 164 -14 188 -14 c 0
 204 -14 216 -18 224 -26 c 0
 232 -34 236 -46 237 -64 c 0
 237 -80 228 -93 208 -104 c 0
 189 -115 170 -120 149 -121 c 0
 120 -121 96 -115 75 -103 c 0
 53 -89 42 -70 42 -45 c 0
 42 -25 49 -7 64 10 c 0
 68 16 75 22 87 28 c 0
 71 40 l 0
 66 46 62 53 59 63 c 0
 57 72 56 83 55 98 c 0
 55 439 l 0
 55 489 75 538 115 586 c 0
 161 641 222 673 299 684 c 0
 382 691 l 0
 470 695 l 0
 507 695 539 693 567 688 c 0
 633 678 695 658 753 626 c 0
 816 585 l 0
 695 627 l 0
 651 641 600 652 542 660 c 0
 510 663 l 0
 472 664 l 0
 455 664 438 664 421 664 c 0
 406 662 395 661 388 660 c 0
 299 652 l 0
 237 645 186 620 146 575 c 0
 128 555 114 534 104 512 c 0
 95 490 91 467 90 441 c 0
 91 98 l 0
 91 90 91 83 92 75 c 0
 92 68 93 60 97 50 c 0
 99 41 106 37 120 36 c 0
 123 30 l 0
 121 24 l 0
 92 8 78 -15 77 -47 c 0
 77 -61 84 -71 98 -78 c 0
 112 -84 128 -87 147 -88 c 0
 163 -88 175 -86 185 -81 c 0
 195 -77 200 -71 202 -62 c 0
 202 -52 198 -47 190 -47 c 0
EndSplineSet
Comment: "classes: cConsMed"
EndChar

StartChar: period
Encoding: 2 46 2
Width: 216
VWidth: 0
Flags: HW
LayerCount: 2
Fore
SplineSet
37 65 m 0
 45 65 52 62 58 56 c 0
 64 51 68 43 70 32 c 0
 70 24 68 17 62 11 c 0
 54 4 l 0
 37 0 l 0
 29 0 22 2 14 8 c 0
 10 12 7 20 4 32 c 0
 4 41 6 48 11 54 c 0
 22 61 l 0
 37 65 l 0
EndSplineSet
EndChar

StartChar: u1A92
Encoding: 3 6802 3
Width: 284
VWidth: 0
Flags: HW
LayerCount: 2
Fore
SplineSet
306 517 m 1
 283 519 l 1
 247 521 l 1
 222 521 l 1
 202 517 l 1
 184 513 l 1
 162 506 l 2
 117 488 117 488 99 439 c 0
 88 408 88 408 88 361 c 2
 88 340 l 1
 89 89 l 2
 89 64 89 64 107 46 c 0
 126 32 126 32 157 32 c 0
 177 32 177 32 192 43.5 c 128
 207 55 207 55 208 71 c 0
 200 127 200 127 158 127 c 0
 138 127 138 127 113 116 c 2
 90 108 l 1
 92 114 l 1
 120 142 120 142 160 142 c 0
 194 142 194 142 217 122 c 0
 241 104 241 104 241 72 c 0
 241 44 241 44 215.5 24 c 128
 190 4 190 4 154 4 c 0
 111 4 111 4 85 26.5 c 128
 59 49 59 49 59 89 c 2
 59 340 l 2
 59 394 59 394 65 421 c 0
 77 475 77 475 117 505 c 0
 139 520 139 520 163 526.5 c 128
 187 533 187 533 206 533 c 2
 230 533 l 2
 261 533 261 533 297 523 c 1
 306 517 l 1
EndSplineSet
Comment: "classes: cDigitTham"
EndChar

StartChar: u1A93
Encoding: 4 6803 4
Width: 448
VWidth: 0
Flags: HW
LayerCount: 2
Fore
SplineSet
478 478 m 2
 452 455 l 1
 434 445 434 445 409 445 c 0
 388 445 388 445 289 476 c 2
 212 499 l 1
 179 506 l 1
 165 500 l 1
 158 495 l 1
 184 488 184 488 270 455 c 2
 358 422 l 2
 404 408 404 408 420 395 c 0
 441 377 441 377 441 331 c 2
 441 109 l 2
 441 45 441 45 419.5 22 c 128
 398 -1 398 -1 351 -1 c 0
 318 -1 318 -1 282 36 c 1
 262 61 l 1
 244 90 l 1
 242 96 l 1
 242 106 l 2
 242 130 242 130 246 146 c 1
 253 158 l 1
 253 136 253 136 284 87 c 0
 320 31 320 31 357 31 c 0
 390 31 390 31 402 53 c 1
 408 74 l 1
 410 111 l 1
 410 137 l 1
 411 318 l 2
 411 351 411 351 404 365 c 0
 393 383 393 383 351 398 c 2
 122 480 l 1
 107 484 l 1
 106 491 l 1
 138 509 l 1
 183 532 l 2
 195 535 195 535 267 514 c 2
 417 470 l 1
 442 470 442 470 456 477 c 2
 486 494 l 1
 492 494 l 1
 489 487 489 487 478 478 c 2
252 156 m 0
 252 96 252 96 225 51 c 0
 195 0 195 0 141 0 c 0
 102 0 102 0 82 7 c 0
 49 19 49 19 49 55 c 0
 49 61 49 61 54 65 c 2
 67 72 l 2
 73 72 73 72 78 57 c 1
 78 42 78 42 96.5 32.5 c 128
 115 23 115 23 137 23 c 0
 179 23 179 23 203 65 c 0
 224 101 224 101 224 152 c 0
 224 188 224 188 203 223 c 0
 177 261 177 261 131 261 c 0
 117 261 117 261 106.5 254.5 c 128
 96 248 96 248 88 235 c 0
 83 229 83 229 74 229 c 0
 66 229 66 229 56 235 c 128
 46 241 46 241 51 247 c 2
 79 274 l 2
 104 293 104 293 141 293 c 0
 192 293 192 293 222 254 c 128
 252 215 252 215 252 156 c 0
EndSplineSet
Comment: "classes: cDigitTham"
EndChar

StartChar: u1A94
Encoding: 5 6804 5
Width: 458
VWidth: 0
Flags: HW
LayerCount: 2
Fore
SplineSet
485 -228 m 2
 392 -277 l 1
 344 -296 344 -296 287 -296 c 0
 239 -296 239 -296 200 -290 c 128
 161 -284 161 -284 128 -263 c 0
 102 -244 102 -244 81 -201 c 0
 70 -171 70 -171 62 -133 c 1
 62 212 l 2
 62 249 62 249 82 270.5 c 128
 102 292 102 292 137 292 c 0
 184 292 184 292 205 262 c 0
 214 248 214 248 220 210 c 2
 235 126 l 1
 247 54 l 2
 250 28 250 28 297 28 c 0
 324 28 324 28 339 37 c 128
 354 46 354 46 357 62 c 2
 358 83 l 1
 360 99 l 2
 360 115 360 115 355 128 c 0
 346 140 346 140 321 150 c 2
 294 157 l 1
 292 167 l 2
 292 176 292 176 296 177 c 2
 342 182 l 2
 362 188 362 188 366 198 c 2
 370 233 l 2
 370 247 370 247 361.5 257 c 128
 353 267 353 267 337 267 c 0
 329 267 329 267 320 261 c 0
 315 256 315 256 313 248 c 1
 316 237 l 2
 319 231 319 231 316 228 c 2
 303 223 l 2
 293 223 293 223 287 232 c 1
 284 251 l 2
 284 270 284 270 302.5 282 c 128
 321 294 321 294 343 294 c 0
 373 294 373 294 388 273 c 0
 397 258 397 258 397 235 c 0
 397 211 397 211 394 197 c 128
 391 183 391 183 378 173 c 1
 355 164 l 1
 347 162 l 1
 374 152 l 2
 378 147 378 147 385 128 c 1
 389 99 l 1
 386 69 l 1
 382 51 l 1
 382 31 382 31 359 15.5 c 128
 336 0 336 0 298 0 c 0
 265 0 265 0 244 13 c 128
 223 26 223 26 217 53 c 2
 204 131 l 1
 190 207 l 2
 187 231 187 231 176 243 c 0
 162 263 162 263 134 263 c 0
 95 263 95 263 95 212 c 2
 95 -131 l 2
 95 -160 95 -160 109.5 -191.5 c 128
 124 -223 124 -223 149 -241 c 0
 168 -256 168 -256 207 -264 c 2
 242 -268 l 1
 286 -269 l 2
 343 -269 343 -269 383 -252 c 2
 473 -206 l 2
 479 -203 479 -203 486 -206 c 0
 492 -209 492 -209 492 -217 c 0
 491 -219 491 -219 490 -221.5 c 128
 489 -224 489 -224 485 -228 c 2
EndSplineSet
Comment: "classes: cDigitTham"
EndChar

StartChar: u1A62_u1A76
Encoding: 6 -1 6
Width: 0
VWidth: 0
Flags: HW
AnchorPoint: "UD" -270 648 basemark 0
AnchorPoint: "UD" -263 418 mark 0
AnchorPoint: "U" -263 418 mark 0
LayerCount: 2
Fore
SplineSet
28 690 m 0
 28 696 l 0
 -266 550 l 0
 -302 567 l 0
 -266 508 l 0
 28 690 l 0
29 604 m 0
 29 610 l 0
 -265 464 l 0
 -284 453 l 0
 -265 422 l 0
 29 604 l 0
EndSplineSet
EndChar

StartChar: u1A26
Encoding: 7 6694 7
Width: 601
VWidth: 0
Flags: HW
AnchorPoint: "UR" 542 416 basechar 0
AnchorPoint: "LR" 537 -30 basechar 0
AnchorPoint: "U" 287.5 416 basechar 0
AnchorPoint: "L" 280.5 0 basechar 0
LayerCount: 2
Fore
SplineSet
323 79 m 0
 306 70 298 58 297 43 c 0
 297 33 301 23 309 13 c 0
 317 5 325 1 335 0 c 0
 369 0 386 15 387 47 c 0
 387 74 380 93 366 106 c 0
 352 118 330 124 299 124 c 0
 282 124 266 115 249 97 c 0
 217 58 190 39 166 38 c 0
 142 38 123 47 109 65 c 0
 96 83 90 103 89 125 c 0
 89 161 96 188 112 206 c 0
 128 224 155 237 194 246 c 0
 207 248 216 250 221 254 c 0
 238 263 l 0
 241 265 243 271 245 281 c 0
 245 288 242 299 236 316 c 0
 235 319 229 319 217 315 c 0
 200 308 l 0
 204 298 206 291 206 285 c 0
 206 280 204 276 198 272 c 0
 167 261 l 0
 129 251 101 237 83 219 c 0
 60 196 49 163 48 119 c 0
 48 87 59 60 81 36 c 0
 103 13 133 2 172 1 c 0
 200 1 225 16 247 48 c 0
 269 80 286 96 299 96 c 0
 319 96 334 92 345 83 c 0
 355 75 360 66 360 54 c 0
 360 40 354 32 341 28 c 0
 332 27 328 31 327 42 c 0
 327 49 330 55 338 61 c 0
 340 63 339 66 334 72 c 0
 330 77 327 79 323 79 c 0
206 298 m 0
 219 305 l 0
 236 313 l 0
 258 319 278 322 296 322 c 0
 302 322 308 322 316 321 c 0
 323 321 330 320 339 317 c 0
 350 316 358 315 364 313 c 0
 370 312 380 309 396 304 c 0
 428 296 455 273 479 235 c 0
 498 203 507 171 508 139 c 0
 508 97 506 64 502 40 c 0
 500 18 490 -10 472 -46 c 0
 467 -58 456 -75 439 -99 c 0
 417 -129 l 0
 428 -123 l 0
 453 -100 471 -81 484 -64 c 0
 510 -28 527 9 535 49 c 0
 537 60 538 74 540 92 c 0
 541 110 541 131 542 157 c 0
 542 192 532 227 512 263 c 0
 488 303 457 329 417 343 c 0
 387 351 356 355 322 356 c 0
 290 356 260 353 231 346 c 0
 204 340 191 336 190 332 c 0
 192 324 196 317 203 310 c 0
 207 306 208 302 206 298 c 0
EndSplineSet
Comment: "classes: cConsNarrow"
EndChar

StartChar: u1A96
Encoding: 8 6806 8
Width: 447
VWidth: 0
Flags: HW
LayerCount: 2
Fore
SplineSet
415 73 m 2
 415 37 415 37 386 18 c 128
 357 -1 357 -1 320 -1 c 0
 285 -1 285 -1 264 10 c 1
 237 37 l 1
 234 27 234 27 210 13 c 0
 204 10 204 10 187 5 c 128
 170 0 170 0 146 0 c 0
 104 0 104 0 81 20 c 0
 59 42 59 42 59 73 c 0
 59 94 59 94 65 109.5 c 128
 71 125 71 125 94 139 c 2
 115 149 l 1
 124 148 l 2
 105 148 105 148 93 152.5 c 128
 81 157 81 157 73 166 c 0
 55 183 55 183 55 224 c 0
 55 254 55 254 82 274 c 0
 109 292 109 292 148 292 c 0
 190 292 190 292 212.5 276 c 128
 235 260 235 260 235 238 c 0
 235 219 235 219 218 205 c 0
 198 191 198 191 181 191 c 0
 165 191 165 191 156 200.5 c 128
 147 210 147 210 144 227 c 0
 144 236 144 236 153 247 c 1
 164 253 l 1
 181 255 l 2
 192 255 192 255 195 247 c 0
 195 238 195 238 182 238 c 0
 173 238 173 238 173 230 c 2
 177 221 l 1
 187 217 l 1
 196 221 l 2
 202 226 202 226 202 231 c 0
 202 241 202 241 183.5 252 c 128
 165 263 165 263 143 263 c 2
 124 260 l 2
 114 256 114 256 106 249 c 0
 87 235 87 235 87 217 c 0
 87 190 87 190 111.5 177 c 128
 136 164 136 164 163 164 c 2
 176 164 l 1
 188 166 l 1
 190 157 l 2
 190 148 190 148 185 144 c 2
 137 127 l 1
 112 117 l 2
 103 112 103 112 97 103 c 128
 91 94 91 94 91 80 c 0
 91 50 91 50 109 36 c 1
 125 29 125 29 153 29 c 0
 180 29 180 29 203 48 c 1
 240 89 l 1
 261 57 l 2
 282 27 282 27 327 27 c 0
 349 27 349 27 368 46 c 0
 373 53 373 53 378.5 64 c 128
 384 75 384 75 384 89 c 2
 386 319 l 2
 386 352 386 352 379 365 c 0
 368 383 368 383 326 398 c 2
 97 480 l 1
 82 484 l 1
 81 491 l 1
 113 509 l 1
 158 532 l 2
 170 535 170 535 242 514 c 2
 392 470 l 1
 417 470 417 470 431 477 c 2
 461 494 l 1
 467 494 l 1
 464 487 464 487 453 478 c 2
 427 455 l 1
 409 445 409 445 384 445 c 0
 363 445 363 445 264 476 c 2
 187 499 l 1
 154 506 l 1
 140 500 l 1
 133 495 l 1
 159 488 159 488 245 455 c 2
 333 422 l 2
 379 408 379 408 395 395 c 0
 416 377 416 377 416 332 c 2
 415 73 l 2
EndSplineSet
Comment: "classes: cDigitTham"
EndChar

StartChar: u1A97
Encoding: 9 6807 9
Width: 461
VWidth: 0
Flags: HW
LayerCount: 2
Fore
SplineSet
413 72 m 2
 413 43 413 43 385 21 c 128
 357 -1 357 -1 320 -1 c 0
 285 -1 285 -1 264 10 c 1
 237 37 l 1
 234 27 234 27 210 13 c 0
 204 10 204 10 187 5 c 128
 170 0 170 0 146 0 c 0
 104 0 104 0 81 20 c 0
 59 42 59 42 59 73 c 0
 59 94 59 94 65 109.5 c 128
 71 125 71 125 94 139 c 2
 115 149 l 1
 124 148 l 2
 105 148 105 148 93 152.5 c 128
 81 157 81 157 73 166 c 0
 55 183 55 183 55 224 c 0
 55 254 55 254 82 274 c 0
 109 292 109 292 148 292 c 0
 190 292 190 292 212.5 276 c 128
 235 260 235 260 235 238 c 0
 235 219 235 219 218 205 c 0
 198 191 198 191 181 191 c 0
 165 191 165 191 156 200.5 c 128
 147 210 147 210 144 227 c 0
 144 236 144 236 153 247 c 1
 164 253 l 1
 181 255 l 2
 192 255 192 255 195 247 c 0
 195 238 195 238 182 238 c 0
 173 238 173 238 173 230 c 2
 177 221 l 1
 187 217 l 1
 196 221 l 2
 202 226 202 226 202 231 c 0
 202 241 202 241 183.5 252 c 128
 165 263 165 263 143 263 c 2
 124 260 l 2
 114 256 114 256 106 249 c 0
 87 235 87 235 87 217 c 0
 87 198 87 198 117 181 c 0
 149 165 149 165 176 165 c 2
 188 166 l 1
 190 157 l 2
 190 148 190 148 185 144 c 2
 137 127 l 1
 115 118 l 2
 97 109 97 109 97 83 c 0
 97 66 97 66 112 46 c 0
 127 29 127 29 153 29 c 0
 180 29 180 29 203 48 c 1
 240 89 l 1
 281 45 l 2
 301 27 301 27 327 27 c 0
 349 27 349 27 368 46 c 0
 373 53 373 53 378.5 64 c 128
 384 75 384 75 384 89 c 2
 384 179 l 2
 384 200 384 200 344 228 c 1
 313 258 l 1
 329 277 329 277 343 285.5 c 128
 357 294 357 294 366 294 c 0
 376 294 376 294 391 283 c 1
 415 273 l 1
 425 275 l 1
 432 276 l 1
 435 272 l 1
 435 263 435 263 419 251 c 0
 408 245 408 245 396 242 c 0
 384 242 384 242 370 262 c 0
 368 267 368 267 359 264 c 1
 373 251 373 251 397 221 c 0
 405 212 405 212 409 197 c 2
 413 172 l 1
 413 72 l 2
EndSplineSet
Comment: "classes: cDigitTham"
EndChar

StartChar: u1A95
Encoding: 10 6805 10
Width: 458
VWidth: 0
Flags: HW
LayerCount: 2
Fore
SplineSet
264 428 m 1
 267 408 l 1
 267 370 267 370 232 334 c 128
 197 298 197 298 169 298 c 0
 161 298 161 298 158 304 c 0
 158 310 158 310 175 314 c 0
 191 314 191 314 216 343 c 128
 241 372 241 372 241 399 c 1
 238 416 l 2
 232 437 232 437 211 449.5 c 128
 190 462 190 462 165 462 c 0
 154 462 154 462 154 479 c 0
 154 500 154 500 168 500 c 0
 211 500 211 500 234 480 c 0
 251 465 251 465 264 428 c 1
485 -228 m 2
 392 -277 l 1
 344 -296 344 -296 287 -296 c 0
 239 -296 239 -296 200 -290 c 128
 161 -284 161 -284 128 -263 c 0
 102 -244 102 -244 81 -201 c 0
 70 -171 70 -171 62 -133 c 1
 62 212 l 2
 62 249 62 249 82 270.5 c 128
 102 292 102 292 137 292 c 0
 184 292 184 292 205 262 c 0
 214 248 214 248 220 210 c 2
 235 126 l 1
 247 54 l 2
 250 28 250 28 297 28 c 0
 324 28 324 28 339 37 c 128
 354 46 354 46 357 62 c 2
 358 83 l 1
 360 99 l 2
 360 115 360 115 355 128 c 0
 346 140 346 140 321 150 c 2
 294 157 l 1
 292 167 l 2
 292 176 292 176 296 177 c 2
 342 182 l 2
 362 188 362 188 366 198 c 2
 370 233 l 2
 370 247 370 247 361.5 257 c 128
 353 267 353 267 337 267 c 0
 329 267 329 267 320 261 c 0
 315 256 315 256 313 248 c 1
 316 237 l 2
 319 231 319 231 316 228 c 2
 303 223 l 2
 293 223 293 223 287 232 c 1
 284 251 l 2
 284 270 284 270 302.5 282 c 128
 321 294 321 294 343 294 c 0
 373 294 373 294 388 273 c 0
 397 258 397 258 397 235 c 0
 397 211 397 211 394 197 c 128
 391 183 391 183 378 173 c 1
 355 164 l 1
 347 162 l 1
 374 152 l 2
 378 147 378 147 385 128 c 1
 389 99 l 1
 386 69 l 1
 382 51 l 1
 382 31 382 31 359 15.5 c 128
 336 0 336 0 298 0 c 0
 265 0 265 0 244 13 c 128
 223 26 223 26 217 53 c 2
 204 131 l 1
 190 207 l 2
 187 231 187 231 176 243 c 0
 162 263 162 263 134 263 c 0
 95 263 95 263 95 212 c 2
 95 -131 l 2
 95 -160 95 -160 109.5 -191.5 c 128
 124 -223 124 -223 149 -241 c 0
 168 -256 168 -256 207 -264 c 2
 242 -268 l 1
 286 -269 l 2
 343 -269 343 -269 383 -252 c 2
 473 -206 l 2
 479 -203 479 -203 486 -206 c 0
 492 -209 492 -209 492 -217 c 0
 491 -219 491 -219 490 -221.5 c 128
 489 -224 489 -224 485 -228 c 2
EndSplineSet
Comment: "classes: cDigitTham"
EndChar

StartChar: u1A99
Encoding: 11 6809 11
Width: 564
VWidth: 0
Flags: HW
LayerCount: 2
Fore
SplineSet
510 123 m 1
 502 72 502 72 467 36 c 128
 432 0 432 0 383 0 c 0
 347 0 347 0 321 16 c 0
 286 37 286 37 276 86 c 2
 265 153 l 1
 261 181 l 1
 257 202 l 2
 254 225 254 225 227 244 c 0
 202 264 202 264 174 264 c 0
 142 264 142 264 119 244 c 0
 101 229 101 229 85 197 c 0
 79 185 79 185 79 162 c 0
 79 151 79 151 79 142.5 c 128
 79 134 79 134 83 122 c 2
 91 96 l 2
 94 84 94 84 101 73 c 0
 112 51 112 51 133 37 c 2
 150 29 l 2
 158 26 158 26 174 24 c 0
 188 24 188 24 203 35.5 c 128
 218 47 218 47 219 60 c 0
 219 70 219 70 203 83 c 0
 199 86 199 86 195 82 c 1
 201 75 l 2
 206 70 206 70 207 67 c 2
 203 58 l 1
 196 55 l 1
 165 58 165 58 165 79 c 0
 165 90 165 90 177 100 c 128
 189 110 189 110 202 110 c 0
 209 110 209 110 221 104 c 0
 250 83 250 83 250 57 c 0
 250 35 250 35 228 16 c 0
 206 -1 206 -1 172 -1 c 0
 136 -1 136 -1 107 20 c 0
 86 38 86 38 69 78 c 1
 55 125 55 125 55 152 c 2
 56 177 l 2
 56 185 56 185 59 195.5 c 128
 62 206 62 206 64 213 c 0
 70 241 70 241 102.5 267.5 c 128
 135 294 135 294 176 294 c 0
 223 294 223 294 255 268 c 0
 281 248 281 248 293 206 c 1
 301 147 l 1
 308 97 l 2
 314 61 314 61 336 42 c 0
 358 25 358 25 383 25 c 0
 422 25 422 25 449 55 c 128
 476 85 476 85 482 128 c 2
 483 144 l 2
 483 173 483 173 474 202 c 0
 462 237 462 237 439 246.5 c 128
 416 256 416 256 403 258 c 0
 391 258 391 258 375 253 c 0
 366 251 366 251 359 257 c 0
 354 264 354 264 354 275 c 0
 354 280 354 280 361 286 c 0
 379 291 379 291 397 293 c 0
 418 293 418 293 450.5 280.5 c 128
 483 268 483 268 499 221 c 0
 511 188 511 188 511 145 c 2
 510 123 l 1
EndSplineSet
Comment: "classes: cDigitTham"
EndChar

StartChar: u1A3E
Encoding: 12 6718 12
Width: 530
VWidth: 0
Flags: HW
AnchorPoint: "UR" 471 416 basechar 0
AnchorPoint: "LR" 462 -71 basechar 0
AnchorPoint: "U" 261.5 416 basechar 0
AnchorPoint: "L" 266.5 0 basechar 0
LayerCount: 2
Fore
SplineSet
202 112 m 0
 200 117 207 125 223 138 c 0
 229 142 236 146 246 152 c 0
 254 157 262 161 271 164 c 0
 287 170 301 173 314 173 c 0
 338 173 361 165 385 148 c 0
 405 134 423 114 440 86 c 0
 445 78 449 68 452 54 c 0
 456 16 l 0
 456 -22 447 -67 428 -121 c 0
 400 -190 l 0
 425 -95 l 0
 427 -82 429 -70 431 -58 c 0
 432 -47 432 -36 433 -24 c 0
 433 -7 432 7 429 20 c 0
 427 32 422 45 414 59 c 0
 398 85 378 106 354 122 c 0
 331 138 306 146 278 146 c 0
 270 146 262 145 253 142 c 0
 245 140 241 137 240 132 c 0
 242 129 244 127 247 125 c 0
 260 122 l 0
 271 121 l 0
 280 121 288 123 296 129 c 0
 309 138 l 0
 313 136 312 131 305 121 c 0
 299 114 291 107 279 98 c 0
 269 92 258 89 244 89 c 0
 222 89 208 96 202 112 c 0
125 278 m 0
 130 282 132 291 133 305 c 0
 131 318 125 324 115 325 c 0
 110 325 105 323 100 318 c 0
 98 316 97 313 97 309 c 0
 97 305 99 299 103 290 c 0
 109 278 116 274 125 278 c 0
93 251 m 0
 89 252 83 258 75 271 c 0
 69 284 66 294 65 302 c 0
 65 306 66 309 69 313 c 0
 99 340 l 0
 111 350 120 355 128 356 c 0
 138 356 148 352 159 342 c 0
 169 334 174 325 176 313 c 0
 176 288 162 259 132 226 c 0
 103 194 89 166 88 140 c 0
 88 110 114 86 167 66 c 0
 205 53 240 47 273 46 c 0
 304 46 339 61 379 91 c 0
 418 121 437 145 438 165 c 0
 440 198 l 0
 440 216 437 231 430 244 c 0
 421 261 405 276 380 290 c 0
 376 292 371 294 364 296 c 0
 358 298 355 299 353 301 c 0
 332 304 l 0
 328 304 324 308 318 317 c 0
 314 327 312 335 312 341 c 0
 312 345 317 349 329 353 c 0
 340 357 351 359 363 360 c 0
 369 360 374 359 379 356 c 0
 419 325 l 0
 434 312 440 304 439 299 c 0
 437 299 435 299 431 301 c 0
 429 302 421 306 407 313 c 0
 376 325 l 0
 363 325 l 0
 367 322 371 320 376 318 c 0
 402 313 l 0
 408 311 414 306 422 298 c 0
 440 276 453 251 462 221 c 0
 468 196 471 174 472 153 c 0
 472 125 444 92 387 52 c 0
 335 17 295 0 266 -1 c 0
 220 -1 175 9 130 30 c 0
 71 57 42 93 41 139 c 0
 41 153 57 178 91 216 c 0
 133 265 l 0
 93 251 l 0
EndSplineSet
Comment: "classes: cConsNarrow"
EndChar

StartChar: u1A21
Encoding: 13 6689 13
Width: 545
VWidth: 0
Flags: HW
AnchorPoint: "UR" 455 416 basechar 0
AnchorPoint: "LR" 476 -61 basechar 0
AnchorPoint: "U" 236.5 416 basechar 0
AnchorPoint: "L" 229.5 0 basechar 0
LayerCount: 2
Fore
SplineSet
204 105 m 0
 157 105 125 103 108 98 c 0
 90 94 81 86 81 73 c 0
 81 57 97 45 129 35 c 0
 153 29 186 26 230 26 c 0
 241 26 l 0
 249 26 257 26 267 26 c 0
 277 26 288 27 301 30 c 0
 333 34 357 43 375 59 c 0
 339 75 310 86 286 94 c 0
 263 101 236 104 204 105 c 0
424 137 m 0
 423 242 l 0
 423 262 415 281 399 300 c 0
 384 318 369 327 353 327 c 0
 339 327 318 318 289 299 c 0
 261 281 242 272 231 270 c 0
 223 270 212 278 196 296 c 0
 182 313 169 321 156 322 c 0
 137 323 l 0
 126 323 117 322 110 318 c 0
 104 316 100 312 96 305 c 0
 93 291 l 0
 93 280 l 0
 104 288 l 0
 113 294 119 297 124 297 c 0
 134 297 143 293 153 284 c 0
 156 280 159 275 163 268 c 0
 167 262 169 255 169 246 c 0
 169 238 160 228 141 215 c 0
 122 205 107 200 95 199 c 0
 90 199 87 199 85 201 c 0
 64 215 54 237 53 269 c 0
 54 286 l 0
 58 308 69 325 88 337 c 0
 106 349 127 355 151 356 c 0
 163 356 179 347 199 327 c 0
 218 308 231 299 239 298 c 0
 242 298 264 311 306 337 c 0
 327 349 343 355 354 356 c 0
 376 356 398 347 420 328 c 0
 442 310 453 291 454 269 c 0
 455 139 l 0
 455 127 452 114 446 98 c 0
 423 59 l 0
 431 51 440 40 451 24 c 0
 461 10 467 -5 471 -21 c 0
 475 -59 l 0
 475 -73 474 -87 471 -102 c 0
 469 -116 465 -131 458 -148 c 0
 457 -153 456 -157 454 -160 c 0
 451 -168 447 -177 441 -187 c 0
 449 -151 l 0
 454 -123 456 -101 457 -85 c 0
 456 -74 l 0
 454 -51 449 -30 440 -9 c 0
 436 2 429 13 418 26 c 0
 402 41 l 0
 384 27 359 17 326 10 c 0
 294 4 262 1 229 0 c 0
 186 0 151 3 124 10 c 0
 78 21 55 40 55 68 c 0
 55 90 67 106 91 118 c 0
 115 130 152 136 203 136 c 0
 219 136 235 135 252 133 c 0
 268 131 285 128 305 122 c 0
 339 114 370 100 400 79 c 0
 413 98 l 0
 419 111 422 124 424 137 c 0
101 254 m 0
 101 248 104 242 111 236 c 0
 113 234 117 233 124 231 c 0
 130 231 135 237 141 249 c 0
 141 252 140 256 138 262 c 0
 136 267 132 270 125 273 c 0
 119 273 114 272 109 268 c 0
 105 266 103 262 101 254 c 0
EndSplineSet
Comment: "classes: cConsNarrow"
EndChar

StartChar: u1A72
Encoding: 14 6770 14
Width: 286
VWidth: 0
Flags: HW
LayerCount: 2
Fore
SplineSet
180 475 m 0
 221 482 l 0
 272 491 l 0
 287 493 296 495 300 497 c 0
 304 499 306 502 306 508 c 0
 306 512 305 516 301 522 c 0
 299 529 290 536 274 543 c 0
 259 550 246 553 234 554 c 0
 183 555 l 0
 134 559 l 0
 115 559 100 558 87 554 c 0
 63 548 51 537 51 520 c 0
 51 507 53 498 57 491 c 0
 61 487 67 485 76 485 c 0
 85 485 92 490 98 500 c 0
 98 501 99 502 103 505 c 0
 113 500 118 495 118 488 c 0
 118 482 114 476 104 470 c 0
 96 464 86 461 74 461 c 0
 41 461 25 479 24 517 c 0
 24 541 33 558 51 570 c 0
 69 582 93 588 124 588 c 0
 148 588 l 0
 177 589 l 0
 198 589 221 587 247 583 c 0
 273 579 290 575 300 571 c 0
 316 564 328 551 336 531 c 0
 340 512 l 0
 340 499 334 488 321 477 c 0
 309 468 293 464 272 463 c 0
 252 462 l 0
 245 460 228 457 201 451 c 0
 179 449 164 441 154 426 c 0
 146 413 142 396 142 375 c 0
 142 178 l 0
 142 170 142 163 143 155 c 0
 143 148 144 140 148 130 c 0
 150 121 157 117 171 116 c 0
 174 110 l 0
 172 104 l 0
 139 87 l 0
 132 82 129 73 128 58 c 0
 128 46 134 39 147 36 c 0
 183 33 l 0
 196 33 206 34 213 38 c 0
 220 42 224 48 225 56 c 0
 225 66 221 71 213 71 c 0
 207 71 204 69 202 63 c 0
 206 50 l 0
 206 48 206 47 206 45 c 0
 206 44 206 43 208 40 c 0
 198 38 190 39 184 45 c 0
 180 50 178 57 176 68 c 0
 176 75 179 82 185 90 c 0
 191 97 200 100 212 101 c 0
 232 101 246 95 254 83 c 0
 258 76 260 67 261 56 c 0
 261 40 253 27 237 15 c 0
 222 5 205 0 184 -1 c 0
 158 -1 138 2 124 8 c 0
 104 16 94 32 94 56 c 0
 94 76 101 91 115 101 c 0
 136 110 l 0
 130 113 125 116 121 121 c 0
 111 133 106 152 106 178 c 0
 106 373 l 0
 106 403 114 427 132 447 c 0
 144 460 160 469 180 475 c 0
EndSplineSet
Comment: "classes: cVowelPre"
EndChar

StartChar: u1A3A
Encoding: 15 6714 15
Width: 540
VWidth: 0
Flags: HW
AnchorPoint: "UR" 473 526 basechar 0
AnchorPoint: "LR" 534 0 basechar 0
AnchorPoint: "U" 289.5 496 basechar 0
AnchorPoint: "L" 285.5 1 basechar 0
LayerCount: 2
Fore
SplineSet
440 386 m 0
 464 310 l 0
 471 284 477 258 482 231 c 0
 486 206 488 186 489 169 c 0
 489 121 482 83 466 54 c 0
 448 18 420 0 380 0 c 0
 352 0 327 9 305 27 c 0
 283 54 l 0
 269 42 258 33 248 27 c 0
 216 9 184 0 150 -1 c 0
 122 -1 100 6 84 22 c 0
 66 39 57 62 56 93 c 0
 56 113 64 130 82 146 c 0
 105 165 l 0
 69 187 51 218 51 260 c 0
 51 287 60 309 78 328 c 0
 96 346 121 355 154 356 c 0
 174 356 191 348 205 331 c 0
 219 315 226 296 227 272 c 0
 227 258 218 244 198 230 c 0
 180 217 163 211 145 210 c 0
 133 210 125 214 120 223 c 0
 116 245 l 0
 116 259 121 272 132 285 c 0
 138 291 144 295 150 297 c 0
 169 301 l 0
 185 301 l 0
 172 316 l 0
 161 325 150 330 138 332 c 0
 120 332 105 326 92 313 c 0
 81 301 76 286 75 268 c 0
 75 257 78 246 84 234 c 0
 93 217 108 200 130 181 c 0
 158 161 l 0
 141 153 127 144 115 134 c 0
 99 120 91 106 91 91 c 0
 94 73 l 0
 96 65 103 57 116 47 c 0
 124 41 137 36 157 31 c 0
 171 29 l 0
 193 29 218 39 246 61 c 0
 254 66 266 77 283 94 c 0
 312 61 l 0
 338 39 360 28 378 27 c 0
 406 27 428 43 444 75 c 0
 456 101 462 133 462 172 c 0
 462 192 457 222 447 263 c 0
 412 384 l 0
 362 377 l 0
 340 375 321 373 303 371 c 0
 287 370 270 370 252 369 c 0
 230 369 l 0
 207 371 l 0
 191 371 178 371 166 373 c 0
 155 375 144 377 133 381 c 0
 99 389 74 403 56 425 c 0
 42 442 32 460 26 480 c 0
 20 499 17 518 17 538 c 0
 18 562 l 0
 24 591 l 0
 34 624 l 0
 56 676 94 711 150 729 c 0
 172 736 193 741 215 744 c 0
 283 748 l 0
 295 748 307 748 321 748 c 0
 332 746 344 745 358 743 c 0
 371 742 389 739 412 732 c 0
 435 728 459 717 484 697 c 0
 505 681 516 669 518 661 c 0
 499 669 l 0
 463 694 430 709 400 716 c 0
 345 723 l 0
 286 726 l 0
 272 726 259 726 246 725 c 0
 234 725 219 724 201 720 c 0
 184 718 166 713 146 704 c 0
 128 696 109 680 88 655 c 0
 69 632 57 608 50 581 c 0
 47 552 l 0
 47 518 58 487 80 459 c 0
 105 428 142 409 192 400 c 0
 245 397 l 0
 276 397 311 399 351 403 c 0
 404 410 l 0
 404 432 407 450 414 465 c 0
 420 480 434 492 458 501 c 0
 481 505 l 0
 493 505 504 502 514 495 c 0
 523 490 528 484 531 475 c 0
 533 458 l 0
 533 446 529 435 521 425 c 0
 499 406 l 0
 495 404 490 401 482 397 c 0
 475 395 468 393 460 389 c 0
 440 386 l 0
191 276 m 0
 176 276 l 0
 172 276 168 275 164 272 c 0
 161 270 158 266 153 260 c 0
 149 255 147 250 147 245 c 0
 147 241 148 238 151 236 c 0
 159 233 l 0
 163 233 171 237 183 246 c 0
 189 250 192 256 194 265 c 0
 191 276 l 0
502 464 m 0
 499 470 493 473 483 473 c 0
 473 473 464 471 456 465 c 0
 448 461 442 455 438 447 c 0
 434 429 l 0
 434 421 l 0
 435 418 l 0
 453 418 469 423 485 434 c 0
 499 449 l 0
 503 455 504 460 502 464 c 0
EndSplineSet
Comment: "classes: cConsNarrow"
EndChar

StartChar: u1A27
Encoding: 16 6695 16
Width: 523
VWidth: 0
Flags: HW
AnchorPoint: "UR" 454 416 basechar 0
AnchorPoint: "LR" 454 0 basechar 0
AnchorPoint: "U" 244.5 416 basechar 0
AnchorPoint: "L" 264.5 0 basechar 0
LayerCount: 2
Fore
SplineSet
101 118 m 0
 142 71 l 0
 162 53 186 41 215 33 c 0
 237 29 l 0
 264 28 l 0
 305 28 340 37 369 56 c 0
 385 66 397 81 406 103 c 0
 414 124 418 146 419 170 c 0
 419 188 416 205 408 221 c 0
 398 243 384 261 364 275 c 0
 354 282 344 288 334 293 c 0
 325 297 315 301 304 307 c 0
 283 315 259 319 232 319 c 0
 203 319 176 313 149 300 c 0
 124 288 105 272 90 250 c 0
 97 252 106 252 117 248 c 0
 129 245 141 238 153 225 c 0
 159 219 163 212 166 203 c 0
 169 181 l 0
 169 171 162 160 146 147 c 0
 142 144 136 140 128 134 c 0
 120 129 111 124 101 118 c 0
58 108 m 0
 89 126 l 0
 97 130 106 137 116 147 c 0
 124 156 128 165 130 176 c 0
 130 184 125 191 114 198 c 0
 104 204 93 208 79 211 c 0
 66 213 58 214 55 214 c 0
 53 214 51 215 47 218 c 0
 54 234 l 0
 66 258 87 282 118 307 c 0
 158 339 199 355 243 355 c 0
 273 355 298 352 320 344 c 0
 341 337 363 326 387 310 c 0
 410 296 427 277 439 252 c 0
 451 228 457 205 457 183 c 0
 457 154 452 127 442 102 c 0
 432 78 416 58 393 40 c 0
 371 24 349 13 325 7 c 0
 313 5 301 3 288 1 c 0
 276 0 261 0 243 -1 c 0
 234 -1 225 -1 214 0 c 0
 204 0 195 1 185 4 c 0
 167 8 150 14 134 23 c 0
 120 31 103 47 82 72 c 0
 58 108 l 0
EndSplineSet
Comment: "classes: cConsNarrow"
EndChar

StartChar: u1A69.low
Encoding: 17 -1 17
Width: 1
VWidth: 0
Flags: HW
AnchorPoint: "LRD" 110 -352 basemark 0
AnchorPoint: "LD" -181 -200 mark 0
LayerCount: 2
Fore
SplineSet
49 -344 m 0
 67 -340 85 -329 104 -311 c 0
 113 -294 l 0
 93 -301 l 0
 46 -313 l 0
 44 -313 36 -314 20 -317 c 0
 6 -319 -6 -320 -18 -320 c 0
 -99 -323 l 0
 -111 -323 -118 -321 -122 -315 c 0
 -125 -311 -126 -303 -127 -291 c 0
 -127 -242 l 0
 -127 -236 -131 -233 -141 -232 c 0
 -146 -232 -152 -234 -160 -238 c 0
 -165 -242 -168 -247 -170 -253 c 0
 -170 -307 l 0
 -170 -319 -168 -329 -162 -338 c 0
 -154 -350 -140 -356 -118 -356 c 0
 -105 -356 l 0
 -87 -356 -69 -356 -51 -356 c 0
 -36 -354 -25 -353 -17 -352 c 0
 -1 -352 12 -352 22 -350 c 0
 32 -349 41 -347 49 -344 c 0
EndSplineSet
EndChar

StartChar: u1A6A.low
Encoding: 18 -1 18
Width: 1
VWidth: 0
Flags: HW
AnchorPoint: "LRD" 112 -352 basemark 0
AnchorPoint: "LD" -181 -200 mark 0
LayerCount: 2
Fore
SplineSet
49 -344 m 0
 67 -340 85 -329 104 -311 c 0
 113 -294 l 0
 93 -301 l 0
 46 -313 l 0
 44 -313 36 -314 20 -317 c 0
 6 -319 -6 -320 -18 -320 c 0
 -99 -323 l 0
 -111 -323 -118 -321 -122 -315 c 0
 -125 -311 -126 -303 -127 -291 c 0
 -127 -242 l 0
 -127 -236 -131 -233 -141 -232 c 0
 -146 -232 -152 -234 -160 -238 c 0
 -165 -242 -168 -247 -170 -253 c 0
 -170 -307 l 0
 -170 -319 -168 -329 -162 -338 c 0
 -154 -350 -140 -356 -118 -356 c 0
 -105 -356 l 0
 -87 -356 -69 -356 -51 -356 c 0
 -36 -354 -25 -353 -17 -352 c 0
 -1 -352 12 -352 22 -350 c 0
 32 -349 41 -347 49 -344 c 0
-193 -242 m 0
 -194 -338 l 0
 -194 -350 -200 -356 -213 -357 c 0
 -223 -357 -231 -352 -238 -342 c 0
 -238 -251 l 0
 -238 -247 -235 -243 -227 -239 c 0
 -220 -235 -213 -233 -205 -233 c 0
 -197 -233 -193 -236 -193 -242 c 0
EndSplineSet
EndChar

StartChar: u1A2C.sub
Encoding: 19 -1 19
Width: 150
VWidth: 0
Flags: HW
AnchorPoint: "LRD" 144 -363 basemark 0
AnchorPoint: "LD" -184.5 -375 basemark 0
AnchorPoint: "LR" -39 0 mark 0
LayerCount: 2
Fore
SplineSet
-107 -139 m 0
 -107 -167 -99 -186 -81 -196 c 0
 -69 -203 -48 -206 -16 -207 c 0
 9 -207 28 -192 43 -162 c 0
 53 -136 58 -103 59 -61 c 0
 60 252 l 0
 60 261 60 267 58 272 c 0
 58 276 56 282 52 290 c 0
 33 324 l 0
 33 325 33 326 35 327 c 0
 38 331 43 336 52 342 c 0
 64 350 72 354 78 356 c 0
 82 355 85 354 87 352 c 0
 100 338 l 0
 102 312 l 0
 102 297 105 281 111 262 c 0
 105 263 l 0
 96 272 l 0
 88 318 l 0
 86 332 l 0
 75 324 l 0
 85 292 l 0
 96 256 l 0
 96 -60 l 0
 96 -122 85 -169 61 -201 c 0
 42 -227 15 -240 -20 -240 c 0
 -58 -240 -86 -232 -105 -216 c 0
 -123 -200 -132 -177 -133 -146 c 0
 -133 -142 -131 -140 -125 -138 c 0
 -107 -139 l 0
-141 -138 m 0
 -141 -122 -144 -110 -152 -101 c 0
 -162 -89 -181 -83 -210 -82 c 0
 -223 -82 -240 -88 -262 -100 c 0
 -272 -106 -281 -109 -291 -110 c 0
 -305 -110 -319 -106 -333 -97 c 0
 -347 -89 -359 -85 -370 -85 c 0
 -388 -84 l 0
 -398 -84 -406 -85 -412 -87 c 0
 -418 -89 -421 -93 -422 -101 c 0
 -422 -109 -415 -115 -401 -119 c 0
 -391 -120 l 0
 -386 -129 l 0
 -384 -138 l 0
 -384 -148 -391 -153 -407 -153 c 0
 -423 -153 -435 -148 -444 -137 c 0
 -452 -127 -456 -116 -457 -102 c 0
 -457 -82 -450 -68 -434 -60 c 0
 -420 -53 -400 -50 -373 -49 c 0
 -361 -49 -345 -55 -323 -68 c 0
 -313 -73 -303 -76 -293 -78 c 0
 -283 -78 -270 -73 -252 -63 c 0
 -236 -54 -222 -50 -209 -49 c 0
 -180 -49 -158 -53 -142 -61 c 0
 -118 -74 -106 -98 -106 -134 c 0
 -106 -174 -121 -202 -153 -218 c 0
 -181 -231 -226 -237 -290 -238 c 0
 -344 -235 l 0
 -354 -235 -362 -235 -368 -233 c 0
 -374 -233 -386 -231 -404 -226 c 0
 -408 -228 l 0
 -412 -237 l 0
 -413 -264 l 0
 -413 -297 -397 -319 -365 -331 c 0
 -342 -338 -300 -341 -237 -342 c 0
 -176 -342 l 0
 -130 -342 l 0
 -89 -343 l 0
 -77 -343 l 0
 -47 -343 -25 -342 -10 -340 c 0
 3 -338 15 -336 26 -334 c 0
 36 -332 50 -328 70 -322 c 0
 80 -320 97 -314 121 -304 c 0
 152 -292 l 0
 119 -314 l 0
 90 -331 66 -343 46 -350 c 0
 4 -364 -31 -371 -61 -372 c 0
 -184 -374 l 0
 -287 -374 -351 -371 -378 -363 c 0
 -426 -350 -450 -319 -450 -270 c 0
 -450 -231 l 0
 -450 -213 -449 -201 -447 -195 c 0
 -447 -191 -444 -189 -436 -187 c 0
 -415 -191 l 0
 -363 -199 l 0
 -345 -201 -331 -203 -319 -205 c 0
 -308 -206 -298 -206 -288 -207 c 0
 -223 -207 -179 -196 -156 -173 c 0
 -149 -166 -144 -155 -141 -138 c 0
EndSplineSet
EndChar

StartChar: u1A3D
Encoding: 20 6717 20
Width: 635
VWidth: 0
Flags: HW
AnchorPoint: "UR" 576 416 basechar 0
AnchorPoint: "LR" 576 0 basechar 0
AnchorPoint: "U" 316.5 416 basechar 0
AnchorPoint: "L" 316.5 0 basechar 0
LayerCount: 2
Fore
SplineSet
324 255 m 0
 316 243 309 237 301 236 c 0
 300 238 300 240 299 242 c 0
 299 246 301 252 307 262 c 0
 322 291 335 311 348 322 c 0
 370 344 397 355 431 355 c 0
 471 355 506 335 538 295 c 0
 564 259 577 222 578 184 c 0
 578 163 576 142 570 121 c 0
 565 101 556 84 542 68 c 0
 527 53 l 0
 519 45 510 40 498 37 c 0
 489 33 485 29 484 25 c 0
 486 25 488 25 491 27 c 0
 503 33 l 0
 542 52 l 0
 503 18 l 0
 491 7 477 2 460 1 c 0
 447 0 l 0
 437 -1 l 0
 433 -1 431 2 430 9 c 0
 436 30 440 42 444 45 c 0
 463 50 l 0
 493 58 515 71 530 90 c 0
 545 109 552 139 553 181 c 0
 553 212 539 243 509 275 c 0
 480 306 452 321 424 322 c 0
 402 322 384 318 369 309 c 0
 363 305 348 287 324 255 c 0
119 238 m 0
 119 240 119 241 117 243 c 0
 117 244 116 247 112 252 c 0
 109 256 105 259 100 262 c 0
 97 264 93 264 87 260 c 0
 83 257 80 253 77 247 c 0
 77 243 79 239 84 234 c 0
 92 230 l 0
 106 229 l 0
 112 229 116 232 119 238 c 0
334 191 m 0
 334 172 327 151 312 127 c 0
 292 95 261 65 218 36 c 0
 187 23 l 0
 159 18 l 0
 149 19 l 0
 142 17 l 0
 145 13 149 11 154 11 c 0
 162 11 173 13 189 18 c 0
 196 19 206 22 219 29 c 0
 209 16 l 0
 192 4 175 -2 158 -2 c 0
 123 -2 105 3 102 15 c 0
 104 19 110 26 121 36 c 0
 131 46 139 51 145 51 c 0
 161 49 l 0
 167 49 171 49 175 51 c 0
 202 62 l 0
 241 80 267 98 281 117 c 0
 295 135 302 155 302 179 c 0
 302 217 290 251 265 281 c 0
 241 311 213 326 181 326 c 0
 161 326 145 323 133 317 c 0
 122 312 111 300 99 281 c 0
 111 284 l 0
 121 284 l 0
 139 277 148 265 148 248 c 0
 148 240 143 232 133 223 c 0
 123 217 110 214 94 213 c 0
 82 213 72 215 64 221 c 0
 57 226 54 235 53 249 c 0
 53 269 64 290 88 314 c 0
 116 341 149 354 189 355 c 0
 235 355 271 338 298 302 c 0
 322 271 334 234 334 191 c 0
EndSplineSet
Comment: "classes: cConsWide"
EndChar

StartChar: u1A33
Encoding: 21 6707 21
Width: 601
VWidth: 0
Flags: HW
AnchorPoint: "UR" 505 416 basechar 0
AnchorPoint: "LR" 585 0 basechar 0
AnchorPoint: "U" 282.5 416 basechar 0
AnchorPoint: "L" 274.5 0 basechar 0
LayerCount: 2
Fore
SplineSet
176 330 m 0
 174 330 173 328 172 323 c 0
 174 315 l 0
 175 309 178 305 184 301 c 0
 190 298 197 297 206 298 c 0
 231 306 252 311 269 313 c 0
 332 316 l 0
 346 316 358 316 369 316 c 0
 379 316 394 315 416 312 c 0
 428 312 438 311 446 309 c 0
 454 308 465 305 479 300 c 0
 504 292 527 280 549 264 c 0
 599 226 l 0
 559 289 l 0
 537 312 511 329 481 340 c 0
 429 353 l 0
 378 357 l 0
 354 356 l 0
 330 356 l 0
 310 356 295 356 284 355 c 0
 275 355 262 353 245 348 c 0
 219 344 196 338 176 330 c 0
278 97 m 0
 272 90 267 85 262 81 c 0
 259 78 254 74 245 68 c 0
 217 48 189 38 159 38 c 0
 135 38 117 48 105 68 c 0
 94 88 89 109 88 132 c 0
 88 166 94 190 106 206 c 0
 118 221 139 231 171 238 c 0
 183 240 191 242 197 246 c 0
 213 256 l 0
 218 259 220 268 221 284 c 0
 221 302 216 318 206 332 c 0
 204 334 198 334 187 332 c 0
 172 326 l 0
 176 306 l 0
 179 289 l 0
 179 276 174 268 162 265 c 0
 125 257 98 244 79 226 c 0
 58 204 48 172 47 128 c 0
 47 96 56 68 75 42 c 0
 96 15 124 2 161 1 c 0
 186 1 212 9 240 26 c 0
 274 51 l 0
 282 37 296 25 318 14 c 0
 338 4 361 -1 387 -2 c 0
 417 -2 444 7 469 25 c 0
 493 43 505 66 505 95 c 0
 505 123 497 146 479 166 c 0
 462 185 440 197 411 202 c 0
 390 204 l 0
 374 204 359 201 344 195 c 0
 330 190 321 183 315 172 c 0
 313 162 l 0
 313 156 314 150 317 143 c 0
 319 137 322 134 328 132 c 0
 353 146 l 0
 369 156 387 161 407 161 c 0
 423 161 436 155 448 141 c 0
 459 128 464 113 465 95 c 0
 465 78 458 65 442 55 c 0
 427 46 409 40 386 37 c 0
 379 36 l 0
 375 36 l 0
 355 36 333 46 309 67 c 0
 278 97 l 0
EndSplineSet
Comment: "classes: cConsNarrow"
EndChar

StartChar: u1A69
Encoding: 22 6761 22
Width: 1
VWidth: 0
Flags: HW
AnchorPoint: "LD" -181 0 mark 0
AnchorPoint: "LRD" 112.5 -162 basemark 0
AnchorPoint: "L" -181 0 mark 0
LayerCount: 2
Fore
SplineSet
49 -152 m 0
 67 -148 85 -137 104 -119 c 0
 113 -102 l 0
 93 -109 l 0
 46 -121 l 0
 44 -121 36 -122 20 -125 c 0
 6 -127 -6 -128 -18 -128 c 0
 -99 -131 l 0
 -111 -131 -118 -129 -122 -123 c 0
 -125 -119 -126 -111 -127 -99 c 0
 -127 -50 l 0
 -127 -44 -131 -41 -141 -40 c 0
 -146 -40 -152 -42 -160 -46 c 0
 -165 -50 -168 -55 -170 -61 c 0
 -170 -115 l 0
 -170 -127 -168 -137 -162 -146 c 0
 -154 -158 -140 -164 -118 -164 c 0
 -105 -164 l 0
 -87 -164 -69 -164 -51 -164 c 0
 -36 -162 -25 -161 -17 -160 c 0
 -1 -160 12 -160 22 -158 c 0
 32 -157 41 -155 49 -152 c 0
EndSplineSet
Comment: "classes: cVowelLDia"
EndChar

StartChar: u1A67
Encoding: 23 6759 23
Width: 0
VWidth: 0
Flags: HW
AnchorPoint: "URD" -104 588 basemark 0
AnchorPoint: "UD" -259.5 416 mark 0
AnchorPoint: "UD" -268.5 562 basemark 0
AnchorPoint: "U" -259.5 416 mark 0
LayerCount: 2
Fore
SplineSet
-144 444 m 0
 -151 437 l 0
 -157 429 -158 423 -154 419 c 0
 -148 416 l 0
 -145 418 -143 419 -142 421 c 0
 -140 431 l 0
 -140 438 l 0
 -144 444 l 0
-118 472 m 0
 -112.214075435 461.87463201 -109 445 -109 445 c 0
 -105 416 l 0
 -120 401 l 0
 -130 391 -137 387 -143 389 c 0
 -172 407 l 0
 -182 415 -187 424 -187 435 c 0
 -187 442 -181 451 -169 463 c 0
 -160 470 l 0
 -171 480 l 0
 -186 493 -208.91542613 499.218284799 -219 503 c 0
 -227 506 -236 508 -246 511 c 0
 -255 513 -268 514 -286 515 c 0
 -312 515 -333 513 -350 508 c 0
 -366 504 -374 495 -374 479 c 0
 -374 464 -370 450 -360 436 c 0
 -352 423 -343 416 -331 415 c 0
 -322 417 l 0
 -311 421 l 0
 -317 423 -323 427 -331 435 c 0
 -339 443 -342 451 -340 460 c 0
 -330 473 l 0
 -312 490 l 0
 -303 494 l 0
 -295 494 -287 488 -279 475 c 0
 -271 463 -267 451 -267 438 c 0
 -267 435 -276 426 -294 409 c 0
 -312 395 -323 388 -328 388 c 0
 -349 388 -366 397 -379 415 c 0
 -392 433 -398 453 -399 476 c 0
 -399 487 -384 501 -353 519 c 0
 -323 537 -302 546 -289 546 c 0
 -269 546 -248.26884908 542.024440825 -226 540 c 0
 -204 538 -163 524 -144 504 c 0
 -144 504 -126 486 -118 472 c 0
-316 468 m 0
 -320 459 l 0
 -320 455 -318 451 -314 445 c 0
 -307 437 -302 433 -298 433 c 0
 -291 437 l 0
 -287 441 -288 448 -296 458 c 0
 -304 468 -310 471 -316 468 c 0
EndSplineSet
Comment: "classes: cVowelUDia"
EndChar

StartChar: u1A23
Encoding: 24 6691 24
Width: 582
VWidth: 0
Flags: HW
AnchorPoint: "UR" 525 416 basechar 0
AnchorPoint: "LR" 528 0 basechar 0
AnchorPoint: "U" 273.5 416 basechar 0
AnchorPoint: "L" 293.5 0 basechar 0
LayerCount: 2
Fore
SplineSet
501 129 m 0
 503 151 l 0
 503 161 502 169 499 175 c 0
 485 211 454 245 405 278 c 0
 382 294 359 306 336 314 c 0
 314 322 294 326 274 327 c 0
 228 327 184 307 142 266 c 0
 101 226 81 181 80 131 c 0
 80 117 83 102 91 84 c 0
 99 68 108 55 119 44 c 0
 122 56 128 68 139 80 c 0
 149 92 159 99 169 102 c 0
 185 104 197 101 207 91 c 0
 216 82 220 68 221 49 c 0
 221 41 214 31 200 18 c 0
 187 7 174 2 159 1 c 0
 119 1 89 19 68 56 c 0
 55 80 49 106 48 134 c 0
 48 174 73 220 124 273 c 0
 177 328 227 355 274 356 c 0
 348 356 411 334 463 288 c 0
 507 249 529 211 530 172 c 0
 531 143 l 0
 531 135 530 127 528 117 c 0
 526 109 523 101 517 91 c 0
 509 76 498 62 484 48 c 0
 478 42 471 37 461 33 c 0
 453 30 444 28 433 26 c 0
 420 31 l 0
 420 26 l 0
 425 18 l 0
 453 27 l 0
 471 33 482 38 487 43 c 0
 504 61 l 0
 512 65 l 0
 500 45 486 29 469 17 c 0
 456 8 442 2 425 -1 c 0
 419 -2 412 -1 402 3 c 0
 394 7 387 14 379 25 c 0
 389 48 l 0
 391 53 394 56 398 59 c 0
 409 57 l 0
 422 54 l 0
 439 57 l 0
 462 65 477 74 486 84 c 0
 501 129 l 0
132 40 m 0
 142 32 l 0
 150 26 156 23 161 23 c 0
 168 23 174 25 180 31 c 0
 186 36 188 41 188 48 c 0
 183 66 l 0
 179 74 174 78 166 80 c 0
 160 80 153 74 143 60 c 0
 132 40 l 0
EndSplineSet
Comment: "classes: cConsNarrow"
EndChar

StartChar: u1A32
Encoding: 25 6706 25
Width: 716
VWidth: 0
Flags: HW
AnchorPoint: "UR" 674 406 basechar 0
AnchorPoint: "LR" 674 0 basechar 0
AnchorPoint: "U" 367.5 406 basechar 0
AnchorPoint: "L" 369.5 0 basechar 0
LayerCount: 2
Fore
SplineSet
345 170 m 0
 345 212 331 249 302 282 c 0
 274 315 244 331 211 332 c 0
 175 332 144 319 118 291 c 0
 93 265 81 227 80 176 c 0
 80 136 94 101 122 69 c 0
 150 39 185 24 229 24 c 0
 260 24 285 32 305 48 c 0
 331 71 344 111 345 170 c 0
206 1 m 0
 163 1 127 18 96 53 c 0
 68 88 54 129 54 177 c 0
 54 225 69 267 99 303 c 0
 129 338 168 355 218 356 c 0
 268 356 307 340 335 307 c 0
 363 275 377 231 377 175 c 0
 377 104 357 55 315 27 c 0
 289 10 253 2 206 1 c 0
519 25 m 0
 560 25 590 37 609 63 c 0
 627 88 636 124 637 172 c 0
 637 218 622 255 592 284 c 0
 566 308 533 320 493 320 c 0
 465 320 439 307 415 280 c 0
 391 254 379 227 379 199 c 0
 379 191 378 181 374 169 c 0
 372 158 369 152 365 150 c 0
 364 152 364 154 363 156 c 0
 361 164 360 171 360 178 c 0
 360 226 371 266 395 298 c 0
 422 336 460 355 510 356 c 0
 556 356 595 338 627 301 c 0
 659 265 675 223 676 173 c 0
 676 126 662 85 632 49 c 0
 604 15 567 -2 520 -3 c 0
 497 -3 480 -1 467 3 c 0
 451 9 443 20 443 38 c 0
 452 47 460 51 469 52 c 0
 474 52 484 46 501 34 c 0
 508 28 514 25 519 25 c 0
EndSplineSet
Comment: "classes: cConsWide"
EndChar

StartChar: u1A2A
Encoding: 26 6698 26
Width: 594
VWidth: 0
Flags: HW
AnchorPoint: "UR" 546 416 basechar 0
AnchorPoint: "LR" 585 0 basechar 0
AnchorPoint: "U" 334.5 396 basechar 0
AnchorPoint: "L" 335.5 0 basechar 0
LayerCount: 2
Fore
SplineSet
550 588 m 0
 544 610 519 630 474 649 c 0
 450 659 423 666 392 672 c 0
 362 677 329 679 292 680 c 0
 199 680 133 661 92 621 c 0
 60 590 44 547 44 490 c 0
 44 164 l 0
 46 152 49 142 55 134 c 0
 60 127 65 123 72 122 c 0
 77 122 80 125 81 132 c 0
 82 494 l 0
 82 548 99 588 133 614 c 0
 167 639 222 651 299 652 c 0
 332 652 360 651 384 649 c 0
 408 647 427 644 442 639 c 0
 456 635 492 618 550 588 c 0
512 141 m 0
 487 180 463 206 439 221 c 0
 409 239 372 248 327 248 c 0
 314 248 302 244 289 236 c 0
 283 232 273 223 259 208 c 0
 233 182 l 0
 221 170 218 161 223 154 c 0
 240 140 255 133 270 133 c 0
 279 133 288 136 299 142 c 0
 307 148 314 157 320 169 c 0
 326 181 329 192 330 202 c 0
 358 201 l 0
 377 198 390 195 397 191 c 0
 420 180 439 167 455 152 c 0
 467 140 481 122 498 98 c 0
 514 76 525 43 531 -2 c 0
 542 -79 l 0
 546 -56 548 -32 548 -7 c 0
 548 22 546 49 540 74 c 0
 535 98 526 120 512 141 c 0
323 79 m 0
 306 70 298 58 297 43 c 0
 297 33 301 23 309 13 c 0
 317 5 325 1 335 0 c 0
 369 0 386 15 387 47 c 0
 387 74 380 93 366 106 c 0
 352 118 330 124 299 124 c 0
 282 124 266 115 249 97 c 0
 217 58 190 39 166 38 c 0
 142 38 123 47 109 65 c 0
 96 83 90 103 89 125 c 0
 89 163 94 190 104 206 c 0
 114 221 140 234 184 247 c 0
 210 255 l 0
 226 262 l 0
 230 264 234 268 239 274 c 0
 243 280 245 285 245 291 c 0
 245 299 242 307 235 316 c 0
 234 317 232 317 228 316 c 0
 226 315 222 312 215 305 c 0
 207 296 l 0
 209 288 208 282 204 278 c 0
 163 265 l 0
 127 256 100 242 81 221 c 0
 59 197 48 163 48 119 c 0
 48 87 59 60 81 36 c 0
 103 13 133 2 172 1 c 0
 200 1 225 16 247 48 c 0
 269 80 286 96 299 96 c 0
 319 96 334 92 345 83 c 0
 355 75 360 66 360 54 c 0
 360 40 354 32 341 28 c 0
 332 27 328 31 327 42 c 0
 327 49 330 55 338 61 c 0
 340 63 339 66 334 72 c 0
 330 77 327 79 323 79 c 0
249 172 m 0
 252 177 l 0
 268 192 l 0
 271 195 277 198 286 202 c 0
 307 205 l 0
 314 205 l 0
 320 204 l 0
 317 193 l 0
 313 185 307 178 299 172 c 0
 297 170 293 169 285 168 c 0
 274 167 l 0
 260 168 l 0
 249 172 l 0
186 330 m 0
 184 330 183 328 182 323 c 0
 184 315 l 0
 185 309 188 305 194 301 c 0
 200 298 207 297 216 298 c 0
 241 306 262 311 279 313 c 0
 342 316 l 0
 368 316 391 314 413 309 c 0
 422 308 431 306 441 303 c 0
 451 301 466 296 486 288 c 0
 506 282 527 271 551 253 c 0
 604 212 l 0
 577 259 l 0
 551 293 519 317 480 332 c 0
 454 341 433 347 417 350 c 0
 402 352 390 353 381 355 c 0
 373 355 360 355 340 356 c 0
 320 356 305 356 294 355 c 0
 285 355 272 353 255 348 c 0
 229 344 206 338 186 330 c 0
EndSplineSet
Comment: "classes: cConsNarrow"
EndChar

StartChar: u1A45
Encoding: 27 6725 27
Width: 487
VWidth: 0
Flags: HW
AnchorPoint: "UR" 448 416 basechar 0
AnchorPoint: "LR" 448 0 basechar 0
AnchorPoint: "U" 248.5 416 basechar 0
AnchorPoint: "L" 240.5 0 basechar 0
LayerCount: 2
Fore
SplineSet
70 176 m 0
 70 147 87 115 123 80 c 0
 159 46 198 29 241 28 c 0
 300 28 343 39 371 63 c 0
 398 86 411 120 412 165 c 0
 412 203 396 240 362 276 c 0
 327 313 287 331 241 332 c 0
 186 332 144 318 114 289 c 0
 85 261 71 224 70 176 c 0
38 178 m 0
 38 229 59 271 101 306 c 0
 143 340 192 357 249 357 c 0
 303 357 349 340 388 305 c 0
 426 271 445 228 446 174 c 0
 446 123 426 81 384 47 c 0
 344 14 297 -2 241 -3 c 0
 187 -3 140 13 100 47 c 0
 59 82 39 125 38 178 c 0
EndSplineSet
Comment: "classes: cConsNarrow"
EndChar

StartChar: u1A30
Encoding: 28 6704 28
Width: 642
VWidth: 0
Flags: HW
AnchorPoint: "UR" 599 416 basechar 0
AnchorPoint: "LR" 600 0 basechar 0
AnchorPoint: "U" 303.5 416 basechar 0
AnchorPoint: "L" 312.5 0 basechar 0
LayerCount: 2
Fore
SplineSet
334 61 m 0
 315 63 l 0
 302 63 271 49 222 20 c 0
 198 6 175 -1 151 -1 c 0
 122 -1 98 4 78 16 c 0
 59 27 50 43 49 66 c 0
 49 83 53 96 63 107 c 0
 73 117 88 126 108 134 c 0
 280 187 l 0
 299 192 315 200 328 211 c 0
 340 221 346 231 347 243 c 0
 347 272 l 0
 347 288 342 300 330 310 c 0
 320 319 310 323 298 324 c 0
 286 324 274 318 262 306 c 0
 237 281 222 268 217 266 c 0
 208 266 195 275 177 293 c 0
 163 310 153 319 147 322 c 0
 132 324 l 0
 114 324 102 317 95 301 c 0
 93 291 l 0
 93 280 l 0
 100 283 l 0
 125 290 l 0
 137 290 145 287 151 279 c 0
 156 273 158 262 159 246 c 0
 159 234 149 222 129 210 c 0
 116 202 105 198 95 197 c 0
 93 197 90 197 85 199 c 0
 75 203 67 211 60 224 c 0
 55 236 53 249 52 265 c 0
 54 286 l 0
 58 307 68 324 85 337 c 0
 101 349 121 355 145 356 c 0
 159 356 174 347 191 327 c 0
 208 309 219 300 226 300 c 0
 267 340 l 0
 279 350 291 355 303 356 c 0
 324 356 343 349 360 335 c 0
 377 322 385 304 386 281 c 0
 386 246 l 0
 386 222 376 203 354 187 c 0
 341 178 319 169 288 159 c 0
 231 144 l 0
 191 133 160 123 137 113 c 0
 113 105 100 100 98 96 c 0
 90 90 86 82 86 70 c 0
 86 57 92 47 104 39 c 0
 116 33 131 30 149 30 c 0
 167 30 188 37 214 52 c 0
 268 85 305 101 326 102 c 0
 338 101 l 0
 357 99 379 83 405 51 c 0
 416 37 427 30 438 30 c 0
 475 30 507 47 534 83 c 0
 556 112 567 139 567 165 c 0
 567 183 558 202 539 224 c 0
 499 268 479 292 478 298 c 0
 478 304 481 312 487 322 c 0
 493 332 499 340 507 348 c 0
 511 352 515 354 521 355 c 0
 525 355 529 353 533 348 c 0
 562 302 l 0
 572 286 576 276 574 271 c 0
 558 283 l 0
 533 316 l 0
 532 318 530 319 526 321 c 0
 523 319 521 317 520 315 c 0
 531 303 l 0
 548 285 l 0
 562 269 l 0
 576 255 586 237 592 215 c 0
 600 165 l 0
 600 127 584 91 551 55 c 0
 519 20 482 3 439 2 c 0
 412 2 391 11 374 30 c 0
 360 48 347 58 334 61 c 0
101 254 m 0
 101 249 103 245 107 240 c 0
 111 236 115 234 120 232 c 0
 126 232 131 238 135 250 c 0
 136 254 135 258 131 262 c 0
 127 266 123 268 117 270 c 0
 111 270 107 270 105 268 c 0
 104 267 103 266 102 263 c 0
 102 261 102 258 101 254 c 0
EndSplineSet
Comment: "classes: cConsNarrow"
EndChar

StartChar: u1A29
Encoding: 29 6697 29
Width: 615
VWidth: 0
Flags: HW
AnchorPoint: "UR" 526 416 basechar 0
AnchorPoint: "LR" 580 0 basechar 0
AnchorPoint: "U" 336.5 416 basechar 0
AnchorPoint: "L" 324.5 0 basechar 0
LayerCount: 2
Fore
SplineSet
502 141 m 0
 477 180 453 206 429 221 c 0
 399 239 362 248 317 248 c 0
 304 248 292 244 279 236 c 0
 273 232 263 223 249 208 c 0
 223 182 l 0
 211 170 208 161 213 154 c 0
 230 140 245 133 260 133 c 0
 269 133 278 136 289 142 c 0
 297 148 304 157 310 169 c 0
 316 181 319 192 320 202 c 0
 348 201 l 0
 367 198 380 195 387 191 c 0
 410 180 429 167 445 152 c 0
 457 140 471 122 488 98 c 0
 504 76 515 43 521 -2 c 0
 532 -79 l 0
 536 -56 538 -32 538 -7 c 0
 538 22 536 49 530 74 c 0
 525 98 516 120 502 141 c 0
313 79 m 0
 296 70 288 58 287 43 c 0
 287 33 291 23 299 13 c 0
 307 5 315 1 325 0 c 0
 359 0 376 15 377 47 c 0
 377 74 370 93 356 106 c 0
 342 118 320 124 289 124 c 0
 272 124 256 115 239 97 c 0
 207 58 180 39 156 38 c 0
 132 38 113 47 99 65 c 0
 86 83 80 103 79 125 c 0
 79 163 84 190 94 206 c 0
 104 221 130 234 174 247 c 0
 200 255 l 0
 216 262 l 0
 220 264 224 268 229 274 c 0
 233 280 235 285 235 291 c 0
 235 299 232 307 225 316 c 0
 224 317 222 317 218 316 c 0
 216 315 212 312 205 305 c 0
 197 296 l 0
 199 288 198 282 194 278 c 0
 153 265 l 0
 117 256 90 242 71 221 c 0
 49 197 38 163 38 119 c 0
 38 87 49 60 71 36 c 0
 93 13 123 2 162 1 c 0
 190 1 215 16 237 48 c 0
 259 80 276 96 289 96 c 0
 309 96 324 92 335 83 c 0
 345 75 350 66 350 54 c 0
 350 40 344 32 331 28 c 0
 322 27 318 31 317 42 c 0
 317 49 320 55 328 61 c 0
 330 63 329 66 324 72 c 0
 320 77 317 79 313 79 c 0
239 172 m 0
 242 177 l 0
 258 192 l 0
 261 195 267 198 276 202 c 0
 297 205 l 0
 304 205 l 0
 310 204 l 0
 307 193 l 0
 303 185 297 178 289 172 c 0
 287 170 283 169 275 168 c 0
 264 167 l 0
 250 168 l 0
 239 172 l 0
176 330 m 0
 174 330 173 328 172 323 c 0
 174 315 l 0
 175 309 178 305 184 301 c 0
 190 298 197 297 206 298 c 0
 231 306 252 311 269 313 c 0
 332 316 l 0
 358 316 381 314 403 309 c 0
 412 308 421 306 431 303 c 0
 441 301 456 296 476 288 c 0
 496 282 518 271 542 253 c 0
 596 212 l 0
 551 279 l 0
 527 303 501 320 471 331 c 0
 461 335 449 338 434 342 c 0
 421 346 410 349 399 351 c 0
 389 353 380 354 371 355 c 0
 363 355 350 355 330 356 c 0
 310 356 295 356 284 355 c 0
 275 355 262 353 245 348 c 0
 219 344 196 338 176 330 c 0
EndSplineSet
Comment: "classes: cConsNarrow"
EndChar

StartChar: u1A4A
Encoding: 30 6730 30
Width: 601
VWidth: 0
Flags: HW
AnchorPoint: "UR" 548 416 basechar 0
AnchorPoint: "LR" 548 -280 basechar 0
AnchorPoint: "U" 332.5 416 basechar 0
AnchorPoint: "L" 328.5 -287 basechar 0
LayerCount: 2
Fore
SplineSet
401 304 m 0
 346 317 l 0
 300 322 l 0
 283 322 264 319 241 313 c 0
 224 305 l 0
 211 298 l 0
 213 302 212 306 207 312 c 0
 203 317 199 323 195 332 c 0
 195 336 211 341 244 347 c 0
 277 353 305 356 328 356 c 0
 375 353 l 0
 391 351 406 348 422 343 c 0
 460 331 491 305 516 263 c 0
 536 226 546 191 547 157 c 0
 547 145 l 0
 547 117 546 99 544 91 c 0
 542 85 540 78 536 68 c 0
 534 60 530 50 523 36 c 0
 520 28 508 9 486 -21 c 0
 467 -48 l 0
 475 -36 483 -16 493 14 c 0
 502 44 508 76 513 110 c 0
 513 150 504 188 484 226 c 0
 462 269 435 295 401 304 c 0
392 47 m 0
 392 33 388 22 378 12 c 0
 369 4 357 0 340 0 c 0
 332 0 324 4 314 13 c 0
 306 22 302 32 302 43 c 0
 302 57 310 69 328 79 c 0
 331 80 335 78 340 73 c 0
 344 68 345 64 343 61 c 0
 337 57 334 51 332 42 c 0
 332 33 336 29 346 28 c 0
 358 30 364 38 365 54 c 0
 365 64 360 73 350 83 c 0
 341 91 326 95 304 96 c 0
 292 96 275 80 252 48 c 0
 230 17 205 2 177 1 c 0
 140 1 110 12 87 36 c 0
 65 60 54 87 53 119 c 0
 53 161 64 194 88 218 c 0
 105 235 133 249 172 261 c 0
 198 267 211 275 211 285 c 0
 211 289 209 296 205 308 c 0
 222 315 l 0
 232 319 238 319 241 316 c 0
 247 301 250 290 250 281 c 0
 250 273 246 266 238 260 c 0
 218 251 l 0
 199 246 l 0
 161 238 134 225 117 206 c 0
 102 188 95 161 94 125 c 0
 94 104 100 84 113 65 c 0
 126 47 145 38 171 38 c 0
 193 38 220 57 254 96 c 0
 269 114 285 123 304 124 c 0
 334 124 356 118 370 106 c 0
 384 95 391 76 392 47 c 0
547 -163 m 0
 547 -213 524 -248 478 -268 c 0
 446 -281 397 -287 329 -288 c 0
 253 -288 191 -277 141 -254 c 0
 84 -228 56 -190 55 -140 c 0
 55 147 l 0
 85 202 l 0
 86 188 l 0
 86 148 l 0
 85 2 l 0
 84 -154 l 0
 84 -185 111 -211 166 -232 c 0
 218 -250 273 -259 331 -260 c 0
 401 -260 451 -251 482 -232 c 0
 506 -217 518 -195 518 -166 c 0
 518 -140 503 -121 471 -108 c 0
 440 -96 403 -90 358 -90 c 0
 333 -90 l 0
 318 -92 l 0
 277 -96 233 -102 186 -111 c 0
 140 -119 108 -127 88 -135 c 0
 85 -111 l 0
 179 -81 l 0
 202 -75 225 -70 248 -66 c 0
 271 -63 296 -62 324 -61 c 0
 360 -61 391 -63 419 -67 c 0
 446 -71 469 -77 490 -87 c 0
 528 -104 547 -129 547 -163 c 0
EndSplineSet
Comment: "classes: cConsNarrow"
EndChar

StartChar: u1A44
Encoding: 31 6724 31
Width: 537
VWidth: 0
Flags: HW
AnchorPoint: "UR" 455 416 basechar 0
AnchorPoint: "LR" 548 -390 basechar 0
AnchorPoint: "U" 258.5 416 basechar 0
AnchorPoint: "L" 268.5 -410 basechar 0
LayerCount: 2
Fore
SplineSet
238 -275 m 0
 238 -271 248 -259 268 -238 c 0
 290 -218 310 -204 328 -196 c 0
 346 -193 l 0
 369 -193 397 -201 430 -218 c 0
 462 -235 483 -256 494 -281 c 0
 508 -317 518 -369 524 -438 c 0
 524 -461 l 0
 523 -454 522 -446 520 -436 c 0
 519 -428 517 -419 513 -408 c 0
 503 -373 486 -336 461 -296 c 0
 449 -277 431 -261 407 -247 c 0
 395 -241 384 -237 372 -233 c 0
 361 -230 349 -229 336 -228 c 0
 327 -228 317 -231 305 -239 c 0
 294 -247 287 -255 284 -264 c 0
 297 -265 l 0
 321 -255 337 -244 345 -231 c 0
 348 -230 l 0
 350 -232 351 -237 351 -245 c 0
 351 -253 351 -258 349 -260 c 0
 347 -268 339 -276 325 -284 c 0
 312 -292 301 -295 291 -295 c 0
 259 -292 l 0
 250 -291 243 -286 238 -275 c 0
114 -272 m 0
 118 -311 135 -339 166 -358 c 0
 192 -372 227 -379 273 -380 c 0
 355 -380 419 -356 465 -306 c 0
 500 -268 517 -228 518 -185 c 0
 518 -171 516 -162 510 -156 c 0
 491 -138 470 -125 446 -116 c 0
 424 -108 398 -104 366 -103 c 0
 358 -103 348 -103 335 -104 c 0
 324 -104 312 -105 299 -108 c 0
 249 -114 207 -129 172 -155 c 0
 133 -183 114 -217 113 -258 c 0
 114 -272 l 0
101 254 m 0
 101 249 103 245 107 240 c 0
 111 236 115 234 120 232 c 0
 126 232 131 238 135 250 c 0
 136 254 135 258 131 262 c 0
 127 266 123 268 117 270 c 0
 111 270 107 270 105 268 c 0
 104 267 103 266 102 263 c 0
 102 261 102 258 101 254 c 0
93 280 m 0
 100 283 l 0
 125 290 l 0
 137 290 145 287 151 279 c 0
 156 273 158 262 159 246 c 0
 159 234 149 222 129 210 c 0
 116 202 105 198 95 197 c 0
 93 197 90 197 85 199 c 0
 75 203 67 211 60 224 c 0
 55 236 53 249 52 265 c 0
 54 286 l 0
 58 308 69 325 88 337 c 0
 106 349 127 355 151 356 c 0
 162 356 179 350 204 336 c 0
 229 324 248 318 263 317 c 0
 277 317 294 323 315 335 c 0
 335 347 351 353 363 354 c 0
 386 354 407 346 427 330 c 0
 446 314 455 292 456 264 c 0
 456 211 l 0
 456 189 440 167 408 143 c 0
 376 120 342 109 306 108 c 0
 249 108 206 104 176 96 c 0
 163 92 147 81 128 62 c 0
 119 51 l 0
 118 42 l 0
 200 64 l 0
 215 66 234 68 258 71 c 0
 282 73 307 74 334 74 c 0
 374 74 408 65 438 46 c 0
 466 28 492 0 516 -40 c 0
 536 -75 546 -110 546 -147 c 0
 546 -179 544 -206 538 -228 c 0
 534 -252 527 -273 516 -293 c 0
 508 -311 487 -330 453 -350 c 0
 408 -376 353 -394 286 -404 c 0
 234 -408 l 0
 187 -408 149 -398 119 -376 c 0
 91 -355 77 -324 76 -282 c 0
 76 -234 96 -192 137 -155 c 0
 184 -115 238 -91 299 -82 c 0
 346 -79 l 0
 383 -79 417 -84 449 -95 c 0
 490 -109 511 -118 512 -124 c 0
 512 -100 506 -78 494 -58 c 0
 483 -40 466 -23 443 -5 c 0
 409 19 372 31 331 31 c 0
 282 31 235 28 188 20 c 0
 48 -1 l 0
 69 42 l 0
 83 70 110 92 150 109 c 0
 190 125 228 133 265 134 c 0
 321 134 360 140 383 153 c 0
 405 166 416 184 416 207 c 0
 420 250 l 0
 420 272 414 290 400 304 c 0
 388 318 372 325 352 326 c 0
 338 326 317 317 289 298 c 0
 277 290 266 286 255 284 c 0
 242 284 221 292 192 309 c 0
 178 316 166 320 156 322 c 0
 137 323 l 0
 126 323 117 322 110 318 c 0
 104 316 100 312 96 305 c 0
 93 291 l 0
 93 280 l 0
EndSplineSet
Comment: "classes: cConsNarrow"
EndChar

StartChar: u1A91
Encoding: 32 6801 32
Width: 487
VWidth: 0
Flags: HW
LayerCount: 2
Fore
SplineSet
377 95 m 1
 381 125 l 1
 382 156 l 1
 376 210 376 210 328.5 237 c 128
 281 264 281 264 210 264 c 0
 147 264 147 264 108.5 231.5 c 128
 70 199 70 199 70 141 c 0
 70 102 70 102 88 66.5 c 128
 106 31 106 31 133 31 c 0
 147 31 147 31 154.5 35.5 c 128
 162 40 162 40 159 47 c 0
 157 49 157 49 157 55 c 0
 160 58 160 58 167 58 c 0
 179 58 179 58 188 49 c 1
 192 36 l 2
 192 24 192 24 175 11 c 0
 158 0 158 0 129 0 c 0
 93 0 93 0 66 42 c 0
 41 87 41 87 41 141 c 0
 41 218 41 218 91 255.5 c 128
 141 293 141 293 225 293 c 0
 306 293 306 293 354 266 c 0
 415 231 415 231 415 156 c 2
 415 130 l 1
 415 119 l 1
 413 99 l 2
 413 88 413 88 401 65 c 1
 407 54 407 54 418 6 c 1
 424 -38 l 1
 426 -92 l 2
 426 -109 426 -109 415 -130 c 1
 409 -132 l 1
 409 -114 l 2
 409 -107 409 -107 409 -101 c 0
 407 -94 407 -94 407 -91 c 2
 401 -52 l 1
 379 27 l 1
 366 16 l 1
 352 7 l 1
 320 0 l 1
 308 -1 l 2
 289 -1 289 -1 268 11 c 0
 244 26 244 26 244 54 c 0
 244 124 244 124 313 124 c 0
 331 124 331 124 346 119 c 2
 354 117 l 2
 361 114 361 114 377 95 c 1
359 61 m 1
 353 69 l 1
 341 81 l 1
 331 89 l 1
 318 91 l 2
 308 91 308 91 306 93 c 0
 268 93 268 93 268 56 c 0
 268 42 268 42 284 35 c 1
 314 31 l 1
 325 32 l 1
 342 42 l 2
 354 49 354 49 359 61 c 1
EndSplineSet
Comment: "classes: cDigitTham"
EndChar

StartChar: u1A42
Encoding: 33 6722 33
Width: 539
VWidth: 0
Flags: HW
AnchorPoint: "UR" 483 416 basechar 0
AnchorPoint: "LR" 549 -390 basechar 0
AnchorPoint: "U" 250.5 416 basechar 0
AnchorPoint: "L" 237 -378 basechar 0
LayerCount: 2
Fore
SplineSet
194 -300 m 0
 193 -296 200 -285 217 -265 c 0
 236 -243 254 -228 273 -220 c 0
 288 -217 l 0
 307 -217 327 -225 348 -241 c 0
 369 -257 385 -278 396 -306 c 0
 410 -342 421 -394 430 -463 c 0
 431 -486 l 0
 430 -479 429 -471 427 -461 c 0
 426 -453 424 -444 420 -433 c 0
 410 -398 393 -361 368 -321 c 0
 354 -297 342 -281 330 -272 c 0
 316 -260 297 -254 273 -254 c 0
 263 -254 254 -257 244 -265 c 0
 238 -271 233 -280 227 -292 c 0
 242 -293 l 0
 268 -283 285 -272 293 -260 c 0
 297 -261 l 0
 297 -269 296 -276 292 -284 c 0
 289 -291 281 -298 267 -307 c 0
 254 -315 243 -318 234 -318 c 0
 223 -318 215 -318 210 -316 c 0
 204 -316 199 -311 194 -300 c 0
264 -90 m 0
 211 -90 167 -98 131 -114 c 0
 87 -134 65 -164 64 -206 c 0
 64 -245 82 -277 119 -304 c 0
 153 -326 192 -337 238 -338 c 0
 263 -338 285 -336 306 -332 c 0
 326 -328 345 -322 363 -312 c 0
 406 -291 431 -255 440 -204 c 0
 440 -160 l 0
 440 -149 423 -135 388 -118 c 0
 368 -109 348 -102 328 -97 c 0
 308 -93 287 -91 264 -90 c 0
536 -277 m 0
 540 -296 542 -314 542 -333 c 0
 542 -374 l 0
 536 -367 l 0
 512 -276 l 0
 482 -196 l 0
 483 -213 l 0
 483 -259 459 -298 410 -330 c 0
 362 -362 304 -378 236 -378 c 0
 181 -378 133 -364 91 -336 c 0
 47 -305 25 -265 24 -214 c 0
 24 -163 47 -123 93 -93 c 0
 135 -67 189 -54 256 -54 c 0
 313 -54 361 -64 400 -86 c 0
 413 -92 427 -102 444 -118 c 0
 443 -50 l 0
 443 47 l 0
 443 154 l 0
 443 210 l 0
 443 244 435 271 417 291 c 0
 403 307 387 315 368 316 c 0
 356 316 343 311 327 300 c 0
 293 275 268 263 252 262 c 0
 242 262 222 273 192 297 c 0
 180 307 169 312 157 313 c 0
 143 313 131 311 119 305 c 0
 108 300 100 291 95 278 c 0
 93 268 l 0
 93 257 l 0
 104 265 l 0
 113 271 119 274 124 274 c 0
 141 274 154 263 165 240 c 0
 168 232 169 225 170 217 c 0
 170 203 164 192 152 183 c 0
 141 176 128 173 111 172 c 0
 102 172 94 174 85 178 c 0
 76 184 69 192 64 204 c 0
 60 216 58 229 58 245 c 0
 60 279 l 0
 62 293 72 309 91 328 c 0
 110 346 131 355 156 356 c 0
 167 356 185 347 212 329 c 0
 236 311 252 302 260 302 c 0
 266 302 282 311 310 329 c 0
 336 347 357 356 374 356 c 0
 402 356 426 348 447 331 c 0
 474 309 487 274 488 226 c 0
 489 -158 l 0
 501 -172 511 -189 519 -211 c 0
 536 -277 l 0
101 231 m 0
 101 225 104 219 111 213 c 0
 113 211 117 210 124 208 c 0
 130 208 135 214 141 226 c 0
 141 229 140 233 138 239 c 0
 136 244 132 247 125 250 c 0
 119 250 114 249 109 245 c 0
 105 243 103 239 101 231 c 0
EndSplineSet
Comment: "classes: cConsNarrow"
EndChar

StartChar: u1A7A.high
Encoding: 34 -1 34
Width: 1
VWidth: 0
Flags: HW
AnchorPoint: "URD" -145 765 basemark 0
AnchorPoint: "URD" -145 555 mark 0
AnchorPoint: "UR" -145 555 mark 0
LayerCount: 2
Fore
SplineSet
-179 599 m 0
 -176 599 -174 599 -173 597 c 0
 -151 601 -140 609 -140 621 c 0
 -140 629 -142 635 -148 639 c 0
 -153 643 -159 646 -167 648 c 0
 -176 648 -183 644 -190 635 c 0
 -196 627 -198 618 -197 607 c 0
 -193 595 -188 586 -180 580 c 0
 -173 575 -163 573 -149 572 c 0
 -130 572 -113 577 -97 588 c 0
 -83 598 -76 612 -75 632 c 0
 -76 643 l 0
 -79 663 -90 677 -111 685 c 0
 -115 687 -122 688 -132 688 c 0
 -152 687 l 0
 -165 684 l 0
 -161 692 -157 697 -151 700 c 0
 -141 706 -128 709 -112 709 c 0
 -94 709 -80 704 -68 693 c 0
 -62 687 -53 673 -39 651 c 0
 -33 641 -29 623 -26 595 c 0
 -24 556 l 0
 -20 562 -17 571 -15 583 c 0
 -11 608 l 0
 -10 629 l 0
 -10 641 -11 651 -15 660 c 0
 -23 682 -33 699 -47 711 c 0
 -62 724 -82 730 -107 731 c 0
 -125 731 -140 728 -153 720 c 0
 -166 714 -176 704 -183 688 c 0
 -191 665 l 0
 -193 659 l 0
 -186 661 l 0
 -151 666 l 0
 -141 666 -133 665 -127 661 c 0
 -111 651 l 0
 -108 649 -106 645 -103 638 c 0
 -102 625 l 0
 -102 615 -105 607 -113 600 c 0
 -119 596 -128 594 -140 592 c 0
 -153 592 l 0
 -166 592 -175 597 -181 607 c 0
 -182 611 -182 615 -179 619 c 0
 -177 623 -175 625 -171 625 c 0
 -166 623 -164 619 -163 613 c 0
 -164 609 -165 607 -167 606 c 0
 -179 599 l 0
EndSplineSet
EndChar

StartChar: u1A28
Encoding: 35 6696 35
Width: 502
VWidth: 0
Flags: HW
AnchorPoint: "UR" 430 411 basechar 0
AnchorPoint: "U" 242 409 basechar 0
AnchorPoint: "L" 249 -1 basechar 0
AnchorPoint: "LR" 437 0 basechar 0
LayerCount: 2
Fore
SplineSet
101 77 m 0
 99 73 98 67 96 59 c 0
 96 51 99 44 105 38 c 0
 110 34 117 32 126 30 c 0
 139 32 l 0
 142 32 146 37 153 47 c 0
 160 69 l 0
 159 70 158 71 155 73 c 0
 154 74 152 75 149 77 c 0
 147 78 142 79 134 81 c 0
 128 83 123 84 119 85 c 0
 111 85 105 83 101 77 c 0
227 356 m 0
 245 357 l 0
 257 357 268 356 278 354 c 0
 288 352 300 348 314 342 c 0
 327 337 346 326 373 309 c 0
 395 295 411 276 423 252 c 0
 435 228 441 205 441 183 c 0
 441 155 435 127 423 99 c 0
 411 72 395 50 374 33 c 0
 358 21 343 12 329 6 c 0
 315 2 301 0 287 -1 c 0
 264 -1 245 5 230 18 c 0
 189 57 l 0
 185 43 176 30 160 18 c 0
 146 7 128 2 104 1 c 0
 92 1 81 7 69 21 c 0
 59 35 54 49 54 63 c 0
 57 77 l 0
 61 86 69 95 81 105 c 0
 93 113 107 117 123 117 c 0
 137 117 152 113 170 104 c 0
 169 128 l 0
 169 137 163 146 151 155 c 0
 135 159 l 0
 122 158 l 0
 108 157 l 0
 100 157 94 158 88 161 c 0
 84 164 81 170 79 180 c 0
 79 187 84 194 95 203 c 0
 105 209 115 212 126 214 c 0
 143 214 159 207 175 193 c 0
 184 184 190 176 193 168 c 0
 198 144 l 0
 199 116 l 0
 199 103 l 0
 198 95 l 0
 249 55 l 0
 257 49 266 44 276 39 c 0
 285 35 294 33 305 33 c 0
 318 33 333 38 352 48 c 0
 363 54 374 69 386 95 c 0
 397 120 402 145 403 170 c 0
 403 188 400 205 392 221 c 0
 382 243 368 261 348 275 c 0
 336 283 325 289 315 295 c 0
 306 301 297 306 287 310 c 0
 264 320 240 325 214 325 c 0
 186 325 162 319 140 307 c 0
 87 258 l 0
 83 256 77 255 68 253 c 0
 54 256 l 0
 46 260 l 0
 44 272 l 0
 44 280 45 288 48 296 c 0
 50 304 55 309 63 313 c 0
 115 332 l 0
 163 356 l 0
 166 357 169 357 172 354 c 0
 172 354 172 352 173 348 c 0
 91 308 l 0
 77 301 l 0
 74 300 74 298 75 293 c 0
 79 289 84 289 92 293 c 0
 131 320 l 0
 162 339 l 0
 171 343 180 346 190 350 c 0
 227 356 l 0
EndSplineSet
EndChar

StartChar: u1A2D
Encoding: 36 6701 36
Width: 540
VWidth: 0
Flags: HW
AnchorPoint: "UR" 490 416 basechar 0
AnchorPoint: "LR" 490 0 basechar 0
AnchorPoint: "U" 281.5 416 basechar 0
AnchorPoint: "L" 269.5 0 basechar 0
LayerCount: 2
Fore
SplineSet
390 320 m 0
 391 324 l 0
 396 327 l 0
 400 329 405 327 411 319 c 0
 430 299 l 0
 446 282 l 0
 459 270 l 0
 455 285 l 0
 440 315 l 0
 430 331 l 0
 425 339 419 345 411 349 c 0
 393 356 l 0
 380 359 l 0
 373 359 364 355 352 347 c 0
 348 343 341 332 331 313 c 0
 323 285 l 0
 356 281 l 0
 376 277 399 262 425 234 c 0
 450 208 462 183 463 158 c 0
 463 120 457 90 443 68 c 0
 427 41 404 28 373 27 c 0
 355 27 334 38 310 60 c 0
 283 94 l 0
 246 62 l 0
 217 40 192 29 171 29 c 0
 157 31 l 0
 140 35 127 40 117 46 c 0
 105 54 97 65 93 79 c 0
 91 94 l 0
 91 110 96 126 107 144 c 0
 115 158 123 167 131 171 c 0
 107 182 l 0
 91 192 80 206 73 224 c 0
 70 249 l 0
 70 271 76 290 88 307 c 0
 100 323 116 331 138 332 c 0
 148 332 159 327 171 317 c 0
 185 301 l 0
 169 301 l 0
 161 301 154 300 148 297 c 0
 144 295 139 291 132 285 c 0
 122 273 117 260 116 244 c 0
 120 221 l 0
 123 212 134 208 153 207 c 0
 170 207 187 213 205 225 c 0
 222 237 230 251 231 268 c 0
 231 290 223 310 207 328 c 0
 192 346 175 355 154 356 c 0
 120 356 93 345 73 322 c 0
 55 300 46 274 45 243 c 0
 45 225 48 209 55 193 c 0
 62 179 73 168 88 160 c 0
 82 154 75 146 67 134 c 0
 60 123 57 110 56 93 c 0
 56 63 64 40 82 23 c 0
 99 7 121 -1 150 -1 c 0
 184 -1 214 7 240 24 c 0
 248 28 257 36 268 49 c 0
 295 25 l 0
 306 18 318 12 332 7 c 0
 346 3 360 1 375 0 c 0
 412 0 441 16 463 48 c 0
 481 76 490 112 490 158 c 0
 490 182 483 209 468 239 c 0
 450 277 424 304 390 320 c 0
191 276 m 0
 194 264 l 0
 194 259 191 254 184 247 c 0
 174 239 166 235 159 233 c 0
 151 236 l 0
 147 245 l 0
 147 255 152 264 164 272 c 0
 178 276 l 0
 191 276 l 0
EndSplineSet
Comment: "classes: cConsNarrow"
EndChar

StartChar: u1A6C_u1A36.sub
Encoding: 37 -1 37
Width: 0
VWidth: 0
Flags: HW
AnchorPoint: "LRD" -100 -248 basemark 0
AnchorPoint: "LD" -318 -252 basemark 0
AnchorPoint: "L" -316 0 mark 0
LayerCount: 2
Fore
SplineSet
-186 -69 m 0
 -190 -72 -192 -76 -192 -82 c 0
 -189 -92 l 0
 -189 -95 -187 -98 -183 -102 c 0
 -180 -105 -175 -106 -167 -105 c 0
 -161 -103 -158 -98 -158 -89 c 0
 -158 -77 -161 -70 -168 -67 c 0
 -178 -66 l 0
 -186 -69 l 0
-137 -71 m 0
 -135 -88 l 0
 -135 -98 -137 -106 -142 -113 c 0
 -147 -119 -154 -124 -165 -129 c 0
 -180 -131 l 0
 -190 -131 -199 -127 -208 -119 c 0
 -216 -112 -220 -104 -220 -95 c 0
 -220 -91 -220 -88 -218 -85 c 0
 -194 -52 l 0
 -186 -42 -175 -37 -159 -36 c 0
 -141 -36 -123 -42 -105 -55 c 0
 -88 -68 -80 -82 -79 -97 c 0
 -79 -153 -99 -194 -141 -221 c 0
 -173 -241 -216 -251 -272 -251 c 0
 -340 -251 -387 -249 -413 -243 c 0
 -439 -238 -465 -229 -492 -215 c 0
 -508 -207 -522 -197 -535 -184 c 0
 -548 -172 -560 -157 -573 -137 c 0
 -577 -130 l 0
 -579 -127 l 0
 -572 -133 l 0
 -561 -142 l 0
 -512 -177 l 0
 -497 -188 -480 -196 -461 -202 c 0
 -456 -204 -449 -205 -438 -207 c 0
 -429 -209 -419 -211 -407 -213 c 0
 -359 -216 l 0
 -316 -215 l 0
 -269 -214 l 0
 -245 -214 -225 -213 -208 -210 c 0
 -192 -208 -176 -203 -158 -194 c 0
 -122 -178 -104 -156 -103 -127 c 0
 -103 -104 -108 -88 -120 -78 c 0
 -137 -71 l 0
-419 -50 m 0
 -431 -47 l 0
 -444 -47 -458 -55 -473 -71 c 0
 -488 -87 -495 -102 -496 -117 c 0
 -496 -137 -488 -155 -471 -172 c 0
 -455 -189 -436 -197 -414 -198 c 0
 -388 -198 -366 -193 -346 -182 c 0
 -328 -172 -315 -154 -307 -126 c 0
 -299 -136 l 0
 -285 -152 -272 -163 -258 -169 c 0
 -246 -174 -233 -176 -218 -177 c 0
 -192 -177 -167 -169 -143 -151 c 0
 -119 -126 l 0
 -136 -135 l 0
 -158 -145 -179 -150 -200 -151 c 0
 -213 -151 -225 -149 -238 -144 c 0
 -249 -141 -264 -129 -285 -108 c 0
 -310 -78 l 0
 -322 -112 -335 -135 -351 -149 c 0
 -367 -163 -389 -170 -417 -170 c 0
 -431 -170 -442 -166 -452 -156 c 0
 -460 -148 -464 -138 -465 -126 c 0
 -465 -110 -462 -97 -455 -86 c 0
 -449 -77 -442 -73 -433 -72 c 0
 -428 -72 -424 -75 -419 -83 c 0
 -417 -87 -420 -94 -428 -104 c 0
 -430 -107 -430 -109 -428 -112 c 0
 -424 -113 -421 -113 -418 -114 c 0
 -414 -114 -409 -113 -401 -109 c 0
 -395 -106 -391 -101 -388 -94 c 0
 -386 -86 -388 -78 -395 -68 c 0
 -419 -50 l 0
EndSplineSet
EndChar

StartChar: u1A70
Encoding: 38 6768 38
Width: 265
VWidth: 0
Flags: HW
LayerCount: 2
Fore
SplineSet
116 310 m 0
 116 178 l 0
 116 170 116 163 117 155 c 0
 117 148 118 140 122 130 c 0
 124 121 131 117 145 116 c 0
 148 110 l 0
 146 104 l 0
 113 87 l 0
 106 82 103 73 102 58 c 0
 102 46 108 39 121 36 c 0
 157 33 l 0
 170 33 180 34 187 38 c 0
 194 42 198 48 199 56 c 0
 199 66 195 71 187 71 c 0
 181 71 178 69 176 63 c 0
 180 50 l 0
 180 48 180 47 180 45 c 0
 180 44 180 43 182 40 c 0
 172 38 164 39 158 45 c 0
 154 50 152 57 150 68 c 0
 150 75 153 82 159 90 c 0
 165 97 174 100 186 101 c 0
 206 101 220 95 228 83 c 0
 232 76 234 67 235 56 c 0
 235 40 227 27 211 15 c 0
 196 5 179 0 158 -1 c 0
 132 -1 112 2 98 8 c 0
 78 16 68 32 68 56 c 0
 68 76 75 91 89 101 c 0
 110 110 l 0
 104 113 99 116 95 121 c 0
 85 133 80 152 80 178 c 0
 80 318 l 0
 80 342 89 361 108 377 c 0
 137 391 l 0
 123 391 111 392 99 394 c 0
 89 396 80 398 70 402 c 0
 25 419 3 451 2 498 c 0
 2 526 21 547 61 563 c 0
 100 577 146 584 201 585 c 0
 260 585 315 575 367 553 c 0
 409 537 430 525 431 516 c 0
 420 520 l 0
 397 529 l 0
 362 536 l 0
 338 542 312 547 283 551 c 0
 257 553 239 554 228 555 c 0
 218 555 210 555 202 556 c 0
 154 556 119 554 97 550 c 0
 54 542 33 527 32 503 c 0
 32 471 46 447 75 429 c 0
 100 415 137 408 186 408 c 0
 181 395 l 0
 175 387 167 383 155 381 c 0
 145 380 136 373 127 360 c 0
 124 355 122 348 119 339 c 0
 117 331 116 322 116 310 c 0
EndSplineSet
Comment: "classes: cVowelPre"
EndChar

StartChar: u1A2B
Encoding: 39 6699 39
Width: 594
VWidth: 0
Flags: HW
AnchorPoint: "UR" 510 416 basechar 0
AnchorPoint: "LR" 520 -64 basechar 0
AnchorPoint: "U" 248.5 416 basechar 0
AnchorPoint: "L" 238.5 -82 basechar 0
LayerCount: 2
Fore
SplineSet
361 40 m 0
 363 31 367 21 373 9 c 0
 384 -13 400 -24 421 -24 c 0
 445 -24 461 -11 470 17 c 0
 474 31 476 48 476 70 c 0
 477 278 l 0
 477 288 473 299 463 311 c 0
 448 329 l 0
 460 339 l 0
 476 349 487 354 494 356 c 0
 506 356 515 353 523 347 c 0
 523 327 l 0
 526 294 l 0
 528 283 533 271 542 257 c 0
 527 271 l 0
 508 292 l 0
 504 310 l 0
 501 335 l 0
 490 329 l 0
 499 304 l 0
 509 278 l 0
 508 75 l 0
 508 61 l 0
 508 32 504 9 495 -10 c 0
 481 -40 456 -55 419 -55 c 0
 395 -55 377 -49 364 -35 c 0
 352 -22 346 -7 346 10 c 0
 346 26 351 36 361 40 c 0
122 -8 m 0
 134 -22 146 -32 159 -40 c 0
 167 -45 179 -49 197 -54 c 0
 233 -58 l 0
 258 -58 282 -52 305 -39 c 0
 328 -27 339 -6 340 24 c 0
 340 34 337 44 331 54 c 0
 325 63 315 72 299 83 c 0
 254 103 l 0
 239 107 224 109 207 110 c 0
 181 110 159 105 141 94 c 0
 132 89 124 82 116 71 c 0
 127 73 l 0
 143 70 l 0
 159 59 l 0
 162 57 164 54 167 48 c 0
 167 33 l 0
 167 28 162 21 151 10 c 0
 141 2 132 -4 122 -8 c 0
88 -13 m 0
 112 -1 l 0
 128 10 l 0
 133 15 136 21 138 28 c 0
 138 32 135 36 128 40 c 0
 122 43 114 45 104 47 c 0
 95 48 89 49 86 50 c 0
 84 50 82 51 80 53 c 0
 85 62 l 0
 89 70 94 77 101 84 c 0
 108 91 117 98 129 107 c 0
 157 127 186 137 216 137 c 0
 253 137 287 126 319 104 c 0
 351 83 367 59 367 32 c 0
 367 14 364 -2 356 -17 c 0
 350 -31 339 -43 323 -54 c 0
 307 -64 290 -71 272 -75 c 0
 255 -79 236 -81 215 -81 c 0
 203 -81 191 -80 177 -77 c 0
 165 -75 153 -71 141 -65 c 0
 131 -60 119 -50 105 -35 c 0
 101 -30 97 -25 92 -19 c 0
 92 -18 91 -16 88 -13 c 0
363 216 m 0
 330 258 l 0
 308 277 277 286 236 287 c 0
 228 287 220 285 211 280 c 0
 203 276 195 271 187 264 c 0
 170 248 l 0
 163 241 161 236 164 231 c 0
 168 228 173 225 179 222 c 0
 185 220 190 219 196 218 c 0
 202 218 209 220 217 224 c 0
 231 233 238 244 239 259 c 0
 247 259 255 258 263 256 c 0
 271 255 277 253 283 250 c 0
 299 244 312 235 323 222 c 0
 343 196 l 0
 353 184 360 169 365 149 c 0
 375 99 l 0
 382 154 l 0
 382 167 381 178 377 187 c 0
 375 197 371 206 363 216 c 0
234 186 m 0
 229 184 225 181 220 176 c 0
 216 164 l 0
 216 160 217 156 221 150 c 0
 227 142 234 138 242 138 c 0
 266 138 278 147 278 166 c 0
 278 197 258 212 217 213 c 0
 204 213 189 206 172 191 c 0
 156 177 139 170 120 169 c 0
 104 169 92 173 83 182 c 0
 80 186 78 190 75 196 c 0
 73 201 72 207 72 216 c 0
 72 232 77 244 87 252 c 0
 97 260 113 269 137 280 c 0
 169 295 l 0
 175 297 178 302 179 311 c 0
 179 317 177 322 172 328 c 0
 168 328 165 327 162 324 c 0
 153 316 l 0
 153 310 153 307 151 305 c 0
 115 295 l 0
 95 291 78 283 62 269 c 0
 48 257 41 238 41 210 c 0
 41 192 49 176 65 160 c 0
 81 146 102 139 128 139 c 0
 147 139 164 148 180 166 c 0
 196 184 208 194 217 196 c 0
 231 196 241 194 249 188 c 0
 255 185 258 179 260 170 c 0
 260 162 256 157 246 155 c 0
 240 154 237 157 236 164 c 0
 236 168 238 171 244 175 c 0
 244 178 243 180 241 181 c 0
 241 182 239 183 234 186 c 0
185 246 m 0
 196 253 l 0
 200 257 206 259 215 261 c 0
 232 261 l 0
 232 257 230 253 226 249 c 0
 223 245 220 243 217 241 c 0
 215 240 210 240 201 239 c 0
 185 246 l 0
138 336 m 0
 136 327 l 0
 140 316 148 312 162 313 c 0
 205 322 l 0
 247 324 l 0
 265 324 281 323 296 319 c 0
 314 317 329 314 343 308 c 0
 358 304 373 293 390 274 c 0
 408 253 419 241 424 238 c 0
 419 257 414 271 408 280 c 0
 392 310 373 328 350 335 c 0
 340 338 333 340 327 341 c 0
 309 345 299 347 295 349 c 0
 246 352 l 0
 236 352 226 352 216 351 c 0
 206 351 197 350 187 347 c 0
 179 347 171 346 162 343 c 0
 154 341 146 339 138 336 c 0
EndSplineSet
Comment: "classes: cConsWide cConsNarrow"
EndChar

StartChar: u1A76.high
Encoding: 40 -1 40
Width: 0
VWidth: 0
Flags: HW
AnchorPoint: "UD" -158 548 mark 0
LayerCount: 2
Fore
SplineSet
-13 658 m 4
 -13 664 l 4
 -202 588 l 4
 -230 606 l 4
 -202 556 l 4
 -13 658 l 4
EndSplineSet
EndChar

StartChar: u1A31
Encoding: 41 6705 41
Width: 733
VWidth: 0
Flags: HW
AnchorPoint: "UR" 688 416 basechar 0
AnchorPoint: "LR" 688 0 basechar 0
AnchorPoint: "U" 364.5 416 basechar 0
AnchorPoint: "L" 357.5 0 basechar 0
LayerCount: 2
Fore
SplineSet
314 218 m 0
 314 244 303 268 281 291 c 0
 259 313 232 324 198 325 c 0
 158 325 126 313 101 288 c 0
 77 264 65 227 65 176 c 0
 65 157 66 139 70 122 c 0
 73 106 78 90 87 73 c 0
 102 44 122 30 148 29 c 0
 141 31 138 37 137 49 c 0
 137 59 140 70 147 83 c 0
 153 95 160 102 170 106 c 0
 180 108 191 103 203 90 c 0
 213 78 218 66 220 54 c 0
 220 38 215 25 204 14 c 0
 194 4 179 -1 157 -2 c 0
 121 -2 92 15 70 50 c 0
 50 86 40 128 39 177 c 0
 39 223 56 264 90 301 c 0
 124 337 160 355 200 356 c 0
 246 356 282 343 310 315 c 0
 335 290 347 259 348 220 c 0
 348 202 338 176 318 141 c 0
 308 125 303 110 303 94 c 0
 303 71 308 53 318 38 c 0
 328 25 344 19 367 18 c 0
 399 18 421 26 433 44 c 0
 435 47 437 53 441 62 c 0
 444 71 445 82 446 96 c 0
 446 101 430 125 398 169 c 0
 383 189 376 207 375 223 c 0
 375 263 386 295 409 320 c 0
 432 344 467 356 514 356 c 0
 584 356 633 334 662 290 c 0
 679 262 687 225 688 177 c 0
 688 159 683 138 672 114 c 0
 662 90 650 71 636 57 c 0
 617 42 l 0
 608 36 600 32 593 30 c 0
 587 29 584 26 584 21 c 0
 591 21 l 0
 595 21 600 23 608 29 c 0
 628 46 l 0
 651 62 l 0
 660 65 l 0
 648 43 636 27 624 17 c 0
 612 7 601 1 589 -1 c 0
 572 -2 l 0
 562 -2 555 -2 550 0 c 0
 539 8 l 0
 553 33 l 0
 560 44 566 50 573 51 c 0
 595 57 l 0
 603 60 611 65 619 73 c 0
 633 87 642 100 648 112 c 0
 652 124 655 136 657 150 c 0
 657 164 l 0
 655 176 l 0
 655 210 646 240 628 268 c 0
 604 302 569 319 521 319 c 0
 477 319 447 312 429 297 c 0
 413 283 405 260 404 228 c 0
 408 210 421 187 445 158 c 0
 465 132 475 112 476 96 c 0
 476 58 466 32 445 17 c 0
 428 6 399 1 357 0 c 0
 301 0 273 26 273 80 c 0
 274 97 l 0
 274 101 283 124 302 167 c 0
 310 185 314 202 314 218 c 0
163 38 m 0
 178 34 l 0
 190 34 196 39 196 50 c 0
 196 55 195 59 193 63 c 0
 174 74 l 0
 172 76 169 74 163 68 c 0
 159 62 157 56 157 49 c 0
 157 45 159 42 163 38 c 0
EndSplineSet
Comment: "classes: cConsWide"
EndChar

StartChar: u1A75.high
Encoding: 42 -1 42
Width: 0
VWidth: 0
Flags: HW
AnchorPoint: "UD" -166 734 basemark 0
AnchorPoint: "UD" -166 554 mark 0
AnchorPoint: "U" -163 554 mark 0
LayerCount: 2
Fore
SplineSet
-158 562 m 0
 -169 562 l 0
 -196 692 l 0
 -192 696 -188 698 -184 700 c 0
 -161 704 l 0
 -154 704 -147 703 -138 700 c 0
 -130 698 -126 696 -126 692 c 0
 -158 562 l 0
EndSplineSet
EndChar

StartChar: u1A47
Encoding: 43 6727 43
Width: 657
VWidth: 0
Flags: HW
AnchorPoint: "UR" 598 416 basechar 0
AnchorPoint: "LR" 633 -95 basechar 0
AnchorPoint: "U" 318.5 416 basechar 0
AnchorPoint: "L" 318.5 0 basechar 0
LayerCount: 2
Fore
SplineSet
380 100 m 0
 378 105 385 113 401 126 c 0
 407 130 414 134 424 140 c 0
 432 145 440 149 449 152 c 0
 465 158 479 161 492 161 c 0
 516 161 539 153 563 136 c 0
 583 122 601 102 618 74 c 0
 623 66 627 56 630 42 c 0
 634 4 l 0
 634 -34 625 -79 606 -133 c 0
 578 -202 l 0
 603 -107 l 0
 605 -94 607 -82 609 -70 c 0
 610 -59 610 -48 611 -36 c 0
 611 -19 610 -5 607 8 c 0
 605 20 600 33 592 47 c 0
 576 73 556 94 532 110 c 0
 509 126 484 134 456 134 c 0
 448 134 440 133 431 130 c 0
 423 128 419 125 418 120 c 0
 420 117 422 115 425 113 c 0
 438 110 l 0
 449 109 l 0
 458 109 466 111 474 117 c 0
 487 126 l 0
 491 124 490 119 483 109 c 0
 477 102 469 95 457 86 c 0
 447 80 436 77 422 77 c 0
 400 77 386 84 380 100 c 0
81 127 m 0
 79 125 78 123 76 120 c 0
 76 110 l 0
 76 106 79 102 85 98 c 0
 91 94 97 92 103 92 c 0
 107 92 110 94 112 100 c 0
 114 105 114 111 113 120 c 0
 113 123 108 125 98 128 c 0
 81 127 l 0
609 165 m 0
 609 132 597 98 572 63 c 0
 543 22 509 2 469 1 c 0
 430 1 392 16 355 47 c 0
 323 74 307 98 306 119 c 0
 306 130 308 139 312 148 c 0
 316 154 320 157 325 158 c 0
 331 158 334 153 336 142 c 0
 336 122 l 0
 337 110 l 0
 347 91 l 0
 355 73 370 58 393 46 c 0
 415 35 437 30 460 29 c 0
 483 29 507 43 532 71 c 0
 557 99 569 131 570 169 c 0
 570 199 554 228 520 257 c 0
 488 285 457 299 425 300 c 0
 409 301 l 0
 382 332 l 0
 400 348 419 356 440 356 c 0
 452 356 465 352 481 343 c 0
 486 341 493 337 503 329 c 0
 513 323 521 317 527 311 c 0
 512 315 l 0
 448 337 l 0
 442 339 435 339 427 336 c 0
 422 332 l 0
 436 332 451 330 467 326 c 0
 483 322 499 315 515 305 c 0
 540 289 562 267 581 237 c 0
 599 209 608 185 609 165 c 0
347 170 m 0
 347 134 332 98 300 60 c 0
 266 20 229 0 189 -1 c 0
 151 -1 116 14 84 44 c 0
 59 68 47 91 46 115 c 0
 46 127 51 136 61 142 c 0
 71 148 83 151 99 151 c 0
 111 151 121 148 130 142 c 0
 138 137 142 129 143 117 c 0
 143 107 140 97 133 86 c 0
 121 71 l 0
 111 69 l 0
 103 69 l 0
 99 70 l 0
 107 54 118 43 133 36 c 0
 147 31 164 29 186 28 c 0
 214 28 241 44 269 76 c 0
 295 108 308 140 309 172 c 0
 309 202 299 230 278 256 c 0
 258 282 233 298 203 305 c 0
 170 302 l 0
 140 299 l 0
 129 301 118 310 105 327 c 0
 105 331 109 336 118 343 c 0
 127 348 137 352 149 356 c 0
 161 358 184 353 219 340 c 0
 236 334 248 327 256 319 c 0
 218 329 l 0
 204 332 194 334 188 336 c 0
 172 340 161 342 154 342 c 0
 151 342 147 340 141 336 c 0
 139 332 l 0
 144 324 l 0
 173 326 l 0
 199 329 l 0
 209 329 l 0
 219 327 l 0
 250 321 279 301 306 266 c 0
 333 232 346 200 347 170 c 0
EndSplineSet
Comment: "classes: cConsWide"
EndChar

StartChar: u1A46
Encoding: 44 6726 44
Width: 582
VWidth: 0
Flags: HW
AnchorPoint: "UR" 523 416 basechar 0
AnchorPoint: "LR" 529 0 basechar 0
AnchorPoint: "U" 273.5 416 basechar 0
AnchorPoint: "L" 283.5 0 basechar 0
LayerCount: 2
Fore
SplineSet
289 240 m 0
 342 256 374 266 386 272 c 0
 424 286 462 310 500 344 c 0
 514 356 529 373 547 396 c 0
 584 444 l 0
 598 461 l 0
 602 462 l 0
 602 452 587 424 556 378 c 0
 523 330 491 294 460 268 c 0
 444 256 421 245 389 235 c 0
 314 215 l 0
 295 221 l 0
 289 225 286 229 284 235 c 0
 286 237 287 238 289 240 c 0
501 129 m 0
 500 150 l 0
 500 160 498 168 494 174 c 0
 484 202 454 232 404 266 c 0
 354 299 311 315 273 316 c 0
 225 316 181 298 140 260 c 0
 100 223 80 180 80 131 c 0
 80 117 83 102 91 84 c 0
 99 68 108 55 119 44 c 0
 121 50 123 56 126 63 c 0
 128 69 131 75 136 81 c 0
 146 95 156 103 166 106 c 0
 186 108 201 101 212 84 c 0
 220 72 224 60 224 48 c 0
 224 40 217 30 202 17 c 0
 198 14 192 11 184 6 c 0
 177 3 169 2 159 1 c 0
 119 1 89 19 68 56 c 0
 55 80 49 106 48 134 c 0
 48 174 73 220 124 273 c 0
 177 328 227 355 274 356 c 0
 348 356 411 334 463 288 c 0
 507 249 529 211 530 172 c 0
 531 143 l 0
 531 135 530 127 528 117 c 0
 526 109 523 101 517 91 c 0
 509 76 498 62 484 48 c 0
 478 42 471 37 461 33 c 0
 453 30 444 28 433 26 c 0
 420 31 l 0
 420 26 l 0
 425 18 l 0
 453 27 l 0
 471 33 482 38 487 43 c 0
 504 61 l 0
 512 65 l 0
 500 45 486 29 469 17 c 0
 456 8 442 2 425 -1 c 0
 419 -2 412 -1 402 3 c 0
 394 7 387 14 379 25 c 0
 389 48 l 0
 391 53 394 56 398 59 c 0
 409 57 l 0
 422 54 l 0
 439 57 l 0
 462 65 477 74 486 84 c 0
 501 129 l 0
132 40 m 0
 142 32 l 0
 150 26 156 23 161 23 c 0
 168 23 174 25 180 31 c 0
 186 36 188 41 188 48 c 0
 183 66 l 0
 179 74 174 78 166 80 c 0
 160 80 153 74 143 60 c 0
 132 40 l 0
EndSplineSet
Comment: "classes: cConsNarrow cConsNarrow"
EndChar

StartChar: u1A34.sub
Encoding: 45 -1 45
Width: 1
VWidth: 0
Flags: HW
AnchorPoint: "LRD" -53 -298 basemark 0
AnchorPoint: "LD" -207.5 -303 basemark 0
AnchorPoint: "LD" -207.5 0 mark 0
AnchorPoint: "L" -207.5 0 mark 0
LayerCount: 2
Fore
SplineSet
-245 -145 m 0
 -245 -156 l 0
 -236 -173 l 0
 -233 -176 -229 -176 -224 -175 c 0
 -221 -172 -219 -167 -217 -160 c 0
 -217 -154 -220 -149 -228 -145 c 0
 -235 -141 -240 -141 -245 -145 c 0
-227 -121 m 0
 -211 -126 l 0
 -202 -130 -197 -137 -195 -147 c 0
 -195 -159 -198 -170 -204 -182 c 0
 -210 -194 -216 -200 -224 -200 c 0
 -237 -200 -247 -195 -255 -183 c 0
 -263 -172 -267 -159 -267 -143 c 0
 -267 -129 -258 -117 -238 -106 c 0
 -219 -98 -199 -94 -177 -93 c 0
 -166 -94 -156 -96 -146 -99 c 0
 -137 -101 -128 -105 -118 -113 c 0
 -102 -124 -94 -138 -93 -156 c 0
 -93 -168 -96 -178 -104 -187 c 0
 -116 -197 l 0
 -104 -199 -95 -205 -89 -215 c 0
 -87 -220 -85 -225 -83 -230 c 0
 -82 -234 -82 -239 -81 -247 c 0
 -81 -269 -99 -284 -137 -294 c 0
 -148 -296 -162 -297 -179 -299 c 0
 -196 -300 -216 -300 -240 -301 c 0
 -280 -301 -309 -295 -329 -282 c 0
 -351 -268 -362 -245 -363 -211 c 0
 -363 -139 l 0
 -363 -115 -354 -95 -336 -77 c 0
 -319 -63 -302 -55 -284 -51 c 0
 -249 -48 l 0
 -234 -48 l 0
 -190 -49 l 0
 -175 -49 -164 -49 -156 -51 c 0
 -136 -51 -118 -54 -102 -60 c 0
 -86 -66 -72 -76 -60 -92 c 0
 -52 -100 -46 -113 -40 -132 c 0
 -36 -150 -34 -171 -33 -196 c 0
 -37 -206 l 0
 -40 -192 -43 -181 -46 -172 c 0
 -48 -164 -52 -155 -58 -145 c 0
 -63 -135 -71 -125 -83 -113 c 0
 -94 -103 -105 -95 -117 -89 c 0
 -158 -78 l 0
 -200 -73 l 0
 -241 -71 l 0
 -256 -71 l 0
 -285 -74 l 0
 -295 -74 -305 -80 -315 -92 c 0
 -325 -104 -330 -119 -330 -139 c 0
 -330 -214 l 0
 -330 -235 -322 -250 -306 -261 c 0
 -290 -269 -268 -273 -240 -274 c 0
 -219 -274 l 0
 -198 -275 l 0
 -173 -275 -152 -273 -135 -269 c 0
 -119 -265 -111 -257 -110 -244 c 0
 -110 -233 -116 -222 -129 -211 c 0
 -131 -209 -140 -204 -156 -194 c 0
 -140 -184 l 0
 -130 -176 -125 -166 -124 -153 c 0
 -124 -143 -129 -134 -139 -126 c 0
 -143 -123 -148 -121 -156 -118 c 0
 -162 -116 -169 -115 -179 -115 c 0
 -191 -114 l 0
 -199 -114 l 0
 -210 -114 -219 -116 -227 -121 c 0
EndSplineSet
EndChar

StartChar: u1A7A
Encoding: 46 6778 46
Width: 1
VWidth: 0
Flags: HW
AnchorPoint: "URD" -136 590 mark 0
AnchorPoint: "URD" -136 376 basemark 0
AnchorPoint: "UR" -136 376 mark 0
LayerCount: 2
Fore
SplineSet
-175 418 m 0
 -172 418 -170 418 -169 416 c 0
 -147 420 -136 428 -136 440 c 0
 -136 448 -138 454 -144 458 c 0
 -149 462 -155 465 -163 467 c 0
 -172 467 -179 463 -186 454 c 0
 -192 446 -194 437 -193 426 c 0
 -189 414 -184 405 -176 399 c 0
 -169 394 -159 392 -145 391 c 0
 -126 391 -109 396 -93 407 c 0
 -79 417 -72 431 -71 451 c 0
 -72 462 l 0
 -75 482 -86 496 -107 504 c 0
 -111 506 -118 507 -128 507 c 0
 -148 506 l 0
 -161 503 l 0
 -157 511 -153 516 -147 519 c 0
 -137 525 -124 528 -108 528 c 0
 -90 528 -76 523 -64 512 c 0
 -58 506 -49 492 -35 470 c 0
 -29 460 -25 442 -22 414 c 0
 -20 375 l 0
 -16 381 -13 390 -11 402 c 0
 -7 427 l 0
 -6 448 l 0
 -6 460 -7 470 -11 479 c 0
 -19 501 -29 518 -43 530 c 0
 -58 543 -78 549 -103 550 c 0
 -121 550 -136 547 -149 539 c 0
 -162 533 -172 523 -179 507 c 0
 -187 484 l 0
 -189 478 l 0
 -182 480 l 0
 -147 485 l 0
 -137 485 -129 484 -123 480 c 0
 -107 470 l 0
 -104 468 -102 464 -99 457 c 0
 -98 444 l 0
 -98 434 -101 426 -109 419 c 0
 -115 415 -124 413 -136 411 c 0
 -149 411 l 0
 -162 411 -171 416 -177 426 c 0
 -178 430 -178 434 -175 438 c 0
 -173 442 -171 444 -167 444 c 0
 -162 442 -160 438 -159 432 c 0
 -160 428 -161 426 -163 425 c 0
 -175 418 l 0
EndSplineSet
Comment: "classes: CMiscDia"
EndChar

StartChar: u1A36_u1A63
Encoding: 47 -1 47
Width: 564
VWidth: 0
Flags: HW
AnchorPoint: "UR" 492 416 basechar 0
AnchorPoint: "LR" 625 -111 basechar 0
AnchorPoint: "U" 271 416 basechar 0
AnchorPoint: "L" 285 0 basechar 0
LayerCount: 2
Fore
SplineSet
299 241 m 0
 305 253 310 260 316 262 c 0
 322 264 328 263 335 257 c 0
 342 253 345 249 346 243 c 0
 340 231 l 0
 338 227 337 223 336 217 c 0
 338 201 344 189 356 180 c 0
 367 173 380 170 396 169 c 0
 413 169 428 176 442 190 c 0
 456 204 463 222 463 244 c 0
 463 270 452 290 428 305 c 0
 405 320 381 327 355 328 c 0
 343 328 329 324 313 316 c 0
 273 290 l 0
 265 296 251 303 231 311 c 0
 212 319 197 324 184 326 c 0
 152 326 127 321 109 309 c 0
 92 298 84 286 83 272 c 0
 83 27 l 0
 148 32 l 0
 267 37 l 0
 342 37 394 34 425 28 c 0
 477 18 522 -7 560 -47 c 0
 580 -69 599 -104 617 -154 c 0
 631 -196 638 -225 639 -242 c 0
 636 -245 l 0
 626 -224 l 0
 611 -181 l 0
 609 -177 606 -170 602 -160 c 0
 598 -152 594 -144 589 -136 c 0
 581 -122 572 -109 562 -97 c 0
 553 -87 541 -75 524 -60 c 0
 492 -34 451 -15 400 -3 c 0
 385 0 368 2 347 5 c 0
 328 7 308 8 285 8 c 0
 165 5 l 0
 43 0 l 0
 43 278 l 0
 43 292 53 307 74 324 c 0
 101 345 137 355 182 356 c 0
 202 356 220 351 236 340 c 0
 255 327 267 320 273 319 c 0
 320 344 l 0
 334 352 345 356 353 356 c 0
 387 356 418 346 447 325 c 0
 475 305 489 279 490 245 c 0
 490 215 481 193 461 177 c 0
 443 163 419 156 388 155 c 0
 371 155 356 159 342 167 c 0
 330 175 321 184 315 196 c 0
 312 208 l 0
 310 221 l 0
 307 217 306 214 305 211 c 0
 309 192 l 0
 311 185 316 178 324 169 c 0
 331 164 341 159 355 153 c 0
 327 161 310 170 303 182 c 0
 297 193 294 204 293 216 c 0
 293 222 295 230 299 241 c 0
EndSplineSet
EndChar

StartChar: u1A2C
Encoding: 48 6700 48
Width: 714
VWidth: 0
Flags: HW
AnchorPoint: "UR" 671 416 basechar 0
AnchorPoint: "LR" 671 0 basechar 0
AnchorPoint: "U" 387.5 416 basechar 0
AnchorPoint: "L" 394 15 basechar 0
LayerCount: 2
Fore
SplineSet
671 165 m 0
 671 128 655 91 623 54 c 0
 592 18 562 0 531 -1 c 0
 492 -1 456 14 422 46 c 0
 393 74 379 98 378 120 c 0
 378 144 383 156 393 157 c 0
 398 157 402 152 407 140 c 0
 411 129 417 120 425 111 c 0
 433 103 439 95 444 87 c 0
 456 71 469 58 485 48 c 0
 501 38 516 33 531 33 c 0
 559 33 582 41 601 58 c 0
 627 80 640 115 640 165 c 0
 640 196 629 223 605 248 c 0
 583 272 559 284 533 285 c 0
 530 287 528 289 526 292 c 0
 526 295 525 297 522 299 c 0
 552 341 l 0
 562 351 571 356 580 356 c 0
 587 356 594 352 603 343 c 0
 608 338 612 334 615 330 c 0
 617 327 622 320 630 308 c 0
 643 288 l 0
 625 296 l 0
 591 317 l 0
 586 319 583 319 580 317 c 0
 580 315 581 313 583 310 c 0
 605 297 l 0
 627 284 l 0
 647 266 660 245 666 221 c 0
 668 211 669 202 670 192 c 0
 670 183 670 174 671 165 c 0
106 254 m 0
 109 244 l 0
 113 236 118 232 125 232 c 0
 131 232 136 238 140 250 c 0
 141 254 141 258 140 263 c 0
 139 267 136 270 130 273 c 0
 126 275 121 274 115 270 c 0
 111 267 108 262 106 254 c 0
370 144 m 0
 369 254 l 0
 369 301 349 324 308 325 c 0
 297 325 287 322 276 316 c 0
 258 304 245 298 236 296 c 0
 224 296 214 298 204 304 c 0
 183 316 169 322 161 322 c 0
 142 323 l 0
 131 323 122 322 115 318 c 0
 109 316 105 312 101 305 c 0
 98 291 l 0
 98 280 l 0
 113 291 l 0
 125 299 133 303 137 303 c 0
 150 303 160 295 168 279 c 0
 172 269 174 258 174 246 c 0
 174 236 166 227 148 218 c 0
 141 215 133 212 124 209 c 0
 116 207 109 206 101 205 c 0
 89 208 l 0
 69 222 59 243 58 272 c 0
 59 286 l 0
 62 308 73 325 92 337 c 0
 111 349 132 355 156 356 c 0
 167 356 183 349 204 334 c 0
 213 328 222 325 233 323 c 0
 240 323 254 330 276 344 c 0
 286 351 297 354 309 355 c 0
 333 355 355 348 376 332 c 0
 397 318 407 298 408 270 c 0
 408 144 l 0
 408 105 392 71 360 40 c 0
 331 14 299 1 262 1 c 0
 228 1 l 0
 222 1 217 1 212 2 c 0
 208 2 199 4 185 8 c 0
 171 12 155 19 135 30 c 0
 110 44 l 0
 111 18 l 0
 111 -29 l 0
 111 -53 l 0
 111 -75 l 0
 111 -94 l 0
 111 -109 l 0
 111 -122 l 0
 111 -152 l 0
 110 -172 l 0
 110 -216 134 -255 182 -290 c 0
 230 -324 288 -341 356 -342 c 0
 394 -342 l 0
 410 -342 l 0
 424 -342 l 0
 435 -342 l 0
 447 -342 459 -342 471 -341 c 0
 483 -341 493 -340 502 -337 c 0
 514 -337 527 -335 543 -331 c 0
 558 -328 576 -323 599 -316 c 0
 650 -298 l 0
 681 -286 l 0
 647 -312 l 0
 619 -329 593 -342 568 -352 c 0
 546 -359 526 -364 506 -368 c 0
 440 -372 l 0
 402 -371 l 0
 369 -371 l 0
 356 -371 l 0
 275 -371 208 -353 153 -316 c 0
 100 -280 74 -234 73 -178 c 0
 73 70 l 0
 105 111 l 0
 107 86 125 66 160 49 c 0
 186 37 213 31 242 31 c 0
 277 31 307 41 332 61 c 0
 357 81 369 108 370 144 c 0
EndSplineSet
Comment: "classes: cConsWide"
EndChar

StartChar: u1A90
Encoding: 49 6800 49
Width: 454
VWidth: 0
Flags: HW
LayerCount: 2
Fore
SplineSet
406 143 m 0
 406 77 406 77 354 38 c 128
 302 -1 302 -1 220 -1 c 0
 139 -1 139 -1 93.5 38 c 128
 48 77 48 77 48 141 c 256
 48 205 48 205 95 249 c 128
 142 293 142 293 209 293 c 0
 304 293 304 293 355 255 c 128
 406 217 406 217 406 143 c 0
372 145 m 0
 372 205 372 205 319 236 c 0
 273 262 273 262 207 262 c 256
 141 262 141 262 105 225 c 0
 74 191 74 191 74 138 c 0
 74 98 74 98 109 62 c 0
 149 22 149 22 207 22 c 0
 281 22 281 22 326.5 54 c 128
 372 86 372 86 372 145 c 0
EndSplineSet
Comment: "classes: cDigitTham"
EndChar

StartChar: slash
Encoding: 50 47 50
Width: 381
VWidth: 0
Flags: HW
LayerCount: 2
Fore
SplineSet
269 391 m 0
 -2 -57 l 0
 22 -57 l 0
 294 391 l 0
 269 391 l 0
EndSplineSet
EndChar

StartChar: u1A25
Encoding: 51 6693 51
Width: 760
VWidth: 0
Flags: HW
AnchorPoint: "UR" 718 416 basechar 0
AnchorPoint: "LR" 718 0 basechar 0
AnchorPoint: "U" 391.5 416 basechar 0
AnchorPoint: "L" 390.5 0 basechar 0
LayerCount: 2
Fore
SplineSet
522 110 m 0
 562 57 l 0
 580 37 596 27 612 26 c 0
 647 26 667 43 672 79 c 0
 674 93 675 121 675 165 c 0
 675 193 666 222 647 252 c 0
 629 282 613 298 598 300 c 0
 602 313 l 0
 640 347 l 0
 644 351 647 353 651 353 c 0
 658 350 l 0
 666 346 l 0
 680 340 691 328 699 309 c 0
 707 291 710 279 708 271 c 0
 695 283 l 0
 672 316 l 0
 671 318 668 319 663 321 c 0
 659 321 656 319 654 315 c 0
 664 304 l 0
 679 289 l 0
 692 272 l 0
 704 254 712 235 716 215 c 0
 722 165 l 0
 722 122 714 86 696 55 c 0
 675 19 645 1 606 0 c 0
 578 0 555 8 535 26 c 0
 496 70 l 0
 522 110 l 0
262 70 m 0
 246 70 228 58 208 34 c 0
 190 11 171 0 151 -1 c 0
 125 -1 102 5 81 19 c 0
 62 32 53 49 52 72 c 0
 52 91 57 109 68 128 c 0
 79 146 93 158 112 165 c 0
 171 178 l 0
 276 201 l 0
 308 213 l 0
 323 221 330 232 331 247 c 0
 331 266 l 0
 331 282 328 295 320 307 c 0
 313 317 305 322 294 324 c 0
 283 324 272 318 259 306 c 0
 236 281 222 268 217 266 c 0
 208 266 195 275 177 293 c 0
 163 310 153 319 147 322 c 0
 132 324 l 0
 114 324 102 317 95 301 c 0
 93 291 l 0
 93 280 l 0
 100 283 l 0
 125 290 l 0
 137 290 145 287 151 279 c 0
 156 273 158 262 159 246 c 0
 159 234 149 222 129 210 c 0
 116 202 105 198 95 197 c 0
 93 197 90 197 85 199 c 0
 75 203 67 211 60 224 c 0
 55 236 53 249 52 265 c 0
 54 286 l 0
 58 307 68 324 85 337 c 0
 101 349 121 355 145 356 c 0
 159 356 174 347 191 327 c 0
 208 309 219 300 226 300 c 0
 232 301 242 310 256 329 c 0
 270 347 284 356 299 356 c 0
 320 356 337 349 350 333 c 0
 363 319 369 300 370 275 c 0
 370 250 l 0
 370 226 362 208 344 196 c 0
 337 192 317 185 284 173 c 0
 142 144 l 0
 128 141 116 136 104 127 c 0
 87 115 79 100 78 80 c 0
 78 66 85 54 100 42 c 0
 113 34 129 30 149 30 c 0
 169 32 190 44 213 68 c 0
 235 92 257 104 280 104 c 0
 292 103 l 0
 311 101 333 85 359 53 c 0
 370 39 381 32 392 32 c 0
 430 32 457 46 473 75 c 0
 485 98 491 128 492 165 c 0
 492 185 481 212 459 246 c 0
 437 280 420 298 406 300 c 0
 410 313 l 0
 449 348 l 0
 453 352 457 354 463 355 c 0
 467 355 471 353 475 348 c 0
 504 302 l 0
 514 286 518 276 516 271 c 0
 500 283 l 0
 475 316 l 0
 474 318 472 319 468 321 c 0
 465 319 463 317 462 315 c 0
 472 304 l 0
 487 289 l 0
 500 272 l 0
 512 254 520 235 524 215 c 0
 530 165 l 0
 530 125 518 89 493 56 c 0
 466 20 432 2 390 2 c 0
 365 2 338 17 307 48 c 0
 293 62 278 69 262 70 c 0
101 254 m 0
 101 249 103 245 107 240 c 0
 111 236 115 234 120 232 c 0
 126 232 131 238 135 250 c 0
 136 254 135 258 131 262 c 0
 127 266 123 268 117 270 c 0
 111 270 107 270 105 268 c 0
 104 267 103 266 102 263 c 0
 102 261 102 258 101 254 c 0
EndSplineSet
Comment: "classes: cConsWide"
EndChar

StartChar: u1A35
Encoding: 52 6709 52
Width: 540
VWidth: 0
Flags: HW
AnchorPoint: "UR" 485 416 basechar 0
AnchorPoint: "LR" 485 0 basechar 0
AnchorPoint: "U" 271.5 416 basechar 0
AnchorPoint: "L" 282.5 0 basechar 0
LayerCount: 2
Fore
SplineSet
273 323 m 0
 222 323 178 311 140 286 c 0
 99 259 79 223 78 178 c 0
 78 146 96 116 132 87 c 0
 191 46 l 0
 234 83 l 0
 265 107 285 118 294 116 c 0
 320 110 341 99 359 81 c 0
 369 72 380 58 393 37 c 0
 406 41 416 47 424 55 c 0
 444 75 454 106 455 149 c 0
 455 166 l 0
 454 177 l 0
 454 194 449 210 439 227 c 0
 429 243 414 259 394 277 c 0
 358 307 318 322 273 323 c 0
54 182 m 0
 54 220 76 258 122 296 c 0
 170 336 220 356 273 356 c 0
 330 356 379 341 421 309 c 0
 465 275 487 232 488 180 c 0
 488 138 479 101 459 67 c 0
 440 35 413 13 377 0 c 0
 349 37 l 0
 328 62 306 77 283 83 c 0
 269 85 249 72 222 44 c 0
 186 0 l 0
 162 7 135 28 105 63 c 0
 71 103 54 142 54 182 c 0
EndSplineSet
Comment: "classes: cConsNarrow"
EndChar

StartChar: u1A41.sub
Encoding: 53 -1 53
Width: 1
VWidth: 0
Flags: HW
AnchorPoint: "LRD" -48 -300 basemark 0
AnchorPoint: "LD" -177.5 -302 basemark 0
AnchorPoint: "LD" -187.5 0 mark 0
AnchorPoint: "L" -187.5 0 mark 0
LayerCount: 2
Fore
SplineSet
-274 -264 m 0
 -271 -264 -269 -264 -268 -266 c 0
 -242 -260 -229 -251 -228 -239 c 0
 -227 -229 -228 -220 -232 -211 c 0
 -236 -203 -245 -199 -261 -199 c 0
 -271 -199 -280 -203 -288 -211 c 0
 -296 -219 -300 -228 -301 -240 c 0
 -299 -252 l 0
 -295 -268 -288 -280 -276 -289 c 0
 -266 -297 -251 -301 -231 -301 c 0
 -205 -301 -182 -292 -161 -273 c 0
 -142 -255 -133 -233 -132 -205 c 0
 -135 -182 l 0
 -139 -166 -144 -153 -151 -143 c 0
 -156 -134 -166 -127 -181 -120 c 0
 -198 -115 l 0
 -220 -114 l 0
 -238 -114 l 0
 -245 -114 -250 -114 -253 -116 c 0
 -250 -108 -247 -102 -242 -97 c 0
 -235 -91 -227 -86 -216 -82 c 0
 -206 -79 -194 -78 -178 -77 c 0
 -158 -77 -141 -81 -127 -91 c 0
 -114 -100 -96 -124 -72 -163 c 0
 -65 -175 -59 -213 -52 -279 c 0
 -47 -290 l 0
 -40 -251 l 0
 -39 -225 l 0
 -40 -187 l 0
 -41 -179 -44 -168 -50 -152 c 0
 -62 -119 -75 -95 -90 -78 c 0
 -108 -59 -134 -50 -170 -49 c 0
 -194 -49 -215 -54 -234 -64 c 0
 -252 -74 -266 -89 -278 -111 c 0
 -289 -144 l 0
 -292 -152 l 0
 -273 -147 l 0
 -256 -143 -242 -141 -231 -141 c 0
 -219 -141 -209 -143 -201 -147 c 0
 -182 -156 -170 -172 -163 -195 c 0
 -161 -211 l 0
 -161 -229 -166 -244 -178 -258 c 0
 -190 -271 -205 -277 -225 -278 c 0
 -240 -278 -251 -277 -258 -273 c 0
 -266 -271 -272 -264 -276 -252 c 0
 -278 -248 -278 -243 -274 -235 c 0
 -271 -229 -267 -227 -262 -227 c 0
 -255 -229 -252 -234 -251 -243 c 0
 -251 -247 -252 -250 -255 -253 c 0
 -274 -264 l 0
EndSplineSet
EndChar

StartChar: u1A4C
Encoding: 54 6732 54
Width: 692
VWidth: 0
Flags: HW
AnchorPoint: "UR" 617 416 basechar 0
AnchorPoint: "LR" 588 -259 basechar 0
AnchorPoint: "U" 333.5 416 basechar 0
AnchorPoint: "L" 279.5 -280 basechar 0
LayerCount: 2
Fore
SplineSet
522 29 m 0
 511 29 l 0
 530 28 552 44 577 79 c 0
 602 113 614 145 615 177 c 0
 615 218 601 257 572 294 c 0
 540 335 502 355 456 356 c 0
 418 356 387 350 362 336 c 0
 344 326 330 311 319 289 c 0
 315 278 l 0
 314 260 l 0
 314 256 314 252 314 248 c 0
 314 244 315 236 318 223 c 0
 327 161 l 0
 327 135 312 107 281 76 c 0
 251 46 224 31 199 30 c 0
 171 30 146 42 122 66 c 0
 101 90 91 120 90 156 c 0
 90 176 105 196 135 217 c 0
 165 237 180 254 180 268 c 0
 180 288 175 307 163 327 c 0
 152 346 140 355 125 356 c 0
 120 356 111 352 96 344 c 0
 90 340 84 336 78 332 c 0
 74 328 69 324 63 318 c 0
 61 316 60 313 60 309 c 0
 60 301 64 291 74 277 c 0
 83 265 90 258 96 255 c 0
 102 254 109 255 119 259 c 0
 128 263 136 269 145 278 c 0
 148 274 l 0
 151 262 l 0
 151 257 150 253 146 248 c 0
 143 245 131 236 108 221 c 0
 74 199 57 178 57 157 c 0
 57 115 75 78 112 44 c 0
 146 15 181 1 217 0 c 0
 247 0 278 17 311 52 c 0
 326 68 337 85 345 103 c 0
 353 121 357 138 357 155 c 0
 350 179 l 0
 345 201 343 219 342 233 c 0
 342 244 342 251 343 256 c 0
 344 260 346 268 351 280 c 0
 355 291 368 300 392 309 c 0
 396 310 404 312 418 316 c 0
 431 320 443 322 454 322 c 0
 490 322 521 313 548 293 c 0
 574 275 587 246 588 205 c 0
 587 187 l 0
 585 171 584 162 584 160 c 0
 582 148 580 139 576 132 c 0
 568 116 552 99 528 79 c 0
 504 60 484 49 467 46 c 0
 464 46 463 44 462 40 c 0
 478 16 l 0
 497 4 l 0
 517 0 l 0
 526 -1 532 -6 535 -16 c 0
 537 -31 l 0
 538 -152 l 0
 538 -181 509 -205 450 -226 c 0
 399 -242 342 -250 279 -250 c 0
 209 -250 159 -241 128 -222 c 0
 104 -207 92 -185 92 -156 c 0
 92 -130 108 -110 142 -96 c 0
 176 -83 214 -77 257 -76 c 0
 275 -76 l 0
 292 -78 l 0
 312 -80 332 -82 352 -86 c 0
 372 -90 398 -96 431 -104 c 0
 478 -114 512 -123 534 -133 c 0
 537 -109 l 0
 381 -61 l 0
 369 -59 354 -57 335 -54 c 0
 318 -52 302 -51 286 -51 c 0
 250 -51 218 -53 190 -57 c 0
 164 -61 141 -67 120 -77 c 0
 82 -94 63 -119 63 -153 c 0
 63 -203 86 -238 132 -258 c 0
 164 -271 213 -277 281 -278 c 0
 359 -278 423 -268 475 -248 c 0
 536 -224 566 -188 567 -138 c 0
 567 -31 l 0
 567 -17 563 -4 554 9 c 0
 546 22 536 28 522 29 c 0
91 310 m 0
 90 314 91 317 95 321 c 0
 99 323 105 325 113 327 c 0
 119 327 124 322 128 312 c 0
 130 302 131 296 131 292 c 0
 129 286 123 283 111 283 c 0
 104 283 98 292 91 310 c 0
EndSplineSet
Comment: "classes: cConsWide"
EndChar

StartChar: u1A3F.sub
Encoding: 55 -1 55
Width: 188
VWidth: 0
Flags: HW
AnchorPoint: "LRD" 103 -199 basemark 0
AnchorPoint: "URD" 103 420 basemark 0
AnchorPoint: "LD" -80.5 -200 basemark 0
AnchorPoint: "LR" 0 0 mark 0
LayerCount: 2
Fore
SplineSet
127 262 m 0
 121 263 l 0
 112 272 l 0
 104 318 l 0
 102 332 l 0
 91 324 l 0
 102 289 l 0
 110 269 114 257 114 251 c 0
 112 -62 l 0
 112 -106 93 -140 53 -164 c 0
 18 -184 -26 -194 -80 -195 c 0
 -131 -195 -166 -192 -187 -184 c 0
 -216 -174 -234 -153 -243 -120 c 0
 -240 -102 l 0
 -238 -96 -238 -91 -239 -85 c 0
 -242 -77 l 0
 -245 -79 l 0
 -242 -100 l 0
 -242 -106 -244 -113 -250 -122 c 0
 -255 -128 l 0
 -252 -100 l 0
 -252 -94 -252 -89 -254 -84 c 0
 -258 -69 l 0
 -258 -67 -257 -65 -255 -63 c 0
 -254 -62 -252 -60 -248 -57 c 0
 -233 -50 l 0
 -220 -55 l 0
 -210 -66 l 0
 -211 -86 l 0
 -214 -110 l 0
 -214 -136 -198 -154 -164 -166 c 0
 -144 -172 -115 -175 -75 -175 c 0
 -40 -175 -9 -167 20 -149 c 0
 54 -128 71 -99 72 -61 c 0
 75 247 l 0
 75 253 73 262 68 276 c 0
 49 324 l 0
 49 325 49 326 51 327 c 0
 54 331 59 336 68 342 c 0
 80 350 88 354 94 356 c 0
 98 355 101 354 103 352 c 0
 116 338 l 0
 118 312 l 0
 118 297 121 281 127 262 c 0
EndSplineSet
EndChar

StartChar: u1A73
Encoding: 56 6771 56
Width: 0
VWidth: 0
Flags: HW
AnchorPoint: "UD" -268.5 416 mark 0
AnchorPoint: "UD" -268.5 642 basemark 0
AnchorPoint: "U" -268.5 416 mark 0
LayerCount: 2
Fore
SplineSet
-270 550 m 0
 -274 541 -293 520 -327 486 c 0
 -365 450 -402 422 -440 400 c 0
 -445 398 -455 401 -472 409 c 0
 -474 422 l 0
 -448 436 -421 453 -392 475 c 0
 -359 498 -337 516 -325 529 c 0
 -311 545 -303 556 -301 563 c 0
 -299 570 -298 581 -298 597 c 0
 -298 602 -295 606 -289 611 c 0
 -284 615 -277 617 -268 617 c 0
 -263 617 -258 616 -251 612 c 0
 -245 609 -242 604 -241 597 c 0
 -241 572 -233 550 -215 529 c 0
 -210 523 -203 516 -192 508 c 0
 -182 501 -168 491 -150 477 c 0
 -117 453 -90 435 -67 422 c 0
 -68 410 l 0
 -81 402 -92 399 -101 400 c 0
 -119 410 -137 421 -155 435 c 0
 -173 449 -192 466 -213 486 c 0
 -247 518 -266 539 -270 550 c 0
EndSplineSet
Comment: "classes: cVowelUDia"
EndChar

StartChar: u1A74
Encoding: 57 6772 57
Width: 0
VWidth: 0
Flags: HW
AnchorPoint: "URD" -148 562 basemark 0
AnchorPoint: "UA" -148 416 mark 0
AnchorPoint: "UD" -212 562 basemark 0
AnchorPoint: "UD" -212 416 mark 0
AnchorPoint: "U" -212 416 mark 0
LayerCount: 2
Fore
SplineSet
-215 485 m 4
 -222 485 -228 482 -235 475 c 4
 -244 464 l 4
 -248 449 l 4
 -248 444 -247 439 -244 433 c 4
 -242 429 -238 424 -232 418 c 4
 -227 413 -221 411 -213 410 c 4
 -208 410 -204 411 -199 415 c 4
 -188 425 l 4
 -187 427 -186 433 -184 444 c 4
 -184 454 -186 462 -190 468 c 4
 -202 480 l 4
 -204 482 -208 483 -215 485 c 4
-219 521 m 4
 -201 521 -184 513 -166 497 c 4
 -153 484 -147 468 -146 449 c 4
 -146 441 -148 433 -153 425 c 4
 -173 402 l 4
 -184 391 -197 386 -213 385 c 4
 -220 385 -227 387 -236 391 c 4
 -257 406 l 4
 -267 413 -272 427 -273 449 c 4
 -273 462 -273 470 -271 475 c 4
 -271 478 -267 483 -259 492 c 4
 -238 511 l 4
 -233 517 -227 520 -219 521 c 4
EndSplineSet
Comment: "classes: cVowelUDia"
EndChar

StartChar: u1A39.sub
Encoding: 58 -1 58
Width: 227
VWidth: 0
Flags: HW
AnchorPoint: "LRD" 185 -289 basemark 0
AnchorPoint: "URD" 117 439 basemark 0
AnchorPoint: "LD" -128.5 -292 basemark 0
AnchorPoint: "LD" -128.5 0 mark 0
AnchorPoint: "L" -128.5 0 mark 0
LayerCount: 2
Fore
SplineSet
-231 -104 m 0
 -228 -112 l 0
 -228 -115 -232 -119 -240 -125 c 0
 -259 -132 l 0
 -271 -132 l 0
 -275 -130 -275 -126 -273 -119 c 0
 -270 -114 -266 -110 -260 -107 c 0
 -244 -104 l 0
 -231 -104 l 0
99 292 m 0
 83 288 l 0
 69 284 59 282 52 282 c 0
 39 283 l 0
 26 285 15 288 6 294 c 0
 -2 298 -5 305 -4 315 c 0
 -3 321 1 326 10 330 c 0
 18 334 27 336 37 337 c 0
 56 337 72 330 85 315 c 0
 88 312 92 305 99 292 c 0
-237 -86 m 0
 -252 -86 l 0
 -263 -86 -270 -86 -274 -88 c 0
 -290 -98 l 0
 -300 -106 -305 -115 -306 -126 c 0
 -303 -138 l 0
 -298 -149 -284 -154 -261 -155 c 0
 -243 -155 -227 -151 -212 -142 c 0
 -198 -134 -191 -122 -191 -106 c 0
 -191 -92 -198 -79 -214 -66 c 0
 -229 -54 -247 -48 -268 -48 c 0
 -301 -48 -326 -54 -344 -67 c 0
 -362 -80 -371 -96 -371 -115 c 0
 -371 -143 -353 -165 -317 -182 c 0
 -326 -186 -336 -192 -348 -200 c 0
 -360 -208 -366 -218 -366 -232 c 0
 -366 -252 -357 -268 -339 -281 c 0
 -321 -294 -299 -300 -272 -301 c 0
 -239 -301 -206 -294 -171 -280 c 0
 -166 -278 -161 -276 -154 -272 c 0
 -149 -270 -142 -266 -131 -258 c 0
 -88 -277 l 0
 -52 -290 -20 -296 9 -297 c 0
 49 -297 82 -284 109 -257 c 0
 136 -231 149 -203 150 -172 c 0
 150 223 l 0
 150 242 l 0
 150 249 150 255 148 261 c 0
 142 281 l 0
 151 285 l 0
 174 300 l 0
 182 306 189 319 197 341 c 0
 207 377 l 0
 192 352 l 0
 180 334 169 322 159 316 c 0
 136 305 l 0
 129 302 l 0
 127 314 118 325 102 335 c 0
 83 347 62 353 38 354 c 0
 18 354 1 349 -15 339 c 0
 -29 329 -35 317 -34 303 c 0
 -32 292 -26 283 -14 274 c 0
 -4 266 10 260 30 256 c 0
 43 255 l 0
 54 255 62 255 68 256 c 0
 73 256 80 257 89 261 c 0
 98 264 104 266 107 268 c 0
 112 258 l 0
 114 254 115 247 115 235 c 0
 115 -179 l 0
 115 -203 106 -225 86 -245 c 0
 67 -265 43 -275 12 -275 c 0
 -6 -275 -35 -266 -77 -248 c 0
 -129 -221 l 0
 -171 -248 l 0
 -205 -266 -232 -275 -252 -276 c 0
 -265 -275 l 0
 -279 -273 -292 -268 -306 -259 c 0
 -318 -253 -324 -246 -325 -236 c 0
 -325 -222 -319 -211 -306 -202 c 0
 -264 -184 l 0
 -287 -170 l 0
 -304 -159 -318 -147 -330 -134 c 0
 -336 -127 -339 -118 -341 -106 c 0
 -341 -96 -336 -87 -326 -78 c 0
 -317 -70 -303 -66 -284 -65 c 0
 -270 -65 -257 -69 -245 -79 c 0
 -237 -86 l 0
EndSplineSet
EndChar

StartChar: u1A37
Encoding: 59 6711 59
Width: 530
VWidth: 0
Flags: HW
AnchorPoint: "UR" 470 416 basechar 0
AnchorPoint: "LR" 470 0 basechar 0
AnchorPoint: "U" 261.5 416 basechar 0
AnchorPoint: "L" 266.5 0 basechar 0
LayerCount: 2
Fore
SplineSet
117 324 m 0
 110 324 105 319 100 309 c 0
 98 302 99 295 105 286 c 0
 110 280 116 278 125 278 c 0
 130 278 134 280 138 286 c 0
 141 291 142 297 141 306 c 0
 139 320 131 326 117 324 c 0
93 251 m 0
 89 252 83 258 75 271 c 0
 69 284 66 294 65 302 c 0
 65 306 66 309 69 313 c 0
 99 340 l 0
 111 350 120 355 128 356 c 0
 138 356 148 352 159 342 c 0
 169 334 174 325 176 313 c 0
 176 291 156 256 114 208 c 0
 94 185 84 162 84 139 c 0
 84 109 111 83 165 61 c 0
 205 46 241 39 273 38 c 0
 305 38 340 52 380 82 c 0
 419 111 438 134 439 153 c 0
 440 168 l 0
 441 188 l 0
 441 206 438 222 430 238 c 0
 420 258 403 277 377 296 c 0
 363 301 l 0
 341 306 l 0
 333 308 326 313 320 321 c 0
 315 329 313 335 312 341 c 0
 312 345 317 349 329 353 c 0
 340 357 351 359 363 360 c 0
 369 360 374 359 379 356 c 0
 419 325 l 0
 434 312 440 304 439 299 c 0
 437 299 435 299 431 301 c 0
 429 302 421 306 407 313 c 0
 376 325 l 0
 363 325 l 0
 367 322 371 320 376 318 c 0
 402 313 l 0
 408 311 414 306 422 298 c 0
 440 276 453 251 462 221 c 0
 468 196 471 174 472 153 c 0
 472 125 444 92 387 52 c 0
 335 17 295 0 266 -1 c 0
 220 -1 175 9 130 30 c 0
 71 57 42 93 41 139 c 0
 41 155 57 181 91 217 c 0
 134 265 l 0
 110 254 l 0
 93 251 l 0
EndSplineSet
Comment: "classes: cConsNarrow"
EndChar

StartChar: u1A31.sub
Encoding: 60 -1 60
Width: 1
VWidth: 0
Flags: HW
AnchorPoint: "LRD" -49 -292 basemark 0
AnchorPoint: "LD" -274.5 -301 basemark 0
AnchorPoint: "LD" -277.5 0 mark 0
AnchorPoint: "L" -277.5 0 mark 0
LayerCount: 2
Fore
SplineSet
-308 -142 m 0
 -308 -125 -315 -110 -330 -95 c 0
 -344 -83 -363 -77 -387 -76 c 0
 -413 -76 -435 -85 -453 -105 c 0
 -471 -125 -480 -148 -480 -174 c 0
 -480 -202 -476 -225 -466 -243 c 0
 -457 -261 -443 -270 -424 -271 c 0
 -428 -271 -430 -268 -430 -261 c 0
 -430 -254 -428 -246 -422 -237 c 0
 -417 -229 -411 -224 -403 -221 c 0
 -396 -219 -388 -222 -379 -230 c 0
 -371 -238 -367 -247 -366 -257 c 0
 -366 -268 -371 -278 -381 -287 c 0
 -391 -296 -403 -300 -418 -301 c 0
 -442 -301 -461 -289 -476 -263 c 0
 -490 -238 -497 -208 -498 -173 c 0
 -498 -137 -487 -107 -463 -83 c 0
 -441 -60 -415 -49 -385 -48 c 0
 -353 -48 -328 -57 -309 -76 c 0
 -291 -94 -282 -116 -281 -143 c 0
 -281 -157 -285 -172 -295 -189 c 0
 -304 -205 -308 -218 -309 -230 c 0
 -309 -262 -295 -278 -267 -278 c 0
 -250 -278 -237 -273 -227 -263 c 0
 -222 -257 -220 -247 -219 -231 c 0
 -219 -225 -226 -212 -241 -190 c 0
 -255 -170 -262 -154 -263 -141 c 0
 -263 -113 -255 -91 -238 -73 c 0
 -222 -57 -198 -49 -165 -48 c 0
 -115 -48 -81 -63 -62 -94 c 0
 -50 -113 -44 -139 -44 -173 c 0
 -44 -186 -47 -200 -53 -217 c 0
 -59 -233 -68 -246 -80 -257 c 0
 -95 -269 l 0
 -110 -277 l 0
 -114 -277 -116 -278 -116 -282 c 0
 -111 -282 l 0
 -109 -282 -108 -282 -106 -280 c 0
 -106 -280 -103 -278 -97 -274 c 0
 -86 -265 l 0
 -78 -259 -71 -255 -63 -252 c 0
 -71 -266 -79 -277 -88 -286 c 0
 -97 -294 -106 -299 -116 -301 c 0
 -133 -299 l 0
 -140 -299 -145 -297 -150 -292 c 0
 -138 -274 l 0
 -134 -266 -130 -262 -124 -261 c 0
 -110 -257 l 0
 -104 -255 -99 -251 -93 -243 c 0
 -85 -232 -79 -220 -75 -206 c 0
 -71 -194 -70 -183 -71 -173 c 0
 -71 -149 -77 -128 -89 -110 c 0
 -105 -86 -129 -74 -163 -74 c 0
 -212 -74 -236 -95 -237 -139 c 0
 -235 -152 -227 -168 -211 -188 c 0
 -200 -204 -194 -218 -192 -230 c 0
 -192 -256 -198 -274 -212 -285 c 0
 -225 -295 -245 -300 -274 -301 c 0
 -292 -301 -306 -296 -318 -284 c 0
 -328 -274 -333 -260 -334 -241 c 0
 -333 -224 l 0
 -333 -218 -329 -206 -320 -188 c 0
 -312 -170 -308 -155 -308 -142 c 0
-411 -271 m 0
 -400 -274 l 0
 -396 -273 -393 -272 -390 -269 c 0
 -389 -268 -389 -266 -388 -262 c 0
 -388 -257 -393 -252 -403 -245 c 0
 -407 -247 -409 -249 -411 -251 c 0
 -415 -263 l 0
 -415 -266 -414 -268 -411 -271 c 0
EndSplineSet
EndChar

StartChar: u1A43
Encoding: 61 6723 61
Width: 657
VWidth: 0
Flags: HW
AnchorPoint: "UR" 608 416 basechar 0
AnchorPoint: "LR" 608 0 basechar 0
AnchorPoint: "U" 318.5 416 basechar 0
AnchorPoint: "L" 328.5 0 basechar 0
LayerCount: 2
Fore
SplineSet
448 -1 m 0
 492 -1 531 19 565 59 c 0
 594 95 608 133 609 175 c 0
 609 205 598 236 574 270 c 0
 551 302 525 321 494 327 c 0
 506 327 l 0
 512 327 519 325 528 321 c 0
 536 318 546 312 559 302 c 0
 563 300 568 296 574 288 c 0
 564 311 555 326 546 335 c 0
 538 343 528 348 514 350 c 0
 492 354 l 0
 488 354 485 353 481 349 c 0
 473 338 l 0
 455 311 l 0
 457 309 459 308 461 306 c 0
 469 306 478 303 489 296 c 0
 498 292 509 284 523 272 c 0
 549 250 566 229 575 207 c 0
 581 165 l 0
 582 147 l 0
 582 109 568 78 540 54 c 0
 516 34 486 24 448 24 c 0
 431 24 411 29 387 39 c 0
 365 49 351 61 344 76 c 0
 342 83 340 90 338 97 c 0
 337 103 337 110 336 120 c 0
 336 137 338 154 343 173 c 0
 344 181 346 189 351 197 c 0
 352 210 l 0
 352 247 341 279 319 308 c 0
 293 340 257 356 211 356 c 0
 173 356 137 338 101 301 c 0
 67 265 50 224 50 177 c 0
 50 129 60 88 80 52 c 0
 100 17 127 0 163 -1 c 0
 184 -1 201 4 214 15 c 0
 226 25 232 40 233 61 c 0
 233 69 228 78 217 90 c 0
 204 104 188 111 169 111 c 0
 160 111 152 106 143 96 c 0
 137 87 134 77 134 65 c 0
 134 51 139 42 149 38 c 0
 127 46 110 62 97 87 c 0
 87 112 82 142 81 179 c 0
 81 227 92 263 114 288 c 0
 136 312 167 324 209 325 c 0
 243 325 271 310 293 278 c 0
 311 250 320 221 321 191 c 0
 317 156 l 0
 311 122 308 101 308 92 c 0
 308 80 309 71 313 63 c 0
 323 39 343 22 373 10 c 0
 393 3 418 0 448 -1 c 0
201 57 m 0
 201 53 199 50 195 46 c 0
 192 44 187 42 178 40 c 0
 164 43 l 0
 160 45 158 49 157 57 c 0
 157 62 158 67 162 73 c 0
 166 79 170 82 176 82 c 0
 184 82 190 80 194 75 c 0
 198 71 200 65 201 57 c 0
EndSplineSet
Comment: "classes: cConsWide cConsNarrow"
EndChar

StartChar: u1A6A
Encoding: 62 6762 62
Width: 1
VWidth: 0
Flags: HW
AnchorPoint: "LD" -181 0 mark 0
AnchorPoint: "LRD" 112.5 -162 basemark 0
AnchorPoint: "L" -181 0 mark 0
LayerCount: 2
Fore
SplineSet
49 -152 m 4
 67 -148 85 -137 104 -119 c 4
 113 -102 l 4
 93 -109 l 4
 46 -121 l 4
 44 -121 36 -122 20 -125 c 4
 6 -127 -6 -128 -18 -128 c 4
 -99 -131 l 4
 -111 -131 -118 -129 -122 -123 c 4
 -125 -119 -126 -111 -127 -99 c 4
 -127 -50 l 4
 -127 -44 -131 -41 -141 -40 c 4
 -146 -40 -152 -42 -160 -46 c 4
 -165 -50 -168 -55 -170 -61 c 4
 -170 -115 l 4
 -170 -127 -168 -137 -162 -146 c 4
 -154 -158 -140 -164 -118 -164 c 4
 -105 -164 l 4
 -87 -164 -69 -164 -51 -164 c 4
 -36 -162 -25 -161 -17 -160 c 4
 -1 -160 12 -160 22 -158 c 4
 32 -157 41 -155 49 -152 c 4
-193 -50 m 4
 -194 -146 l 4
 -194 -158 -200 -164 -213 -165 c 4
 -223 -165 -231 -160 -238 -150 c 4
 -238 -59 l 4
 -238 -55 -235 -51 -227 -47 c 4
 -220 -43 -213 -41 -205 -41 c 4
 -197 -41 -193 -44 -193 -50 c 4
EndSplineSet
Comment: "classes: cVowelLDia"
EndChar

StartChar: u1A98
Encoding: 63 6808 63
Width: 458
VWidth: 0
Flags: HW
LayerCount: 2
Fore
SplineSet
146 236 m 1
 150 235 l 1
 159 223 159 223 159 213 c 0
 159 201 159 201 141 192 c 2
 123 187 l 1
 104 185 l 2
 85 185 85 185 74 193 c 0
 56 205 56 205 56 229 c 256
 56 253 56 253 73 273 c 128
 90 293 90 293 111 293 c 0
 137 293 137 293 158 287 c 2
 188 273 l 1
 220 287 l 2
 237 293 237 293 254 293 c 0
 275 293 275 293 284.5 292 c 128
 294 291 294 291 306 285 c 0
 323 279 323 279 332 253 c 1
 334 226 l 2
 334 203 334 203 336 197 c 1
 350 203 l 2
 361 210 361 210 364 227 c 2
 364 345 l 2
 364 366 364 366 347 380 c 0
 335 389 335 389 313 395 c 2
 61 485 l 1
 60 490 l 1
 110 518 l 1
 128 529 l 2
 134 532 134 532 144 532 c 2
 161 530 l 1
 183 525 l 1
 344 477 l 2
 359 471 359 471 373 471 c 2
 394 474 l 2
 409 477 409 477 429 487 c 2
 448 498 l 1
 433 480 l 2
 418 462 418 462 405 455 c 0
 386 444 386 444 363 444 c 0
 345 444 345 444 332 449 c 2
 149 504 l 1
 138 505 l 2
 129 505 129 505 121 501 c 2
 112 495 l 1
 332 416 l 1
 375 394 l 1
 394 377 394 377 394 353 c 2
 394 215 l 2
 394 197 394 197 372 182 c 0
 354 170 354 170 335 167 c 1
 335 127 l 1
 346 130 l 1
 362 131 l 1
 380 128 l 1
 398 113 l 2
 407 103 407 103 412 86 c 2
 414 70 l 1
 414 60 l 2
 414 21 414 21 371 3 c 1
 349 -1 l 2
 333 -1 333 -1 318 8 c 0
 305 18 305 18 305 38 c 2
 305 94 l 1
 254 73 l 1
 236 63 l 1
 208 44 l 1
 170 14 l 2
 152 -1 152 -1 128 -1 c 2
 115 0 l 2
 71 6 71 6 56 50 c 1
 53 72 l 1
 53 105 53 105 86 129 c 0
 96 137 96 137 128 145 c 2
 193 156 l 1
 247 165 l 2
 268 168 268 168 283 175 c 2
 306 185 l 1
 306 228 l 2
 303 246 303 246 297 252 c 0
 288 263 288 263 260 263 c 256
 232 263 232 263 218 256 c 2
 193 238 l 1
 183 248 183 248 161 256 c 128
 139 264 139 264 111 264 c 0
 84 264 84 264 84 236 c 0
 84 215 84 215 109 208 c 0
 120 205 120 205 130 213.5 c 128
 140 222 140 222 146 236 c 1
334 100 m 1
 334 45 l 2
 334 26 334 26 357 26 c 0
 373 26 373 26 383 51 c 1
 385 64 l 2
 385 72 385 72 381.5 81 c 128
 378 90 378 90 370 97 c 0
 366 102 366 102 353 105 c 1
 342 104 l 1
 334 100 l 1
305 155 m 1
 267 146 l 1
 197 133 l 1
 145 127 l 2
 118 124 118 124 105 108 c 2
 89 91 l 2
 87 89 87 89 84 75 c 2
 85 59 l 2
 85 50 85 50 95 43 c 0
 101 39 101 39 120 32 c 1
 127 31 l 1
 131 31 l 2
 139 31 139 31 142 33 c 2
 164 47 l 1
 194 69 l 1
 230 90 l 1
 258 104 l 1
 305 120 l 1
 305 155 l 1
EndSplineSet
Comment: "classes: cDigitTham"
EndChar

StartChar: u1A3C
Encoding: 64 6716 64
Width: 538
VWidth: 0
Flags: HW
AnchorPoint: "UR" 489 416 basechar 0
AnchorPoint: "LR" 489 0 basechar 0
AnchorPoint: "U" 259.5 416 basechar 0
AnchorPoint: "L" 279.5 1 basechar 0
LayerCount: 2
Fore
SplineSet
550 588 m 0
 500 614 465 630 444 638 c 0
 430 642 410 645 382 649 c 0
 356 652 328 653 298 654 c 0
 225 654 171 641 135 615 c 0
 100 589 83 549 82 494 c 0
 81 132 l 0
 81 127 78 124 72 122 c 0
 59 122 50 136 44 164 c 0
 44 490 l 0
 44 546 59 589 91 621 c 0
 131 660 198 679 292 680 c 0
 364 680 424 670 472 650 c 0
 516 632 542 612 550 588 c 0
177 110 m 0
 194 112 208 107 221 95 c 0
 231 83 236 68 237 48 c 0
 237 36 229 25 211 14 c 0
 195 4 180 -1 164 -2 c 0
 122 -2 91 16 69 54 c 0
 53 85 45 126 44 178 c 0
 44 217 57 256 84 296 c 0
 111 336 144 356 183 356 c 0
 194 356 207 352 223 344 c 0
 264 317 l 0
 277 327 291 336 307 344 c 0
 322 352 336 356 349 356 c 0
 391 356 425 340 451 307 c 0
 477 275 490 233 490 179 c 0
 490 146 487 119 481 98 c 0
 476 78 467 61 453 45 c 0
 450 42 443 38 431 32 c 0
 402 20 l 0
 394 16 l 0
 386 15 l 0
 421 28 l 0
 446 35 l 0
 465 37 l 0
 442 13 l 0
 430 3 414 -2 393 -2 c 0
 379 -2 369 -1 363 3 c 0
 358 6 351 15 342 30 c 0
 346 40 350 46 355 48 c 0
 360 50 368 52 379 54 c 0
 390 54 398 55 405 57 c 0
 422 63 434 73 442 87 c 0
 450 101 454 127 454 165 c 0
 454 214 441 255 414 289 c 0
 403 303 392 313 380 321 c 0
 370 328 358 331 344 332 c 0
 336 332 324 326 308 314 c 0
 262 278 l 0
 215 313 l 0
 201 323 188 328 176 328 c 0
 153 328 132 316 111 292 c 0
 89 264 78 227 78 180 c 0
 78 145 81 116 88 92 c 0
 94 69 107 52 129 41 c 0
 130 49 131 56 134 62 c 0
 136 68 140 75 146 85 c 0
 156 99 166 107 177 110 c 0
166 33 m 0
 192 31 l 0
 208 31 215 37 213 49 c 0
 211 63 206 70 196 71 c 0
 185 66 l 0
 181 64 177 60 173 54 c 0
 166 33 l 0
EndSplineSet
Comment: "classes: cConsNarrow"
EndChar

StartChar: u1A65
Encoding: 65 6757 65
Width: 0
VWidth: 0
Flags: HW
AnchorPoint: "UD" -256.5 412 mark 0
AnchorPoint: "UD" -260.5 565 basemark 0
AnchorPoint: "U" -256.5 412 mark 0
LayerCount: 2
Fore
SplineSet
-316 468 m 0
 -320 459 l 0
 -320 455 -318 451 -314 445 c 0
 -307 437 -302 433 -298 433 c 0
 -291 437 l 0
 -287 441 -288 448 -296 458 c 0
 -304 468 -310 471 -316 468 c 0
-311 421 m 0
 -317 423 -323 427 -331 435 c 0
 -339 443 -342 451 -340 460 c 0
 -330 473 l 0
 -312 490 l 0
 -303 494 l 0
 -295 494 -287 488 -279 475 c 0
 -271 463 -267 451 -267 438 c 0
 -267 435 -276 426 -294 409 c 0
 -312 395 -323 388 -328 388 c 0
 -349 388 -366 397 -379 415 c 0
 -392 433 -398 453 -399 476 c 0
 -399 487 -384 501 -353 519 c 0
 -323 537 -302 546 -289 546 c 0
 -273 546 -261 546 -252 545 c 0
 -245 545 -233 543 -216 538 c 0
 -192 534 -170 524 -148 507 c 0
 -132 495 -121 482 -114 467 c 0
 -108 453 -105 435 -105 413 c 0
 -132 389 l 0
 -140 436 l 0
 -144 451 -154 466 -171 481 c 0
 -179 487 -195 494 -221 503 c 0
 -245 511 -266 515 -286 515 c 0
 -312 515 -333 513 -350 508 c 0
 -366 504 -374 495 -374 479 c 0
 -374 464 -370 450 -360 436 c 0
 -352 423 -343 416 -331 415 c 0
 -322 417 l 0
 -311 421 l 0
EndSplineSet
Comment: "classes: cVowelUDia"
EndChar

StartChar: u1A6F
Encoding: 66 6767 66
Width: 905
VWidth: 0
Flags: HW
LayerCount: 2
Fore
SplineSet
648 31 m 0
 652 31 656 33 661 37 c 0
 665 41 667 46 668 53 c 0
 668 58 664 64 655 73 c 0
 650 77 645 79 638 79 c 0
 634 79 631 76 629 69 c 0
 627 63 627 57 628 51 c 0
 631 38 637 32 648 31 c 0
617 35 m 0
 614 40 612 47 609 58 c 0
 607 72 611 86 621 100 c 0
 631 114 640 121 650 121 c 0
 658 121 668 114 680 98 c 0
 692 84 698 70 698 56 c 0
 698 48 692 37 679 22 c 0
 667 8 657 1 647 -1 c 0
 621 -1 589 13 549 42 c 0
 501 76 477 114 477 156 c 0
 477 200 498 244 541 289 c 0
 584 333 624 355 662 356 c 0
 691 356 721 347 752 329 c 0
 782 312 808 288 830 256 c 0
 849 227 860 200 864 174 c 0
 840 204 l 0
 822 226 807 242 793 254 c 0
 753 288 729 307 719 312 c 0
 701 320 682 324 661 325 c 0
 629 325 599 310 571 279 c 0
 537 243 520 196 520 137 c 0
 520 115 536 91 570 63 c 0
 617 35 l 0
218 31 m 0
 222 31 226 33 231 37 c 0
 235 41 237 46 238 53 c 0
 238 58 234 64 225 73 c 0
 220 77 215 79 208 79 c 0
 204 79 201 76 199 69 c 0
 197 63 197 57 198 51 c 0
 201 38 207 32 218 31 c 0
187 35 m 0
 184 40 182 47 179 58 c 0
 177 72 181 86 191 100 c 0
 201 114 210 121 220 121 c 0
 228 121 238 114 250 98 c 0
 262 84 268 70 268 56 c 0
 268 48 262 37 249 22 c 0
 237 8 227 1 217 -1 c 0
 191 -1 159 13 119 42 c 0
 71 76 47 114 47 156 c 0
 47 200 68 244 111 289 c 0
 154 333 194 355 232 356 c 0
 261 356 291 347 322 329 c 0
 352 312 378 288 400 256 c 0
 419 227 430 200 434 174 c 0
 410 204 l 0
 392 226 377 242 363 254 c 0
 323 288 299 307 289 312 c 0
 271 320 252 324 231 325 c 0
 199 325 169 310 141 279 c 0
 107 243 90 196 90 137 c 0
 90 115 106 91 140 63 c 0
 187 35 l 0
EndSplineSet
Comment: "classes: cVowelPre"
EndChar

StartChar: u1A20
Encoding: 67 6688 67
Width: 673
VWidth: 0
Flags: HW
AnchorPoint: "UR" 625 416 basechar 0
AnchorPoint: "LR" 625 0 basechar 0
AnchorPoint: "U" 348.5 416 basechar 0
AnchorPoint: "L" 339.5 0 basechar 0
LayerCount: 2
Fore
SplineSet
204 108 m 0
 220 110 235 104 249 89 c 0
 258 78 263 68 265 58 c 0
 265 40 258 26 244 14 c 0
 230 4 213 -1 191 -1 c 0
 147 -1 113 17 88 54 c 0
 66 86 55 127 55 177 c 0
 55 223 72 264 106 301 c 0
 140 337 176 355 216 356 c 0
 260 356 294 340 320 306 c 0
 340 278 350 246 351 210 c 0
 350 197 l 0
 350 15 l 0
 337 5 l 0
 327 1 l 0
 326 191 l 0
 326 221 317 249 299 277 c 0
 277 309 249 325 214 325 c 0
 174 325 142 313 117 288 c 0
 93 264 81 227 81 176 c 0
 81 141 91 109 111 79 c 0
 131 50 154 36 181 35 c 0
 171 38 166 47 166 63 c 0
 166 73 169 83 175 93 c 0
 181 103 190 108 204 108 c 0
196 40 m 0
 199 38 204 37 211 37 c 0
 217 37 222 38 227 42 c 0
 231 45 233 49 233 54 c 0
 233 68 224 75 206 75 c 0
 196 74 191 66 190 51 c 0
 190 47 192 44 196 40 c 0
534 63 m 0
 557 80 573 96 582 111 c 0
 588 123 591 135 592 149 c 0
 591 163 l 0
 591 179 l 0
 591 225 578 261 552 287 c 0
 527 313 495 326 456 326 c 0
 429 326 405 312 384 284 c 0
 364 256 354 228 353 199 c 0
 348 181 l 0
 347 175 346 171 344 167 c 0
 343 165 342 163 340 160 c 0
 338 167 l 0
 338 184 l 0
 338 230 351 270 377 304 c 0
 403 338 434 355 472 356 c 0
 516 356 554 336 586 296 c 0
 613 261 626 223 627 181 c 0
 627 151 613 120 585 86 c 0
 558 54 529 35 498 29 c 0
 510 28 l 0
 516 28 523 30 532 34 c 0
 540 38 550 44 563 54 c 0
 567 56 572 60 578 68 c 0
 568 46 558 30 547 19 c 0
 537 11 523 5 503 1 c 0
 487 -1 l 0
 478 -1 471 1 464 5 c 0
 461 8 459 12 457 17 c 0
 463 31 l 0
 465 35 468 38 473 42 c 0
 499 49 l 0
 513 51 524 55 534 63 c 0
EndSplineSet
Comment: "classes: cConsWide"
EndChar

StartChar: u1A63_u1A74
Encoding: 68 -1 68
Width: 388
VWidth: 0
Flags: HW
LayerCount: 2
Fore
SplineSet
202 82 m 0
 269 112 l 0
 289 125 299 147 299 178 c 0
 299 198 l 0
 299 205 299 212 297 221 c 0
 297 228 294 237 288 250 c 0
 278 272 263 289 241 302 c 0
 221 315 200 321 178 322 c 0
 152 322 129 315 107 301 c 0
 80 276 l 0
 76 258 l 0
 76 254 76 252 78 250 c 0
 94 244 102 234 102 219 c 0
 102 213 100 207 95 200 c 0
 91 194 86 191 78 191 c 0
 72 191 65 194 56 200 c 0
 48 206 44 211 42 216 c 0
 41 226 l 0
 41 237 l 0
 41 249 42 259 44 269 c 0
 46 277 51 284 60 291 c 0
 126 336 l 0
 149 349 167 355 180 356 c 0
 212 356 242 347 271 327 c 0
 296 310 315 289 328 262 c 0
 335 242 l 0
 337 221 l 0
 336 184 l 0
 336 158 331 138 320 122 c 0
 305 103 270 81 214 54 c 0
 177 40 l 0
 155 32 144 27 142 24 c 0
 149 22 l 0
 155 23 164 27 178 36 c 0
 184 39 196 42 214 46 c 0
 224 46 l 0
 172 11 l 0
 158 3 148 0 141 1 c 0
 134 3 128 6 123 11 c 0
 115 17 111 24 111 32 c 0
 125 48 l 0
 140 60 l 0
 174 70 l 0
 181 72 190 76 202 82 c 0
-97 485 m 0
 -103 485 -108 482 -112 475 c 0
 -116 469 -118 461 -120 450 c 0
 -120 442 -117 435 -111 427 c 0
 -105 421 -98 418 -88 416 c 0
 -80 416 -74 419 -68 427 c 0
 -65 434 -63 442 -61 452 c 0
 -61 462 -64 470 -70 476 c 0
 -76 482 -85 485 -97 485 c 0
-96 520 m 0
 -82 523 -66 518 -48 504 c 0
 -31 491 -23 476 -22 457 c 0
 -22 445 -28 430 -40 411 c 0
 -52 393 -65 384 -80 384 c 0
 -94 384 -107 388 -120 397 c 0
 -132 405 -140 417 -146 433 c 0
 -148 443 l 0
 -150 455 l 0
 -150 465 -147 473 -140 481 c 0
 -121 505 l 0
 -114 513 -106 518 -96 520 c 0
EndSplineSet
EndChar

StartChar: u1A2F
Encoding: 69 6703 69
Width: 521
VWidth: 0
Flags: HW
AnchorPoint: "UR" 455 416 basechar 0
AnchorPoint: "LR" 554 -100 basechar 0
AnchorPoint: "U" 262.5 416 basechar 0
AnchorPoint: "L" 262.5 0 basechar 0
LayerCount: 2
Fore
SplineSet
101 254 m 0
 101 249 103 245 107 240 c 0
 111 236 115 234 120 232 c 0
 126 232 131 238 135 250 c 0
 136 254 135 258 131 262 c 0
 127 266 123 268 117 270 c 0
 111 270 107 270 105 268 c 0
 104 267 103 266 102 263 c 0
 102 261 102 258 101 254 c 0
93 280 m 0
 100 283 l 0
 125 290 l 0
 137 290 145 287 151 279 c 0
 156 273 158 262 159 246 c 0
 159 234 149 222 129 210 c 0
 116 202 105 198 95 197 c 0
 93 197 90 197 85 199 c 0
 75 203 67 211 60 224 c 0
 55 236 53 249 52 265 c 0
 54 286 l 0
 58 308 69 325 88 337 c 0
 106 349 127 355 151 356 c 0
 162 356 179 350 204 336 c 0
 229 324 248 318 263 317 c 0
 277 317 294 323 315 335 c 0
 335 347 351 353 363 354 c 0
 386 354 407 346 427 330 c 0
 446 314 455 292 456 264 c 0
 456 176 l 0
 456 150 441 127 410 107 c 0
 380 88 346 79 307 78 c 0
 290 78 276 78 263 78 c 0
 252 78 234 77 208 74 c 0
 189 74 172 72 155 68 c 0
 153 68 144 65 126 58 c 0
 119 56 115 51 112 42 c 0
 167 48 l 0
 234 50 l 0
 280 49 l 0
 288 49 297 49 309 48 c 0
 321 48 334 47 348 44 c 0
 361 44 374 42 389 37 c 0
 403 33 417 27 432 18 c 0
 458 5 482 -18 506 -51 c 0
 517 -65 525 -79 532 -95 c 0
 533 -99 535 -107 539 -120 c 0
 542 -133 544 -142 546 -147 c 0
 549 -174 l 0
 550 -208 l 0
 550 -238 l 0
 543 -196 535 -162 524 -136 c 0
 514 -111 501 -89 483 -69 c 0
 472 -57 461 -46 448 -36 c 0
 437 -27 426 -20 414 -13 c 0
 389 0 361 6 329 7 c 0
 271 7 l 0
 216 8 l 0
 152 8 96 5 48 -1 c 0
 69 42 l 0
 83 69 111 88 153 99 c 0
 166 102 182 104 201 107 c 0
 219 109 240 110 265 110 c 0
 309 110 l 0
 346 110 371 112 385 118 c 0
 408 126 419 141 420 165 c 0
 420 250 l 0
 420 272 414 290 400 304 c 0
 388 318 372 325 352 326 c 0
 338 326 317 317 289 298 c 0
 277 290 266 286 255 284 c 0
 242 284 221 292 192 309 c 0
 178 316 166 320 156 322 c 0
 137 323 l 0
 126 323 117 322 110 318 c 0
 104 316 100 312 96 305 c 0
 93 291 l 0
 93 280 l 0
EndSplineSet
Comment: "classes: cConsNarrow"
EndChar

StartChar: u1A6E
Encoding: 70 6766 70
Width: 452
VWidth: 0
Flags: HW
LayerCount: 2
Fore
SplineSet
202 31 m 0
 206 31 210 33 215 37 c 0
 219 41 221 46 222 53 c 0
 222 58 218 64 209 73 c 0
 204 77 199 79 192 79 c 0
 188 79 185 76 183 69 c 0
 181 63 181 57 182 51 c 0
 185 38 191 32 202 31 c 0
171 35 m 0
 168 40 166 47 163 58 c 0
 161 72 165 86 175 100 c 0
 185 114 194 121 204 121 c 0
 212 121 222 114 234 98 c 0
 246 84 252 70 252 56 c 0
 252 48 246 37 233 22 c 0
 221 8 211 1 201 -1 c 0
 175 -1 143 13 103 42 c 0
 55 76 31 114 31 156 c 0
 31 200 52 244 95 289 c 0
 138 333 178 355 216 356 c 0
 245 356 275 347 306 329 c 0
 336 312 362 288 384 256 c 0
 403 227 414 200 418 174 c 0
 394 204 l 0
 376 226 361 242 347 254 c 0
 307 288 283 307 273 312 c 0
 255 320 236 324 215 325 c 0
 183 325 153 310 125 279 c 0
 91 243 74 196 74 137 c 0
 74 115 90 91 124 63 c 0
 171 35 l 0
EndSplineSet
Comment: "classes: cVowelPre"
EndChar

StartChar: u1A76
Encoding: 71 6774 71
Width: 0
VWidth: 0
Flags: HW
AnchorPoint: "UD" -208.5 416 mark 0
AnchorPoint: "UD" -208.5 562 basemark 0
AnchorPoint: "U" -208.5 416 mark 0
LayerCount: 2
Fore
SplineSet
12 551 m 4
 12 557 l 4
 -237 429 l 4
 -265 447 l 4
 -237 397 l 4
 12 551 l 4
EndSplineSet
Comment: "classes: cTone"
EndChar

StartChar: u1A41
Encoding: 72 6721 72
Width: 468
VWidth: 0
Flags: HW
AnchorPoint: "UR" 359 416 basechar 0
AnchorPoint: "LR" 409 0 basechar 0
AnchorPoint: "U" 229.5 416 basechar 0
AnchorPoint: "L" 229.5 0 basechar 0
LayerCount: 2
Fore
SplineSet
133 83 m 0
 133 95 128 105 118 114 c 0
 109 122 99 126 88 127 c 0
 74 127 63 123 53 114 c 0
 44 106 40 95 39 79 c 0
 42 62 l 0
 48 38 59 22 76 13 c 0
 80 11 87 8 99 4 c 0
 110 2 123 1 140 0 c 0
 178 0 212 15 243 46 c 0
 274 76 289 112 290 155 c 0
 289 171 l 0
 285 213 265 242 229 259 c 0
 220 263 209 266 194 268 c 0
 158 271 l 0
 142 271 133 270 131 267 c 0
 135 280 140 290 146 297 c 0
 164 317 194 327 236 327 c 0
 274 327 304 316 328 292 c 0
 345 274 361 244 378 201 c 0
 399 129 l 0
 409 76 l 0
 410 69 l 0
 412 66 l 0
 412 84 l 0
 412 110 l 0
 412 128 l 0
 412 132 412 136 412 142 c 0
 411 148 411 152 410 156 c 0
 410 167 408 181 402 199 c 0
 390 248 373 285 351 310 c 0
 325 340 291 355 248 356 c 0
 216 356 190 352 168 342 c 0
 148 333 129 316 110 290 c 0
 103 281 98 268 93 249 c 0
 91 238 l 0
 105 239 l 0
 126 240 l 0
 131 240 136 240 143 240 c 0
 149 240 158 239 171 236 c 0
 187 234 201 230 213 224 c 0
 225 218 234 210 240 198 c 0
 246 187 251 173 256 154 c 0
 258 138 l 0
 258 110 247 84 223 59 c 0
 200 36 175 25 146 24 c 0
 131 24 120 25 112 27 c 0
 105 29 97 34 88 44 c 0
 103 44 114 47 122 53 c 0
 129 59 132 69 133 83 c 0
78 58 m 0
 72 68 69 77 69 86 c 0
 69 100 74 107 84 109 c 0
 92 105 l 0
 96 103 99 100 101 96 c 0
 104 84 l 0
 104 79 100 73 92 64 c 0
 85 58 81 56 78 58 c 0
EndSplineSet
Comment: "classes: cConsNarrow"
EndChar

StartChar: u1A75
Encoding: 73 6773 73
Width: 0
VWidth: 0
Flags: HW
AnchorPoint: "UD" -208.5 416 mark 0
AnchorPoint: "UD" -208.5 562 basemark 0
AnchorPoint: "U" -208.5 416 mark 0
LayerCount: 2
Fore
SplineSet
-207 416 m 0
 -213 416 l 0
 -241 528 l 0
 -237 532 -234 535 -230 537 c 0
 -210 543 l 0
 -197 543 -186 538 -176 528 c 0
 -207 416 l 0
EndSplineSet
Comment: "classes: cTone"
EndChar

StartChar: u1A63
Encoding: 74 6755 74
Width: 387
VWidth: 0
Flags: HW
AnchorPoint: "UR" 338 416 basechar 0
AnchorPoint: "LR" 338 0 basechar 0
AnchorPoint: "U" 178.5 416 basechar 0
AnchorPoint: "L" 178.5 0 basechar 0
LayerCount: 2
Fore
SplineSet
202 82 m 0
 269 112 l 0
 289 125 299 147 299 178 c 0
 299 198 l 0
 299 205 299 212 297 221 c 0
 297 228 294 237 288 250 c 0
 278 272 263 289 241 302 c 0
 221 315 200 321 178 322 c 0
 152 322 129 315 107 301 c 0
 80 276 l 0
 76 258 l 0
 76 254 76 252 78 250 c 0
 94 244 102 234 102 219 c 0
 102 213 100 207 95 200 c 0
 91 194 86 191 78 191 c 0
 72 191 65 194 56 200 c 0
 48 206 44 211 42 216 c 0
 41 226 l 0
 41 237 l 0
 41 249 42 259 44 269 c 0
 46 277 51 284 60 291 c 0
 126 336 l 0
 149 349 167 355 180 356 c 0
 212 356 242 347 271 327 c 0
 296 310 315 289 328 262 c 0
 335 242 l 0
 337 221 l 0
 336 184 l 0
 336 158 331 138 320 122 c 0
 305 103 270 81 214 54 c 0
 177 40 l 0
 155 32 144 27 142 24 c 0
 149 22 l 0
 155 23 164 27 178 36 c 0
 184 39 196 42 214 46 c 0
 224 46 l 0
 172 11 l 0
 158 3 148 0 141 1 c 0
 134 3 128 6 123 11 c 0
 115 17 111 24 111 32 c 0
 125 48 l 0
 140 60 l 0
 174 70 l 0
 181 72 190 76 202 82 c 0
EndSplineSet
Comment: "classes: cVowelSpace"
EndChar

StartChar: u1A48
Encoding: 75 6728 75
Width: 657
VWidth: 0
Flags: HW
AnchorPoint: "UR" 608 416 basechar 0
AnchorPoint: "LR" 608 0 basechar 0
AnchorPoint: "U" 318.5 416 basechar 0
AnchorPoint: "L" 318.5 0 basechar 0
LayerCount: 2
Fore
SplineSet
81 127 m 0
 79 125 78 123 76 120 c 0
 76 110 l 0
 76 106 79 102 85 98 c 0
 91 94 97 92 103 92 c 0
 107 92 110 94 112 100 c 0
 114 105 114 111 113 120 c 0
 113 123 108 125 98 128 c 0
 81 127 l 0
609 165 m 0
 609 132 597 98 572 63 c 0
 543 22 509 2 469 1 c 0
 430 1 392 16 355 47 c 0
 323 74 307 98 306 119 c 0
 306 130 308 139 312 148 c 0
 316 154 320 157 325 158 c 0
 331 158 334 153 336 142 c 0
 336 122 l 0
 337 110 l 0
 347 91 l 0
 355 73 370 58 393 46 c 0
 415 35 437 30 460 29 c 0
 483 29 507 43 532 71 c 0
 557 99 569 131 570 169 c 0
 570 199 554 228 520 257 c 0
 488 285 457 299 425 300 c 0
 409 301 l 0
 382 332 l 0
 400 348 419 356 440 356 c 0
 452 356 465 352 481 343 c 0
 486 341 493 337 503 329 c 0
 513 323 521 317 527 311 c 0
 512 315 l 0
 448 337 l 0
 442 339 435 339 427 336 c 0
 422 332 l 0
 436 332 451 330 467 326 c 0
 483 322 499 315 515 305 c 0
 540 289 562 267 581 237 c 0
 599 209 608 185 609 165 c 0
347 170 m 0
 347 134 332 98 300 60 c 0
 266 20 229 0 189 -1 c 0
 151 -1 116 14 84 44 c 0
 59 68 47 91 46 115 c 0
 46 127 51 136 61 142 c 0
 71 148 83 151 99 151 c 0
 111 151 121 148 130 142 c 0
 138 137 142 129 143 117 c 0
 143 107 140 97 133 86 c 0
 121 71 l 0
 111 69 l 0
 103 69 l 0
 99 70 l 0
 107 54 118 43 133 36 c 0
 147 31 164 29 186 28 c 0
 214 28 241 44 269 76 c 0
 295 108 308 140 309 172 c 0
 309 202 299 230 278 256 c 0
 258 282 233 298 203 305 c 0
 170 302 l 0
 140 299 l 0
 129 301 118 310 105 327 c 0
 105 331 109 336 118 343 c 0
 127 348 137 352 149 356 c 0
 161 358 184 353 219 340 c 0
 236 334 248 327 256 319 c 0
 218 329 l 0
 204 332 194 334 188 336 c 0
 172 340 161 342 154 342 c 0
 151 342 147 340 141 336 c 0
 139 332 l 0
 144 324 l 0
 173 326 l 0
 199 329 l 0
 209 329 l 0
 219 327 l 0
 250 321 279 301 306 266 c 0
 333 232 346 200 347 170 c 0
EndSplineSet
Comment: "classes: cConsWide"
EndChar

StartChar: u1A34
Encoding: 76 6708 76
Width: 588
VWidth: 0
Flags: HW
AnchorPoint: "UR" 499 416 basechar 0
AnchorPoint: "LR" 529 0 basechar 0
AnchorPoint: "U" 279.5 416 basechar 0
AnchorPoint: "L" 282.5 0 basechar 0
LayerCount: 2
Fore
SplineSet
230 225 m 0
 228 223 228 218 230 210 c 0
 230 204 233 199 239 195 c 0
 245 191 251 189 259 187 c 0
 263 188 266 189 268 191 c 0
 272 195 274 200 276 207 c 0
 276 215 270 222 258 228 c 0
 253 231 248 232 242 233 c 0
 238 233 234 231 230 225 c 0
260 255 m 0
 281 244 l 0
 295 236 303 227 305 217 c 0
 307 202 305 190 297 180 c 0
 291 171 283 166 271 165 c 0
 253 165 237 171 221 183 c 0
 207 195 200 210 200 230 c 0
 200 248 213 263 240 275 c 0
 268 286 297 291 329 292 c 0
 359 292 387 283 413 263 c 0
 437 247 449 226 450 200 c 0
 450 184 445 170 433 157 c 0
 416 144 l 0
 432 140 444 131 454 117 c 0
 462 103 466 88 466 72 c 0
 466 38 441 16 389 6 c 0
 361 1 313 -1 243 -2 c 0
 190 -2 149 6 118 24 c 0
 82 45 64 78 63 124 c 0
 63 227 l 0
 63 258 76 285 104 308 c 0
 132 331 165 345 203 351 c 0
 226 353 l 0
 262 354 l 0
 313 353 l 0
 360 352 l 0
 388 352 413 348 435 339 c 0
 456 331 476 316 496 294 c 0
 509 280 519 256 526 222 c 0
 528 208 530 193 533 176 c 0
 535 160 536 147 536 135 c 0
 536 129 536 125 535 123 c 0
 535 122 535 121 533 120 c 0
 529 131 l 0
 515 198 l 0
 506 229 493 253 474 271 c 0
 458 288 441 300 423 307 c 0
 415 310 408 312 401 314 c 0
 395 315 384 317 366 321 c 0
 311 328 l 0
 262 330 l 0
 227 328 l 0
 212 328 202 328 196 326 c 0
 162 324 138 316 122 300 c 0
 107 286 100 262 99 227 c 0
 100 119 l 0
 100 81 114 55 144 39 c 0
 166 28 199 23 244 22 c 0
 269 22 l 0
 318 22 354 24 377 29 c 0
 416 36 435 50 436 71 c 0
 436 86 425 102 403 121 c 0
 359 147 l 0
 363 148 368 150 375 153 c 0
 381 155 386 157 392 161 c 0
 414 173 425 187 425 205 c 0
 425 217 414 230 392 245 c 0
 370 260 348 267 326 268 c 0
 312 268 301 268 292 266 c 0
 282 266 272 263 260 255 c 0
EndSplineSet
Comment: "classes: cConsNarrow"
EndChar

StartChar: u1A68
Encoding: 77 6760 77
Width: 0
VWidth: 0
Flags: HW
AnchorPoint: "URD" -104 588 basemark 0
AnchorPoint: "UD" -259.5 416 mark 0
AnchorPoint: "UD" -268.5 562 basemark 0
AnchorPoint: "U" -259.5 416 mark 0
LayerCount: 2
Fore
SplineSet
-144 444 m 0
 -151 437 l 0
 -157 429 -158 423 -154 419 c 0
 -148 416 l 0
 -145 418 -143 419 -142 421 c 0
 -140 431 l 0
 -140 438 l 0
 -144 444 l 0
-171 480 m 0
 -160 470 l 0
 -169 463 l 0
 -181 451 -187 442 -187 435 c 0
 -187 424 -182 415 -172 407 c 0
 -143 389 l 0
 -137 387 -130 391 -120 401 c 0
 -105 416 l 0
 -109 445 l 0
 -118 472 l 0
 -108 482 l 0
 -96 504 l 0
 -90 514 -87 521 -87 525 c 0
 -87 538 l 0
 -87 540 -88 543 -90 548 c 0
 -93 555 -94 558 -94 559 c 0
 -101 569 l 0
 -104 546 l 0
 -106 535 -109 526 -113 518 c 0
 -118 509 -123 503 -128 499 c 0
 -134 495 l 0
 -144 504 l 4
 -164 523 -204 538 -226 540 c 0
 -248.26884908 542.024440825 -269 546 -289 546 c 0
 -302 546 -323 537 -353 519 c 0
 -384 501 -399 487 -399 476 c 0
 -398 453 -392 433 -379 415 c 0
 -366 397 -349 388 -328 388 c 0
 -323 388 -312 395 -294 409 c 0
 -276 426 -267 435 -267 438 c 0
 -267 451 -271 463 -279 475 c 0
 -287 488 -295 494 -303 494 c 0
 -312 490 l 0
 -330 473 l 0
 -340 460 l 0
 -342 451 -339 443 -331 435 c 0
 -323 427 -317 423 -311 421 c 0
 -322 417 l 0
 -331 415 l 0
 -343 416 -352 423 -360 436 c 0
 -370 450 -374 464 -374 479 c 0
 -374 495 -366 504 -350 508 c 0
 -333 513 -312 515 -286 515 c 0
 -268 514 -255 513 -246 511 c 0
 -236 508 -227 506 -219 503 c 0
 -208.91542613 499.218284799 -186 493 -171 480 c 0
-316 468 m 0
 -320 459 l 0
 -320 455 -318 451 -314 445 c 0
 -307 437 -302 433 -298 433 c 0
 -291 437 l 0
 -287 441 -288 448 -296 458 c 0
 -304 468 -310 471 -316 468 c 0
EndSplineSet
Comment: "classes: cVowelUDia"
EndChar

StartChar: u1A36
Encoding: 78 6710 78
Width: 564
VWidth: 0
Flags: HW
AnchorPoint: "UR" 493 416 basechar 0
AnchorPoint: "LR" 625 -121 basechar 0
AnchorPoint: "U" 275.5 416 basechar 0
AnchorPoint: "L" 275.5 0 basechar 0
LayerCount: 2
Fore
SplineSet
299 241 m 0
 305 253 310 260 316 262 c 0
 322 264 328 263 335 257 c 0
 342 253 345 249 346 243 c 0
 340 231 l 0
 338 227 337 223 336 217 c 0
 338 201 344 189 356 180 c 0
 367 173 380 170 396 169 c 0
 413 169 428 176 442 190 c 0
 456 204 463 222 463 244 c 0
 463 280 441 305 396 319 c 0
 365 327 321 331 262 332 c 0
 217 332 176 326 138 313 c 0
 102 301 84 288 83 272 c 0
 83 27 l 0
 148 32 l 0
 267 37 l 0
 342 37 394 34 425 28 c 0
 477 18 522 -7 560 -47 c 0
 580 -69 599 -104 617 -154 c 0
 631 -196 638 -225 639 -242 c 0
 636 -245 l 0
 626 -224 l 0
 611 -181 l 0
 609 -177 606 -170 602 -160 c 0
 598 -152 594 -144 589 -136 c 0
 581 -122 572 -109 562 -97 c 0
 553 -87 541 -75 524 -60 c 0
 492 -34 451 -15 400 -3 c 0
 385 0 368 2 347 5 c 0
 328 7 308 8 285 8 c 0
 165 5 l 0
 43 0 l 0
 43 278 l 0
 43 288 57 301 87 319 c 0
 117 336 148 346 180 351 c 0
 253 355 l 0
 299 354 l 0
 349 353 l 0
 384 353 416 343 446 323 c 0
 475 304 489 278 490 245 c 0
 490 215 481 193 461 177 c 0
 443 163 419 156 388 155 c 0
 371 155 356 159 342 167 c 0
 330 175 321 184 315 196 c 0
 312 208 l 0
 310 221 l 0
 307 217 306 214 305 211 c 0
 309 192 l 0
 311 185 316 178 324 169 c 0
 331 164 341 159 355 153 c 0
 327 161 310 170 303 182 c 0
 297 193 294 204 293 216 c 0
 293 222 295 230 299 241 c 0
EndSplineSet
Comment: "classes: cConsNarrow"
EndChar

StartChar: u1A3F
Encoding: 79 6719 79
Width: 594
VWidth: 0
Flags: HW
AnchorPoint: "UR" 555 416 basechar 0
AnchorPoint: "LR" 555 0 basechar 0
AnchorPoint: "U" 295.5 416 basechar 0
AnchorPoint: "L" 300.5 0 basechar 0
LayerCount: 2
Fore
SplineSet
325 136 m 0
 337 107 348 86 360 71 c 0
 378 47 398 35 422 34 c 0
 442 34 463 44 485 64 c 0
 513 90 527 123 527 165 c 0
 527 197 515 229 490 261 c 0
 471 286 453 300 436 305 c 0
 447 323 l 0
 477 348 l 0
 479 350 482 351 487 353 c 0
 494 350 l 0
 502 346 l 0
 516 340 527 328 535 309 c 0
 543 291 546 279 544 271 c 0
 531 283 l 0
 508 316 l 0
 507 318 504 319 499 321 c 0
 495 321 492 319 490 315 c 0
 500 304 l 0
 515 289 l 0
 528 272 l 0
 540 254 548 235 552 215 c 0
 558 165 l 0
 558 130 541 95 506 59 c 0
 472 24 442 7 414 6 c 0
 386 6 362 15 340 35 c 0
 320 60 306 76 297 83 c 0
 318 123 l 0
 325 136 l 0
86 310 m 0
 91 292 97 283 106 283 c 0
 115 283 121 286 126 292 c 0
 122 311 l 0
 120 321 116 326 108 327 c 0
 102 327 97 326 92 323 c 0
 88 321 86 317 86 310 c 0
91 255 m 0
 87 255 80 262 69 277 c 0
 61 289 57 300 55 310 c 0
 58 318 l 0
 60 320 64 323 71 329 c 0
 77 333 83 337 90 342 c 0
 102 350 112 354 120 356 c 0
 132 356 144 346 156 325 c 0
 168 305 174 286 174 266 c 0
 174 253 160 237 131 218 c 0
 103 200 89 180 88 157 c 0
 88 124 99 93 123 63 c 0
 144 37 164 24 185 23 c 0
 198 23 218 35 247 61 c 0
 275 86 289 109 289 130 c 0
 289 258 l 0
 289 267 284 277 274 289 c 0
 247 312 l 0
 237 313 l 0
 235 315 234 317 233 320 c 0
 233 325 242 333 262 345 c 0
 282 356 294 359 300 356 c 0
 304 351 308 345 313 337 c 0
 317 331 321 325 325 317 c 0
 333 301 336 292 335 290 c 0
 333 288 330 289 326 293 c 0
 302 326 l 0
 301 327 298 328 293 330 c 0
 291 328 290 327 289 325 c 0
 298 313 l 0
 315 294 l 0
 318 292 320 290 322 287 c 0
 322 286 322 285 323 284 c 0
 323 134 l 0
 323 110 306 82 270 48 c 0
 238 17 211 2 187 1 c 0
 155 1 125 16 95 48 c 0
 67 79 53 115 52 157 c 0
 52 175 63 192 87 210 c 0
 142 250 l 0
 144 252 145 256 146 262 c 0
 146 267 146 271 144 274 c 0
 140 278 l 0
 125 261 109 254 91 255 c 0
EndSplineSet
Comment: "classes: cConsWide"
EndChar

StartChar: u1A7B
Encoding: 80 6779 80
Width: 0
VWidth: 0
Flags: HW
AnchorPoint: "URD" -184 763 basemark 0
AnchorPoint: "URD" -184 416 mark 0
AnchorPoint: "UR" -183 416 mark 0
LayerCount: 2
Fore
SplineSet
-192 588 m 4
 -192 576 l 4
 -187 491 l 4
 -187 482 -186 475 -182 469 c 4
 -175 448 -162 438 -141 437 c 4
 -133 437 -127 437 -122 439 c 4
 -117 440 -113 441 -110 444 c 4
 -103 449 -100 456 -99 466 c 4
 -99 469 -101 472 -105 477 c 4
 -109 481 -114 484 -121 486 c 4
 -126 486 -131 484 -136 478 c 4
 -139 467 l 4
 -141 444 l 4
 -147 444 l 4
 -150 447 -153 451 -156 458 c 4
 -160 477 l 4
 -160 485 -157 492 -149 499 c 4
 -141 505 -131 508 -119 508 c 4
 -105 508 -94 505 -86 497 c 4
 -78 490 -74 480 -73 466 c 4
 -73 450 -80 436 -94 424 c 4
 -106 418 -121 415 -141 414 c 4
 -168 414 -187 425 -200 448 c 4
 -207 464 -210 484 -211 509 c 4
 -213 578 l 4
 -213 588 l 4
 -213 621 -204 649 -185 672 c 4
 -176 683 -152 699 -112 722 c 4
 -76 740 -46 753 -20 763 c 4
 -82 724 l 4
 -105 711 l 4
 -115 707 l 4
 -136 692 l 4
 -151 681 l 4
 -160 672 l 4
 -172 662 -180 650 -185 636 c 4
 -189 623 -191 607 -192 588 c 4
EndSplineSet
Comment: "classes: CMiscDia"
EndChar

StartChar: u1A3B
Encoding: 81 6715 81
Width: 538
VWidth: 0
Flags: HW
AnchorPoint: "UR" 499 416 basechar 0
AnchorPoint: "LR" 499 0 basechar 0
AnchorPoint: "U" 279.5 416 basechar 0
AnchorPoint: "L" 299.5 0 basechar 0
LayerCount: 2
Fore
SplineSet
189 110 m 0
 206 112 220 107 233 95 c 0
 243 83 248 68 249 48 c 0
 249 36 241 25 223 14 c 0
 207 4 192 -1 176 -2 c 0
 134 -2 103 16 81 54 c 0
 65 85 57 126 56 178 c 0
 56 217 69 256 96 296 c 0
 123 336 156 356 195 356 c 0
 206 356 219 352 235 344 c 0
 276 317 l 0
 289 327 303 336 319 344 c 0
 334 352 348 356 361 356 c 0
 403 356 437 340 463 307 c 0
 489 275 502 233 502 179 c 0
 502 146 499 119 493 98 c 0
 488 78 479 61 465 45 c 0
 462 42 455 38 443 32 c 0
 414 20 l 0
 406 16 l 0
 398 15 l 0
 433 28 l 0
 458 35 l 0
 477 37 l 0
 454 13 l 0
 442 3 426 -2 405 -2 c 0
 391 -2 381 -1 375 3 c 0
 370 6 363 15 354 30 c 0
 358 40 362 46 367 48 c 0
 372 50 380 52 391 54 c 0
 402 54 410 55 417 57 c 0
 431 63 442 72 451 86 c 0
 459 99 463 121 464 153 c 0
 464 174 l 0
 464 221 451 260 425 293 c 0
 403 319 380 332 356 332 c 0
 348 332 336 327 319 315 c 0
 268 280 l 0
 225 312 l 0
 212 321 200 326 188 328 c 0
 165 328 144 316 123 292 c 0
 101 264 90 227 90 180 c 0
 90 145 93 116 100 92 c 0
 106 69 119 52 141 41 c 0
 142 49 143 56 146 62 c 0
 148 68 152 75 158 85 c 0
 168 99 178 107 189 110 c 0
166 33 m 0
 192 31 l 0
 208 31 215 37 213 49 c 0
 211 63 206 70 196 71 c 0
 185 66 l 0
 181 64 177 60 173 54 c 0
 166 33 l 0
EndSplineSet
Comment: "classes: cConsNarrow"
EndChar

StartChar: u1A49
Encoding: 82 6729 82
Width: 673
VWidth: 0
Flags: HW
AnchorPoint: "UR" 612 416 basechar 0
AnchorPoint: "LR" 612 0 basechar 0
AnchorPoint: "U" 344.5 416 basechar 0
AnchorPoint: "L" 344.5 0 basechar 0
LayerCount: 2
Fore
SplineSet
91 310 m 0
 96 292 102 283 111 283 c 0
 120 283 126 286 131 292 c 0
 127 311 l 0
 125 321 121 326 113 327 c 0
 107 327 102 326 97 323 c 0
 93 321 91 317 91 310 c 0
57 157 m 0
 57 175 68 192 92 210 c 0
 147 250 l 0
 149 252 150 256 151 262 c 0
 151 267 151 271 149 274 c 0
 145 278 l 0
 130 261 114 254 96 255 c 0
 92 255 85 262 74 277 c 0
 66 289 62 300 60 310 c 0
 63 318 l 0
 65 320 69 323 76 329 c 0
 82 333 88 337 95 342 c 0
 107 350 117 354 125 356 c 0
 137 356 149 346 162 325 c 0
 174 305 180 286 180 268 c 0
 180 256 165 240 135 219 c 0
 105 199 90 178 90 156 c 0
 90 120 100 90 122 66 c 0
 144 42 169 30 199 30 c 0
 222 30 249 45 280 76 c 0
 311 107 326 135 327 161 c 0
 323 196 l 0
 317 230 314 251 314 260 c 0
 314 272 315 281 319 289 c 0
 329 313 349 331 380 343 c 0
 404 351 429 355 456 356 c 0
 500 356 538 336 572 294 c 0
 600 258 614 219 615 177 c 0
 615 147 604 115 580 81 c 0
 557 49 531 31 500 25 c 0
 512 24 l 0
 518 24 525 26 534 30 c 0
 542 34 552 40 565 50 c 0
 569 52 574 56 580 64 c 0
 570 40 561 24 553 16 c 0
 545 10 532 5 512 0 c 0
 500 -2 l 0
 496 -2 493 -1 489 3 c 0
 479 14 l 0
 461 41 l 0
 463 43 465 44 467 46 c 0
 474 46 483 49 495 55 c 0
 529 80 l 0
 555 102 572 123 581 145 c 0
 587 187 l 0
 588 205 l 0
 588 243 574 273 546 295 c 0
 522 313 492 322 454 322 c 0
 437 322 417 318 393 309 c 0
 371 301 357 290 350 276 c 0
 348 269 346 262 344 255 c 0
 343 249 343 242 342 232 c 0
 342 215 344 198 349 179 c 0
 350 171 352 163 357 155 c 0
 357 137 354 120 346 103 c 0
 340 87 329 70 311 52 c 0
 279 18 248 1 217 0 c 0
 181 0 147 14 113 43 c 0
 76 75 58 113 57 157 c 0
EndSplineSet
Comment: "classes: cConsWide"
EndChar

StartChar: u1A61
Encoding: 83 6753 83
Width: 281
VWidth: 0
Flags: HW
LayerCount: 2
Fore
SplineSet
43 74 m 0
 43 97 52 115 72 128 c 0
 86 134 l 0
 99 138 l 0
 115 141 l 0
 134 141 l 0
 170 141 197 130 215 108 c 0
 232 89 240 65 241 36 c 0
 238 30 l 0
 230 29 l 0
 226 29 223 31 220 36 c 0
 220 52 219 64 215 74 c 0
 212 84 207 92 198 100 c 0
 184 116 163 124 134 125 c 0
 106 122 l 0
 98 121 92 119 87 115 c 0
 71 107 63 94 63 74 c 0
 63 66 65 60 69 54 c 0
 73 50 80 47 92 44 c 0
 108 46 l 0
 113 50 116 56 118 64 c 0
 105 73 l 0
 97 73 93 77 92 87 c 0
 92 93 96 96 105 96 c 0
 110 96 117 93 128 87 c 0
 135 81 138 72 139 59 c 0
 139 51 135 43 126 34 c 0
 116 28 105 25 93 24 c 0
 81 25 l 0
 77 25 73 26 68 29 c 0
 53 41 l 0
 47 49 44 60 43 74 c 0
43 267 m 0
 43 291 52 309 72 321 c 0
 99 331 l 0
 115 334 l 0
 134 335 l 0
 168 335 194 324 213 302 c 0
 231 281 240 257 241 230 c 0
 238 223 l 0
 230 221 l 0
 227 221 224 224 220 230 c 0
 220 245 219 257 215 267 c 0
 212 277 207 285 198 293 c 0
 183 309 162 317 134 318 c 0
 106 316 l 0
 98 314 92 312 87 308 c 0
 71 300 63 287 63 267 c 0
 63 259 65 253 69 247 c 0
 73 243 80 240 92 237 c 0
 108 239 l 0
 112 241 115 247 118 257 c 0
 105 267 l 0
 97 267 93 271 92 281 c 0
 92 286 96 288 105 289 c 0
 110 289 117 286 126 280 c 0
 134 274 138 265 139 253 c 0
 139 248 134 240 124 227 c 0
 116 221 106 218 92 217 c 0
 76 220 l 0
 54 227 43 242 43 267 c 0
EndSplineSet
Comment: "classes: cVowelSpace"
EndChar

StartChar: u1A66
Encoding: 84 6758 84
Width: 0
VWidth: 0
Flags: HW
AnchorPoint: "UD" -263.5 408 mark 0
AnchorPoint: "UD" -268.5 562 basemark 0
AnchorPoint: "U" -263.5 408 mark 0
LayerCount: 2
Fore
SplineSet
-165 554 m 0
 -159 548 -154 541 -150 533 c 0
 -147 526 -142 508 -134 478 c 0
 -127 434 l 0
 -126 391 l 0
 -104 412 l 0
 -104 427 l 0
 -104 438 l 0
 -107 492 l 0
 -108 503 -109 511 -110 517 c 0
 -111 522 -112 528 -115 537 c 0
 -117 545 -122 554 -131 566 c 0
 -149 561 l 0
 -165 554 l 0
-316 468 m 0
 -320 459 l 0
 -320 455 -318 451 -314 445 c 0
 -307 437 -302 433 -298 433 c 0
 -291 437 l 0
 -287 441 -288 448 -296 458 c 0
 -304 468 -310 471 -316 468 c 0
-311 421 m 0
 -317 423 -323 427 -331 435 c 0
 -339 443 -342 451 -340 460 c 0
 -330 473 l 0
 -312 490 l 0
 -303 494 l 0
 -295 494 -287 488 -279 475 c 0
 -271 463 -267 451 -267 438 c 0
 -267 435 -276 426 -294 409 c 0
 -312 395 -323 388 -328 388 c 0
 -349 388 -366 397 -379 415 c 0
 -392 433 -398 453 -399 476 c 0
 -399 487 -384 501 -353 519 c 0
 -323 537 -302 546 -289 546 c 0
 -268 546 -250 544 -234 540 c 0
 -220 537 -203 528 -183 511 c 0
 -171 501 -160 487 -150 467 c 0
 -140 449 -135 430 -135 410 c 0
 -162 386 l 0
 -164 398 -166 409 -169 420 c 0
 -171 430 -174 439 -179 447 c 0
 -186 462 -194 473 -203 482 c 0
 -212 490 -224 497 -240 504 c 0
 -255 511 -270 514 -286 515 c 0
 -312 515 -333 513 -350 508 c 0
 -366 504 -374 495 -374 479 c 0
 -374 464 -370 450 -360 436 c 0
 -352 423 -343 416 -331 415 c 0
 -322 417 l 0
 -311 421 l 0
EndSplineSet
Comment: "classes: cVowelUDia"
EndChar

StartChar: u1A4B
Encoding: 85 6731 85
Width: 530
VWidth: 0
Flags: HW
AnchorPoint: "UR" 471 416 basechar 0
AnchorPoint: "LR" 481 -40 basechar 0
AnchorPoint: "U" 231.5 416 basechar 0
AnchorPoint: "L" 257.5 -69 basechar 0
LayerCount: 2
Fore
SplineSet
526 -37 m 2
 526 -65 526 -65 513.5 -95 c 128
 501 -125 501 -125 493 -125 c 1
 491 -120 l 1
 493 -110 l 1
 499 -87 l 1
 501 -70 l 1
 502 -49 l 2
 502 -21 502 -21 492 8 c 2
 479 40 l 1
 469 57 l 1
 455 31 455 31 431 15.5 c 128
 407 0 407 0 375 0 c 2
 363 -1 l 2
 324 -1 324 -1 286 20 c 0
 252 42 252 42 252 78 c 0
 252 105 252 105 281.5 121 c 128
 311 137 311 137 346 137 c 2
 394 134 l 2
 406 134 406 134 415 130 c 2
 437 123 l 2
 449 120 449 120 467 108 c 1
 475 128 l 1
 481 154 l 1
 483 186 l 1
 482 208 l 2
 482 228 482 228 472.5 246 c 128
 463 264 463 264 442 288 c 0
 405 325 405 325 368 325 c 0
 341 325 341 325 322.5 315.5 c 128
 304 306 304 306 304 281 c 0
 304 260 304 260 312.5 247 c 128
 321 234 321 234 335 238 c 0
 347 244 347 244 348 257 c 0
 348 272 348 272 341 279 c 0
 335 284 335 284 326 275 c 2
 310 257 l 1
 304 263 l 1
 313 303 313 303 348 303 c 0
 379 303 379 303 379 252 c 0
 379 235 379 235 364 221 c 1
 347 211 347 211 330 211 c 0
 306 211 306 211 289 231 c 0
 274 251 274 251 274 281 c 256
 274 311 274 311 305.5 333.5 c 128
 337 356 337 356 377 356 c 0
 425 356 425 356 460.5 317 c 128
 496 278 496 278 507 216 c 2
 509 200 l 1
 509 184 l 2
 509 135 509 135 495 103 c 2
 488 88 l 1
 507 60 507 60 516 33.5 c 128
 525 7 525 7 525 -27 c 2
 526 -37 l 2
448 79 m 0
 448 85 448 85 417 94 c 2
 387 101 l 1
 358 104 l 1
 314 104 314 104 298 99 c 0
 276 96 276 96 276 71 c 0
 276 43 276 43 319 33 c 1
 363 30 l 2
 389 30 389 30 415.5 47 c 128
 442 64 442 64 448 79 c 0
143 190 m 1
 124 184 124 184 97 154 c 0
 77 130 77 130 74 111 c 0
 74 83 74 83 88 66 c 0
 96 55 96 55 119 40 c 1
 136 34 l 1
 162 31 l 2
 186 31 186 31 205 42 c 128
 224 53 224 53 237 87 c 0
 243 103 243 103 248 105 c 1
 250 97 l 1
 244 43 244 43 210 18 c 0
 181 -1 181 -1 145 -1 c 0
 126 -1 126 -1 104 5 c 128
 82 11 82 11 60 39 c 0
 41 69 41 69 41 104 c 0
 41 132 41 132 54 152 c 128
 67 172 67 172 97 191 c 1
 80 199 80 199 67 216 c 0
 62 223 62 223 58 231 c 0
 51 245 51 245 51 260 c 0
 51 277 51 277 53 282 c 2
 63 307 l 1
 87 354 87 354 141 354 c 0
 180 354 180 354 212 331 c 0
 244 310 244 310 244 279 c 0
 244 250 244 250 229 226 c 0
 215 209 215 209 188 209 c 0
 167 212 167 212 156 223 c 0
 144 238 144 238 144 255 c 0
 144 275 144 275 152.5 287 c 128
 161 299 161 299 174 300 c 0
 207 300 207 300 216 260 c 1
 208 255 l 1
 196 268 l 2
 187 274 187 274 180 271 c 0
 174 265 174 265 173 254 c 0
 175 243 175 243 183 236 c 2
 190 233 l 2
 198 233 198 233 204.5 247 c 128
 211 261 211 261 214 279 c 0
 214 301 214 301 195.5 312 c 128
 177 323 177 323 152 323 c 0
 132 323 132 323 115 316.5 c 128
 98 310 98 310 87 290 c 0
 81 278 81 278 81 267 c 0
 81 254 81 254 86 244 c 2
 100 223 l 2
 105 216 105 216 130 200 c 2
 143 190 l 1
EndSplineSet
Comment: "classes: cConsWide"
EndChar

StartChar: u1A71
Encoding: 86 6769 86
Width: 276
VWidth: 0
Flags: HW
LayerCount: 2
Fore
SplineSet
205 500 m 0
 228 500 l 0
 245 500 l 0
 270 500 l 0
 276 500 282 500 289 500 c 0
 297 501 303 501 307 502 c 0
 357 505 l 0
 369 505 378 507 384 511 c 0
 390 515 393 520 394 526 c 0
 394 530 393 534 390 539 c 0
 388 544 382 548 370 551 c 0
 359 554 352 556 347 557 c 0
 343 557 337 557 327 558 c 0
 301 558 275 555 247 548 c 0
 235 546 221 544 203 541 c 0
 187 539 171 538 153 538 c 0
 120 538 96 542 79 551 c 0
 64 559 38 581 1 618 c 0
 -1 620 0 623 4 629 c 0
 8 633 12 633 17 630 c 0
 33 612 52 597 76 584 c 0
 99 572 124 566 151 566 c 0
 178 566 205 569 233 576 c 0
 245 578 259 580 275 583 c 0
 291 585 306 586 321 586 c 0
 350 586 370 585 383 581 c 0
 404 575 418 563 427 544 c 0
 431 526 l 0
 431 515 425 505 412 494 c 0
 401 487 384 482 361 478 c 0
 263 466 l 0
 173 464 l 0
 158 464 147 457 138 443 c 0
 131 430 128 413 127 390 c 0
 126 178 l 0
 126 170 126 163 127 155 c 0
 127 148 128 140 132 130 c 0
 134 121 141 117 155 116 c 0
 158 110 l 0
 156 104 l 0
 123 87 l 0
 116 82 113 73 112 58 c 0
 112 46 118 39 131 36 c 0
 167 33 l 0
 180 33 190 34 197 38 c 0
 204 42 208 48 209 56 c 0
 209 66 205 71 197 71 c 0
 191 71 188 69 186 63 c 0
 190 50 l 0
 190 48 190 47 190 45 c 0
 190 44 190 43 192 40 c 0
 182 38 174 39 168 45 c 0
 164 50 162 57 160 68 c 0
 160 75 163 82 169 90 c 0
 175 97 184 100 196 101 c 0
 216 101 230 95 238 83 c 0
 242 76 244 67 245 56 c 0
 245 40 237 27 221 15 c 0
 206 5 189 0 168 -1 c 0
 142 -1 122 2 108 8 c 0
 88 16 78 32 78 56 c 0
 78 76 85 91 99 101 c 0
 120 110 l 0
 114 113 109 116 105 121 c 0
 95 133 90 152 90 178 c 0
 91 382 l 0
 91 412 106 440 137 467 c 0
 163 489 185 500 205 500 c 0
EndSplineSet
Comment: "classes: cVowelPre"
EndChar

StartChar: u1A38
Encoding: 87 6712 87
Width: 530
VWidth: 0
Flags: HW
AnchorPoint: "UR" 451 716 basechar 0
AnchorPoint: "LR" 471 0 basechar 0
AnchorPoint: "U" 211.5 416 basechar 0
AnchorPoint: "L" 265.5 0 basechar 0
LayerCount: 2
Fore
SplineSet
426 332 m 0
 423 343 420 356 415 372 c 0
 411 387 408 401 404 416 c 0
 402 430 401 443 399 455 c 0
 398 467 398 478 397 489 c 0
 397 514 400 538 406 562 c 0
 412 585 425 611 446 640 c 0
 457 654 473 661 496 662 c 0
 508 662 518 659 526 653 c 0
 534 649 539 640 542 624 c 0
 535 618 l 0
 486 632 l 0
 479 632 472 631 465 627 c 0
 459 624 452 615 443 600 c 0
 441 595 439 588 435 578 c 0
 433 569 431 563 429 558 c 0
 427 544 426 527 426 505 c 0
 426 466 l 0
 426 445 430 419 439 388 c 0
 460 316 l 0
 467 270 l 0
 469 250 470 224 470 191 c 0
 470 150 442 107 386 60 c 0
 336 20 296 0 266 -1 c 0
 226 -1 182 14 133 45 c 0
 76 81 48 122 47 169 c 0
 47 183 62 203 94 231 c 0
 133 265 l 0
 93 251 l 0
 89 252 83 258 75 271 c 0
 69 284 66 294 65 302 c 0
 65 306 66 309 69 313 c 0
 99 340 l 0
 111 350 120 355 128 356 c 0
 138 356 148 352 159 342 c 0
 169 334 174 325 176 313 c 0
 176 287 162 261 132 234 c 0
 103 208 89 185 88 165 c 0
 88 132 113 101 163 71 c 0
 204 48 238 37 265 36 c 0
 300 36 336 51 375 83 c 0
 413 114 432 145 432 176 c 0
 434 207 l 0
 434 234 l 0
 434 258 l 0
 434 264 434 270 434 277 c 0
 433 285 433 290 432 294 c 0
 432 302 432 309 430 316 c 0
 429 322 428 327 426 332 c 0
125 278 m 0
 130 282 132 291 133 305 c 0
 131 318 125 324 115 325 c 0
 110 325 105 323 100 318 c 0
 98 316 97 313 97 309 c 0
 97 305 99 299 103 290 c 0
 109 278 116 274 125 278 c 0
EndSplineSet
Comment: "classes: cConsNarrow"
EndChar

StartChar: u1A62
Encoding: 88 6754 88
Width: 0
VWidth: 0
Flags: HW
AnchorPoint: "UD" -208.5 416 mark 0
AnchorPoint: "UD" -208.5 562 basemark 0
AnchorPoint: "U" -208.5 416 mark 0
LayerCount: 2
Fore
SplineSet
29 604 m 0
 29 610 l 0
 -265 464 l 0
 -284 453 l 0
 -265 422 l 0
 29 604 l 0
EndSplineSet
Comment: "classes: cVowelUDia"
EndChar

StartChar: u1A39
Encoding: 89 6713 89
Width: 540
VWidth: 0
Flags: HW
AnchorPoint: "UR" 486 416 basechar 0
AnchorPoint: "LR" 486 0 basechar 0
AnchorPoint: "U" 271.5 416 basechar 0
AnchorPoint: "L" 281.5 0 basechar 0
LayerCount: 2
Fore
SplineSet
191 276 m 0
 194 264 l 0
 194 259 191 254 184 247 c 0
 174 239 166 235 159 233 c 0
 151 236 l 0
 147 245 l 0
 147 255 152 264 164 272 c 0
 178 276 l 0
 191 276 l 0
441 267 m 0
 415 256 l 0
 394 253 l 0
 381 255 l 0
 367 259 356 264 347 271 c 0
 339 278 336 287 338 300 c 0
 338 308 342 315 351 322 c 0
 359 328 368 331 379 332 c 0
 398 332 414 322 427 300 c 0
 429 296 433 285 441 267 c 0
185 301 m 0
 169 301 l 0
 161 301 154 300 148 297 c 0
 144 295 139 291 132 285 c 0
 122 273 117 260 116 244 c 0
 116 238 117 231 120 222 c 0
 123 214 131 210 145 210 c 0
 161 210 178 217 198 231 c 0
 217 245 226 260 227 278 c 0
 227 298 220 316 205 332 c 0
 191 348 174 356 154 356 c 0
 122 356 97 347 78 328 c 0
 60 310 51 288 51 260 c 0
 51 220 69 189 105 165 c 0
 95 159 85 149 73 135 c 0
 62 123 57 109 56 93 c 0
 56 63 64 40 82 23 c 0
 99 7 121 -1 150 -1 c 0
 183 -1 215 8 247 26 c 0
 258 32 270 41 283 54 c 0
 290 42 297 33 304 27 c 0
 324 9 349 0 380 0 c 0
 418 0 446 17 465 53 c 0
 481 83 489 121 489 169 c 0
 486 205 l 0
 475 254 l 0
 487 261 l 0
 515 285 l 0
 523 293 530 307 537 328 c 0
 548 365 l 0
 540 350 l 0
 528 330 515 314 501 301 c 0
 475 283 l 0
 466 277 l 0
 464 294 456 310 441 327 c 0
 425 346 405 355 380 356 c 0
 360 356 343 350 328 337 c 0
 314 325 307 310 307 292 c 0
 308 283 l 0
 310 269 317 257 330 246 c 0
 340 239 354 233 373 228 c 0
 389 226 l 0
 403 226 420 229 440 236 c 0
 446 238 450 239 452 241 c 0
 460 200 l 0
 462 172 l 0
 462 131 457 99 445 75 c 0
 431 43 409 27 378 27 c 0
 360 27 338 38 312 60 c 0
 283 94 l 0
 246 62 l 0
 217 40 192 29 171 29 c 0
 157 31 l 0
 140 35 127 40 117 46 c 0
 105 54 97 65 93 79 c 0
 91 91 l 0
 91 105 98 119 114 133 c 0
 124 142 138 151 158 161 c 0
 142 172 l 0
 116 192 97 212 84 234 c 0
 78 244 75 255 75 268 c 0
 75 286 80 301 91 314 c 0
 102 326 117 332 138 332 c 0
 148 332 159 327 171 317 c 0
 185 301 l 0
EndSplineSet
Comment: "classes: cConsNarrow"
EndChar

StartChar: u1A2E
Encoding: 90 6702 90
Width: 561
VWidth: 0
Flags: HW
AnchorPoint: "UR" 512 416 basechar 0
AnchorPoint: "LR" 512 -262 basechar 0
AnchorPoint: "U" 302.5 416 basechar 0
AnchorPoint: "L" 282.5 -279 basechar 0
LayerCount: 2
Fore
SplineSet
510 154 m 0
 479 222 l 0
 480 99 l 0
 481 -144 l 0
 481 -175 462 -200 423 -220 c 0
 385 -240 337 -250 279 -250 c 0
 209 -250 159 -241 128 -222 c 0
 104 -207 92 -185 92 -156 c 0
 92 -130 108 -110 142 -96 c 0
 176 -83 214 -77 257 -76 c 0
 275 -76 l 0
 292 -78 l 0
 326 -81 362 -88 402 -100 c 0
 409 -102 418 -104 429 -108 c 0
 440 -111 456 -116 477 -125 c 0
 480 -101 l 0
 381 -64 l 0
 355 -56 324 -52 286 -51 c 0
 250 -51 218 -53 190 -57 c 0
 164 -61 141 -67 120 -77 c 0
 82 -94 63 -119 63 -153 c 0
 63 -203 86 -238 132 -258 c 0
 164 -271 213 -277 281 -278 c 0
 353 -278 409 -267 449 -243 c 0
 489 -220 509 -186 510 -133 c 0
 510 154 l 0
411 320 m 0
 412 324 l 0
 417 327 l 0
 421 329 426 327 432 319 c 0
 451 299 l 0
 467 282 l 0
 480 270 l 0
 476 285 l 0
 461 315 l 0
 451 331 l 0
 446 339 440 345 432 349 c 0
 414 356 l 0
 401 359 l 0
 394 359 385 355 373 347 c 0
 369 343 362 332 352 313 c 0
 344 285 l 0
 377 281 l 0
 397 277 419 262 444 234 c 0
 468 208 480 183 480 159 c 0
 480 123 474 93 462 69 c 0
 448 41 426 27 394 27 c 0
 376 27 355 38 331 60 c 0
 304 94 l 0
 267 62 l 0
 238 40 213 29 192 29 c 0
 178 31 l 0
 161 35 148 40 138 46 c 0
 126 54 118 65 114 79 c 0
 112 94 l 0
 112 110 117 126 128 144 c 0
 136 158 144 167 152 171 c 0
 128 182 l 0
 112 192 101 206 94 224 c 0
 91 249 l 0
 91 271 97 290 109 307 c 0
 121 323 137 331 159 332 c 0
 169 332 180 327 192 317 c 0
 206 301 l 0
 190 301 l 0
 182 301 175 300 169 297 c 0
 165 295 160 291 153 285 c 0
 143 273 138 260 137 244 c 0
 141 221 l 0
 144 212 155 208 174 207 c 0
 191 207 208 213 226 225 c 0
 243 237 251 251 252 268 c 0
 252 290 244 310 228 328 c 0
 213 346 196 355 175 356 c 0
 141 356 114 345 94 322 c 0
 76 300 67 274 66 243 c 0
 66 225 69 209 76 193 c 0
 83 179 94 168 109 160 c 0
 103 154 96 146 88 134 c 0
 81 123 78 110 77 93 c 0
 77 63 85 40 103 23 c 0
 120 7 142 -1 171 -1 c 0
 205 -1 235 7 261 24 c 0
 269 28 278 36 289 49 c 0
 316 25 l 0
 327 18 339 12 353 7 c 0
 367 3 381 1 396 0 c 0
 433 0 462 16 484 48 c 0
 502 76 511 112 511 158 c 0
 511 182 504 209 489 239 c 0
 471 277 445 304 411 320 c 0
212 276 m 0
 215 264 l 0
 215 259 212 254 205 247 c 0
 195 239 187 235 180 233 c 0
 172 236 l 0
 168 245 l 0
 168 255 173 264 185 272 c 0
 199 276 l 0
 212 276 l 0
EndSplineSet
Comment: "classes: cConsNarrow"
EndChar

StartChar: u0E5B
Encoding: 91 3675 91
Width: 1289
VWidth: 0
Flags: HW
LayerCount: 2
Fore
SplineSet
434 201 m 0
 434 237 432 263 426 281 c 0
 418 311 403 326 379 327 c 0
 357 327 340 312 327 280 c 0
 315 249 309 215 309 178 c 0
 309 138 315 104 327 76 c 0
 342 42 363 25 391 24 c 0
 427 24 457 43 482 81 c 0
 501 114 510 154 511 201 c 0
 511 258 502 304 482 341 c 0
 458 385 422 407 374 408 c 0
 334 408 300 386 271 340 c 0
 258 320 248 296 239 266 c 0
 236 254 234 241 231 225 c 0
 229 211 228 196 228 178 c 0
 228 108 242 51 270 7 c 0
 298 -36 336 -57 386 -58 c 0
 420 -58 452 -49 482 -30 c 0
 512 -12 535 10 551 37 c 0
 567 64 579 96 588 133 c 0
 593 178 l 0
 620 136 l 0
 638 112 648 100 651 99 c 0
 703 201 l 0
 731 163 l 0
 759 130 l 0
 765 124 l 0
 790 151 l 0
 808 169 821 178 829 178 c 0
 846 171 l 0
 880 161 l 0
 890 160 899 162 908 169 c 0
 916 175 939 181 977 187 c 0
 975 192 l 0
 957 198 940 201 923 201 c 0
 919 201 913 199 903 195 c 0
 880 187 l 0
 872 187 864 190 856 197 c 0
 840 211 828 219 820 222 c 0
 813 218 l 0
 793 205 l 0
 770 187 l 0
 761 197 l 0
 735 229 l 0
 703 272 l 0
 695 262 l 0
 672 230 l 0
 644 187 l 0
 613 223 l 0
 555 297 l 0
 555 270 l 0
 551 236 l 0
 539 146 l 0
 535 114 518 81 487 45 c 0
 457 11 425 -6 389 -6 c 0
 379 -6 l 0
 345 -6 319 14 299 55 c 0
 287 85 281 123 280 169 c 0
 280 213 289 255 309 297 c 0
 329 338 350 358 374 359 c 0
 404 359 426 342 441 306 c 0
 452 278 457 243 458 201 c 0
 458 169 452 140 438 113 c 0
 426 86 411 73 391 72 c 0
 379 72 369 83 360 106 c 0
 352 129 348 153 348 178 c 0
 348 207 l 0
 348 215 348 221 349 225 c 0
 349 229 351 236 356 247 c 0
 360 266 367 276 379 279 c 0
 387 279 392 273 394 259 c 0
 397 225 l 0
 397 213 l 0
 396 205 l 0
 386 203 379 199 375 193 c 0
 371 188 368 180 366 169 c 0
 366 157 368 147 372 139 c 0
 376 131 384 126 396 124 c 0
 404 124 412 131 421 147 c 0
 429 163 433 181 434 201 c 0
EndSplineSet
EndChar

StartChar: u1A43.sub
Encoding: 92 -1 92
Width: 172
VWidth: 0
Flags: HW
AnchorPoint: "URD" 82 432 basemark 0
AnchorPoint: "LRD" 94 -264 basemark 0
AnchorPoint: "LD" -208.5 -297 basemark 0
AnchorPoint: "LR" 1 0 mark 0
LayerCount: 2
Fore
SplineSet
-144 -140 m 0
 -115 -195 l 0
 -101 -219 -89 -231 -78 -232 c 0
 -18 -232 25 -209 52 -163 c 0
 68 -134 76 -97 76 -50 c 0
 74 256 l 0
 74 271 70 286 62 302 c 0
 49 324 l 0
 49 325 49 326 51 327 c 0
 54 331 59 336 68 342 c 0
 80 350 88 354 94 356 c 0
 98 355 101 354 103 352 c 0
 116 338 l 0
 118 312 l 0
 118 297 121 281 127 262 c 0
 121 263 l 0
 112 272 l 0
 104 318 l 0
 102 332 l 0
 91 324 l 0
 101 292 l 0
 112 256 l 0
 110 -50 l 0
 110 -100 95 -146 65 -189 c 0
 29 -240 -20 -265 -84 -266 c 0
 -96 -266 -112 -253 -132 -226 c 0
 -138 -218 -143 -210 -149 -200 c 0
 -155 -191 -164 -176 -176 -154 c 0
 -183 -142 -188 -132 -193 -123 c 0
 -197 -116 -201 -110 -206 -104 c 0
 -219 -86 -231 -77 -244 -76 c 0
 -283 -76 -311 -83 -329 -98 c 0
 -347 -113 -356 -138 -356 -174 c 0
 -356 -200 -352 -221 -343 -237 c 0
 -335 -253 -319 -265 -295 -273 c 0
 -303 -271 -307 -263 -308 -247 c 0
 -308 -235 -305 -224 -297 -212 c 0
 -291 -202 -282 -197 -268 -196 c 0
 -252 -196 -238 -202 -225 -216 c 0
 -215 -226 -210 -234 -210 -242 c 0
 -210 -256 -217 -269 -231 -281 c 0
 -245 -293 -262 -299 -284 -300 c 0
 -316 -300 -342 -288 -363 -263 c 0
 -383 -239 -393 -210 -394 -176 c 0
 -394 -144 -380 -115 -351 -88 c 0
 -323 -62 -291 -49 -253 -49 c 0
 -242 -50 l 0
 -217 -50 -197 -59 -181 -78 c 0
 -144 -140 l 0
-250 -253 m 0
 -250 -239 -257 -232 -272 -232 c 0
 -282 -232 -287 -239 -288 -255 c 0
 -288 -263 -286 -267 -280 -269 c 0
 -275 -271 -272 -272 -269 -272 c 0
 -265 -272 -261 -271 -257 -267 c 0
 -254 -265 -252 -261 -250 -253 c 0
EndSplineSet
EndChar

StartChar: u1A20.sub
Encoding: 93 -1 93
Width: 1
VWidth: 0
Flags: HW
AnchorPoint: "LRD" -39 -299 basemark 0
AnchorPoint: "LD" -241.5 -306 basemark 0
AnchorPoint: "LD" -235.5 0 mark 0
AnchorPoint: "L" -235.5 0 mark 0
LayerCount: 2
Fore
SplineSet
-330 -218 m 0
 -317 -218 -307 -220 -298 -226 c 0
 -291 -232 -288 -241 -287 -254 c 0
 -287 -268 -292 -279 -302 -288 c 0
 -312 -297 -325 -301 -341 -302 c 0
 -370 -302 -393 -289 -411 -262 c 0
 -429 -236 -438 -207 -438 -173 c 0
 -438 -141 -427 -112 -403 -86 c 0
 -380 -61 -355 -49 -326 -48 c 0
 -294 -48 -268 -61 -248 -87 c 0
 -240 -97 -235 -107 -232 -119 c 0
 -230 -129 -229 -141 -228 -157 c 0
 -228 -291 l 0
 -241 -297 l 0
 -252 -301 l 0
 -252 -163 l 0
 -252 -141 -257 -122 -267 -106 c 0
 -279 -86 -297 -76 -323 -76 c 0
 -353 -76 -375 -81 -389 -93 c 0
 -405 -107 -413 -133 -414 -172 c 0
 -414 -197 -408 -220 -395 -241 c 0
 -383 -261 -368 -271 -350 -272 c 0
 -356 -270 -359 -264 -360 -253 c 0
 -360 -245 -358 -237 -352 -229 c 0
 -349 -223 -342 -220 -330 -218 c 0
-340 -269 m 0
 -329 -271 l 0
 -319 -271 -314 -268 -314 -260 c 0
 -314 -250 -320 -245 -333 -244 c 0
 -338 -247 l 0
 -342 -251 -344 -256 -344 -262 c 0
 -344 -266 -343 -268 -340 -269 c 0
-105 -248 m 0
 -90 -237 -80 -227 -73 -217 c 0
 -69 -211 -67 -203 -65 -192 c 0
 -66 -171 l 0
 -66 -139 -74 -115 -92 -98 c 0
 -109 -83 -131 -76 -158 -75 c 0
 -178 -75 -195 -83 -209 -101 c 0
 -223 -118 -230 -137 -230 -158 c 0
 -235 -172 l 0
 -235 -174 -236 -176 -238 -178 c 0
 -239 -180 -240 -181 -241 -182 c 0
 -243 -176 -244 -170 -244 -164 c 0
 -244 -132 -235 -105 -215 -81 c 0
 -196 -59 -174 -48 -147 -48 c 0
 -117 -48 -91 -62 -67 -90 c 0
 -48 -114 -39 -140 -38 -170 c 0
 -38 -191 -47 -213 -67 -237 c 0
 -87 -260 -107 -273 -128 -276 c 0
 -125 -279 -123 -280 -120 -281 c 0
 -118 -281 -115 -280 -111 -276 c 0
 -81 -254 l 0
 -72 -249 l 0
 -78 -264 -86 -276 -98 -286 c 0
 -110 -295 -119 -300 -125 -301 c 0
 -143 -296 l 0
 -155 -292 -162 -289 -164 -285 c 0
 -155 -273 l 0
 -139 -262 l 0
 -123 -257 l 0
 -119 -257 -113 -254 -105 -248 c 0
EndSplineSet
EndChar

StartChar: u1A21.sub
Encoding: 94 -1 94
Width: 1
VWidth: 0
Flags: HW
AnchorPoint: "LRD" -41 -337 basemark 0
AnchorPoint: "LD" -244.5 -300 basemark 0
AnchorPoint: "LD" -227.5 0 mark 0
AnchorPoint: "L" -227.5 1 mark 0
LayerCount: 2
Fore
SplineSet
-264 -226 m 0
 -297 -226 -318 -227 -328 -231 c 0
 -338 -234 -344 -238 -346 -245 c 0
 -348 -255 -339 -262 -319 -266 c 0
 -309 -268 -298 -269 -284 -271 c 0
 -272 -272 -258 -272 -241 -273 c 0
 -222 -273 l 0
 -203 -274 l 0
 -189 -274 -177 -273 -165 -270 c 0
 -155 -268 -146 -264 -136 -257 c 0
 -186 -238 l 0
 -208 -230 -234 -226 -264 -226 c 0
-88 -194 m 0
 -89 -142 l 0
 -89 -122 -95 -106 -109 -93 c 0
 -122 -82 -135 -77 -149 -76 c 0
 -159 -76 -175 -80 -199 -89 c 0
 -209 -93 -218 -95 -226 -95 c 0
 -238 -95 -254 -92 -274 -84 c 0
 -286 -80 -295 -78 -303 -78 c 0
 -324 -77 l 0
 -339 -78 l 0
 -344 -79 -348 -82 -351 -89 c 0
 -352 -96 l 0
 -353 -104 l 0
 -341 -96 l 0
 -335 -92 -329 -90 -322 -88 c 0
 -312 -88 -304 -93 -296 -105 c 0
 -292 -113 -290 -120 -290 -127 c 0
 -290 -134 -299 -142 -317 -153 c 0
 -334 -161 -346 -163 -354 -160 c 0
 -364 -154 -372 -146 -378 -134 c 0
 -384 -123 -386 -112 -384 -99 c 0
 -382 -84 -374 -72 -359 -61 c 0
 -345 -52 -329 -48 -310 -47 c 0
 -301 -47 -288 -51 -269 -59 c 0
 -252 -67 -238 -71 -226 -71 c 0
 -218 -71 -202 -66 -178 -56 c 0
 -169 -53 -159 -51 -147 -49 c 0
 -129 -49 -111 -56 -91 -71 c 0
 -73 -86 -64 -103 -63 -124 c 0
 -62 -187 l 0
 -62 -203 -65 -218 -73 -233 c 0
 -87 -255 l 0
 -71 -271 l 0
 -59 -285 -52 -298 -50 -310 c 0
 -47 -336 l 0
 -47 -355 -51 -373 -61 -392 c 0
 -63 -399 -67 -406 -75 -413 c 0
 -70 -393 l 0
 -68 -377 -67 -364 -67 -354 c 0
 -70 -328 l 0
 -78 -308 l 0
 -81 -300 -88 -291 -99 -279 c 0
 -107 -273 l 0
 -122 -283 -141 -290 -165 -295 c 0
 -190 -298 -216 -299 -244 -300 c 0
 -276 -300 -304 -297 -328 -291 c 0
 -364 -282 -382 -268 -382 -247 c 0
 -382 -239 -381 -233 -378 -229 c 0
 -366 -211 -329 -202 -266 -201 c 0
 -239 -201 -212 -204 -185 -210 c 0
 -159 -216 -134 -226 -110 -241 c 0
 -108 -240 -106 -239 -104 -237 c 0
 -103 -236 -101 -233 -97 -228 c 0
 -91 -220 -88 -209 -88 -194 c 0
-347 -122 m 0
 -347 -123 -347 -124 -345 -126 c 0
 -345 -128 -344 -130 -341 -132 c 0
 -339 -136 -337 -138 -333 -138 c 0
 -330 -138 -327 -135 -322 -127 c 0
 -320 -119 -322 -114 -330 -111 c 0
 -341 -107 -346 -110 -347 -122 c 0
EndSplineSet
EndChar

StartChar: u1AA7
Encoding: 95 6823 95
Width: 388
Flags: W
LayerCount: 2
Fore
SplineSet
202 -8 m 2
 189 -24 189 -24 180 -57 c 0
 174 -87 174 -87 174 -124 c 0
 174 -168 174 -168 267 -219 c 1
 380 -274 l 1
 336 -277 l 1
 292 -280 l 1
 232 -258 232 -258 208 -243 c 0
 124 -195 124 -195 124 -136 c 0
 124 -70 124 -70 128.5 -45 c 128
 133 -20 133 -20 156 14 c 0
 159 24 159 24 239 95 c 0
 296 149 296 149 296 194 c 0
 296 224 296 224 283 234 c 0
 275 240 275 240 256 240 c 0
 243 240 243 240 226 230 c 2
 190 209 l 1
 183 212 l 1
 175 218 l 2
 150 241 150 241 133 241 c 0
 127 241 127 241 116 232 c 0
 110 223 110 223 110 211 c 0
 110 197 110 197 113 189.5 c 128
 116 182 116 182 126 179 c 1
 137 182 l 1
 147 187 l 1
 161 187 161 187 169 176 c 0
 178 167 178 167 178 152 c 0
 178 147 178 147 157 133 c 1
 135 125 135 125 118 125 c 0
 86 125 86 125 68 150 c 1
 58 173 58 173 58 205 c 0
 58 249 58 249 67 266 c 0
 76 280 76 280 93 289 c 0
 112 296 112 296 133 296 c 0
 143 296 143 296 167 281 c 2
 190 267 l 1
 225 286 l 2
 243 295 243 295 268 295 c 0
 307 295 307 295 328.5 273 c 128
 350 251 350 251 350 216 c 0
 350 139 350 139 292 77 c 1
 202 -8 l 2
EndSplineSet
Comment: "classes: cSymbol"
EndChar

StartChar: u1A23.sub
Encoding: 96 -1 96
Width: 1
VWidth: 0
Flags: HW
AnchorPoint: "LRD" -49 -292 basemark 0
AnchorPoint: "LD" -249.5 -300 basemark 0
AnchorPoint: "LD" -247.5 0 mark 0
AnchorPoint: "L" -247.5 0 mark 0
LayerCount: 2
Fore
SplineSet
-75 -196 m 0
 -75 -172 -95 -147 -136 -120 c 0
 -177 -94 -216 -81 -253 -80 c 0
 -282 -80 -313 -93 -347 -119 c 0
 -380 -145 -396 -174 -397 -208 c 0
 -397 -215 -394 -223 -387 -233 c 0
 -381 -243 -374 -251 -365 -258 c 0
 -361 -245 -358 -237 -354 -232 c 0
 -348 -223 -340 -218 -330 -216 c 0
 -316 -216 -304 -221 -293 -232 c 0
 -285 -240 -281 -247 -281 -254 c 0
 -281 -264 -289 -275 -306 -288 c 0
 -314 -294 -323 -297 -333 -299 c 0
 -365 -299 -389 -286 -405 -260 c 0
 -410 -250 -414 -241 -417 -232 c 0
 -419 -224 -420 -215 -421 -204 c 0
 -421 -176 -403 -144 -365 -107 c 0
 -325 -69 -287 -50 -249 -49 c 0
 -192 -49 -144 -63 -103 -93 c 0
 -64 -122 -45 -154 -44 -190 c 0
 -44 -212 -48 -229 -58 -241 c 0
 -87 -267 l 0
 -103 -275 l 0
 -128 -284 l 0
 -134 -286 l 0
 -141 -288 l 0
 -99 -273 l 0
 -83 -270 l 0
 -80 -270 -78 -272 -75 -278 c 0
 -142 -300 l 0
 -152 -300 -160 -298 -166 -293 c 0
 -171 -290 -177 -283 -185 -272 c 0
 -181 -262 -173 -256 -159 -253 c 0
 -123 -248 l 0
 -106 -242 -94 -235 -85 -226 c 0
 -79 -218 -76 -208 -75 -196 c 0
-349 -270 m 0
 -342 -274 l 0
 -331 -275 l 0
 -318 -275 -313 -271 -314 -261 c 0
 -316 -255 -322 -252 -332 -252 c 0
 -336 -252 -340 -255 -345 -261 c 0
 -349 -270 l 0
EndSplineSet
EndChar

StartChar: u1A53
Encoding: 97 6739 97
Width: 615
VWidth: 0
Flags: HW
AnchorPoint: "UR" 576 520 basechar 0
AnchorPoint: "LR" 576 0 basechar 0
AnchorPoint: "U" 333 481 basechar 0
AnchorPoint: "L" 332 0 basechar 0
LayerCount: 2
Fore
SplineSet
475 382 m 0
 419 376 l 0
 301 369 l 0
 275 369 l 0
 250 371 l 0
 234 371 221 371 209 373 c 0
 198 375 187 377 176 381 c 0
 142 389 117 403 99 425 c 0
 85 442 75 460 69 480 c 0
 63 499 60 518 60 538 c 0
 61 562 l 0
 67 591 l 0
 77 624 l 0
 99 676 137 711 193 729 c 0
 215 736 236 741 258 744 c 0
 326 748 l 0
 338 748 350 748 364 748 c 0
 375 746 387 745 401 743 c 0
 414 742 432 739 455 732 c 0
 478 728 502 717 527 697 c 0
 548 681 559 669 561 661 c 0
 542 669 l 0
 506 694 473 709 443 716 c 0
 388 723 l 0
 329 726 l 0
 315 726 302 726 289 725 c 0
 277 725 262 724 244 720 c 0
 227 718 209 713 189 704 c 0
 171 696 152 680 131 655 c 0
 112 632 100 608 93 581 c 0
 89 543 l 0
 89 509 99 480 119 454 c 0
 143 426 181 409 235 402 c 0
 246 402 254 402 260 400 c 0
 280 400 l 0
 296 400 309 400 319 401 c 0
 366 404 393 405 402 406 c 0
 467 412 l 0
 467 434 470 452 477 467 c 0
 483 482 497 494 521 503 c 0
 544 507 l 0
 556 507 567 504 577 497 c 0
 586 492 591 486 594 477 c 0
 596 460 l 0
 596 448 592 437 584 427 c 0
 562 408 l 0
 552 402 540 397 526 393 c 0
 509 392 l 0
 533 332 l 0
 550 289 l 0
 563 248 l 0
 565 236 567 223 570 207 c 0
 572 193 573 181 573 169 c 0
 573 119 563 79 541 49 c 0
 517 15 481 -2 433 -3 c 0
 409 -3 387 3 366 15 c 0
 346 27 330 47 316 76 c 0
 312 88 310 102 309 118 c 0
 312 169 l 0
 316 209 l 0
 316 242 311 268 301 288 c 0
 287 315 263 328 228 329 c 0
 189 329 158 317 134 292 c 0
 112 268 101 232 100 183 c 0
 100 147 105 117 116 92 c 0
 126 68 143 52 168 42 c 0
 158 45 153 54 153 70 c 0
 153 80 156 90 162 100 c 0
 168 110 177 115 191 115 c 0
 209 117 223 113 235 102 c 0
 246 92 251 80 252 65 c 0
 252 45 246 29 233 16 c 0
 221 4 205 -2 183 -2 c 0
 151 -2 124 16 101 53 c 0
 80 89 70 131 69 181 c 0
 69 226 85 266 117 302 c 0
 149 338 185 356 225 356 c 0
 268 356 301 340 326 307 c 0
 344 281 353 248 354 208 c 0
 353 191 l 0
 345 170 l 0
 343 162 341 154 339 145 c 0
 338 138 338 130 337 119 c 0
 337 104 339 90 344 76 c 0
 349 64 361 52 381 39 c 0
 400 28 417 23 433 22 c 0
 464 22 488 36 506 66 c 0
 524 95 533 131 533 175 c 0
 533 191 l 0
 531 208 l 0
 527 246 522 273 514 290 c 0
 475 382 l 0
215 60 m 0
 215 68 214 74 212 79 c 0
 210 83 205 85 195 86 c 0
 183 86 177 78 176 60 c 0
 176 55 178 51 183 46 c 0
 198 43 l 0
 209 43 214 48 215 60 c 0
569 462 m 0
 566 470 558 474 544 474 c 0
 535 474 527 472 518 467 c 0
 511 463 506 457 501 449 c 0
 497 431 l 0
 497 423 l 0
 498 420 l 0
 516 420 532 425 548 436 c 0
 564 447 l 0
 568 450 569 455 569 462 c 0
EndSplineSet
Comment: "classes: cConsWide cConsLig"
EndChar

StartChar: u1A49_u1A36.sub
Encoding: 98 -1 98
Width: 667
VWidth: 0
Flags: HW
AnchorPoint: "UR" 602 431 basechar 0
AnchorPoint: "U" 335 427 basechar 0
AnchorPoint: "LR" 596 -247 basechar 0
AnchorPoint: "L" 312 -252 basechar 0
LayerCount: 2
Fore
SplineSet
490 -85 m 0
 483 -93 l 0
 481 -96 480 -100 480 -107 c 0
 480 -113 482 -118 488 -124 c 0
 494 -129 501 -131 509 -130 c 0
 515 -128 518 -122 518 -110 c 0
 518 -94 515 -85 508 -83 c 0
 498 -82 l 0
 490 -85 l 0
539 -87 m 0
 541 -104 l 0
 541 -114 539 -122 533 -129 c 0
 529 -135 522 -140 511 -145 c 0
 496 -147 l 0
 486 -147 477 -143 468 -135 c 0
 460 -128 456 -120 456 -111 c 0
 456 -107 456 -104 458 -101 c 0
 482 -68 l 0
 490 -58 501 -53 517 -52 c 0
 535 -52 552 -58 570 -71 c 0
 588 -84 597 -98 597 -113 c 0
 597 -169 576 -208 534 -230 c 0
 504 -246 460 -254 401 -254 c 0
 359 -254 324 -251 294 -244 c 0
 266 -238 229 -227 183 -211 c 0
 159 -203 127 -186 85 -159 c 0
 45 -133 25 -117 24 -111 c 0
 40 -117 l 0
 108 -150 l 0
 166 -175 l 0
 176 -179 187 -183 201 -188 c 0
 203 -188 210 -190 224 -194 c 0
 237 -198 250 -201 265 -205 c 0
 279 -208 298 -211 323 -214 c 0
 347 -217 375 -218 409 -219 c 0
 453 -219 489 -214 519 -204 c 0
 555 -192 573 -172 573 -143 c 0
 573 -120 568 -104 556 -94 c 0
 539 -87 l 0
91 310 m 0
 96 292 102 283 111 283 c 0
 120 283 126 286 131 292 c 0
 127 311 l 0
 125 321 121 326 113 327 c 0
 107 327 102 326 97 323 c 0
 93 321 91 317 91 310 c 0
57 157 m 0
 57 175 68 192 92 210 c 0
 147 250 l 0
 149 252 150 256 151 262 c 0
 151 267 151 271 149 274 c 0
 145 278 l 0
 130 261 114 254 96 255 c 0
 92 255 85 262 74 277 c 0
 66 289 62 300 60 310 c 0
 63 318 l 0
 65 320 69 323 76 329 c 0
 82 333 88 337 95 342 c 0
 107 350 117 354 125 356 c 0
 137 356 149 346 162 325 c 0
 174 305 180 286 180 268 c 0
 180 256 165 240 135 219 c 0
 105 199 90 178 90 156 c 0
 90 120 100 90 122 66 c 0
 144 42 169 30 199 30 c 0
 222 30 249 45 280 76 c 0
 311 107 326 135 327 161 c 0
 323 196 l 0
 317 230 314 251 314 260 c 0
 314 272 315 281 319 289 c 0
 329 313 349 331 380 343 c 0
 404 351 429 355 456 356 c 0
 500 356 538 336 572 294 c 0
 600 258 614 219 615 177 c 0
 615 147 604 115 580 81 c 0
 557 49 531 31 500 25 c 0
 512 24 l 0
 518 24 525 26 534 30 c 0
 542 34 552 40 565 50 c 0
 569 52 574 56 580 64 c 0
 570 40 561 24 553 16 c 0
 545 10 532 5 512 0 c 0
 500 -2 l 0
 496 -2 493 -1 489 3 c 0
 479 14 l 0
 461 41 l 0
 463 43 465 44 467 46 c 0
 474 46 483 49 495 55 c 0
 529 80 l 0
 555 102 572 123 581 145 c 0
 587 187 l 0
 588 205 l 0
 588 243 574 273 546 295 c 0
 522 313 492 322 454 322 c 0
 437 322 417 318 393 309 c 0
 371 301 357 290 350 276 c 0
 348 269 346 262 344 255 c 0
 343 249 343 242 342 232 c 0
 342 215 344 198 349 179 c 0
 350 171 352 163 357 155 c 0
 357 137 354 120 346 103 c 0
 340 87 329 70 311 52 c 0
 279 18 248 1 217 0 c 0
 181 0 147 14 113 43 c 0
 76 75 58 113 57 157 c 0
EndSplineSet
EndChar

StartChar: u1A26.sub
Encoding: 99 -1 99
Width: 1
VWidth: 0
Flags: HW
AnchorPoint: "LRD" -65 -369 basemark 0
AnchorPoint: "LD" -200 -303 basemark 0
AnchorPoint: "LD" -217.5 0 mark 0
AnchorPoint: "L" -217.5 0 mark 0
LayerCount: 2
Fore
SplineSet
-204 -241 m 0
 -216 -248 -222 -257 -223 -270 c 0
 -223 -278 -221 -285 -215 -291 c 0
 -211 -296 -206 -299 -200 -301 c 0
 -171 -301 -157 -289 -156 -264 c 0
 -156 -246 -161 -232 -173 -220 c 0
 -185 -211 -201 -207 -222 -206 c 0
 -232 -206 -249 -220 -274 -249 c 0
 -285 -263 -298 -270 -314 -270 c 0
 -330 -270 -343 -264 -353 -251 c 0
 -363 -239 -368 -225 -368 -209 c 0
 -368 -187 -364 -171 -354 -159 c 0
 -345 -149 -328 -139 -302 -128 c 0
 -286 -121 l 0
 -268 -110 l 0
 -262 -107 -259 -102 -259 -93 c 0
 -259 -87 -261 -82 -266 -76 c 0
 -272 -76 -277 -76 -282 -77 c 0
 -290 -80 l 0
 -288 -91 l 0
 -288 -95 -289 -98 -293 -102 c 0
 -316 -111 l 0
 -342 -117 -362 -127 -376 -143 c 0
 -390 -159 -397 -182 -397 -213 c 0
 -397 -236 -390 -256 -374 -274 c 0
 -359 -292 -339 -301 -312 -301 c 0
 -292 -301 -274 -290 -258 -266 c 0
 -243 -244 -231 -232 -221 -230 c 0
 -208 -230 -198 -233 -189 -239 c 0
 -183 -245 -180 -251 -179 -259 c 0
 -179 -269 -183 -275 -192 -277 c 0
 -198 -277 -201 -274 -202 -268 c 0
 -202 -262 -200 -258 -194 -254 c 0
 -194 -251 -194 -249 -196 -246 c 0
 -197 -245 -199 -244 -204 -241 c 0
-288 -87 m 0
 -278 -83 l 0
 -265 -78 l 0
 -250 -74 -236 -72 -223 -72 c 0
 -207 -72 -184 -76 -153 -84 c 0
 -131 -90 -113 -106 -98 -133 c 0
 -86 -157 -80 -179 -79 -201 c 0
 -79 -213 l 0
 -79 -242 -80 -264 -84 -279 c 0
 -88 -294 -94 -311 -104 -330 c 0
 -113 -348 -124 -367 -139 -387 c 0
 -132 -383 l 0
 -126 -377 -120 -371 -113 -365 c 0
 -105 -357 -98 -350 -92 -342 c 0
 -74 -316 -62 -290 -56 -263 c 0
 -53 -245 -52 -220 -51 -187 c 0
 -51 -163 -58 -138 -73 -111 c 0
 -87 -85 -109 -67 -139 -57 c 0
 -171 -50 l 0
 -205 -48 l 0
 -226 -48 -246 -50 -266 -54 c 0
 -286 -58 -296 -61 -296 -65 c 0
 -289 -78 l 0
 -287 -80 -287 -83 -288 -87 c 0
EndSplineSet
EndChar

StartChar: u1A27.sub
Encoding: 100 -1 100
Width: 1
VWidth: 0
Flags: HW
AnchorPoint: "LRD" -47 -295 basemark 0
AnchorPoint: "LD" -177.5 -302 basemark 0
AnchorPoint: "LD" -177.5 0 mark 0
AnchorPoint: "L" -177.5 0 mark 0
LayerCount: 2
Fore
SplineSet
-293 -217 m 4
 -264 -249 l 4
 -250 -262 -235 -270 -219 -274 c 4
 -204 -278 -191 -280 -179 -280 c 4
 -151 -280 -127 -274 -106 -260 c 4
 -94 -253 -85 -242 -79 -227 c 4
 -74 -213 -72 -198 -71 -180 c 4
 -71 -163 -74 -149 -80 -137 c 4
 -86 -126 -95 -116 -109 -107 c 4
 -116 -103 -122 -99 -129 -95 c 4
 -135 -92 -144 -88 -157 -83 c 4
 -169 -79 -184 -77 -202 -76 c 4
 -222 -76 -241 -80 -259 -89 c 4
 -277 -97 -291 -108 -301 -124 c 4
 -286 -124 l 4
 -279 -124 -270 -130 -257 -142 c 4
 -247 -157 l 4
 -246 -171 l 4
 -246 -177 -251 -185 -262 -195 c 4
 -272 -205 -282 -212 -293 -217 c 4
-323 -224 m 4
 -297 -209 l 4
 -282 -196 l 4
 -276 -190 -273 -184 -273 -176 c 4
 -273 -170 -276 -165 -283 -160 c 4
 -290 -156 -299 -153 -312 -151 c 4
 -316 -151 -319 -151 -323 -150 c 4
 -326 -150 -328 -149 -331 -147 c 4
 -326 -136 l 4
 -318 -120 -303 -103 -281 -85 c 4
 -253 -63 -224 -52 -194 -51 c 4
 -182 -51 -173 -51 -166 -52 c 4
 -160 -52 -151 -54 -138 -59 c 4
 -126 -63 -111 -70 -93 -82 c 4
 -77 -93 -65 -106 -56 -123 c 4
 -48 -139 -44 -155 -44 -171 c 4
 -44 -192 -47 -211 -54 -228 c 4
 -61 -245 -72 -258 -87 -269 c 4
 -101 -279 -117 -287 -136 -293 c 4
 -144 -295 -153 -296 -163 -298 c 4
 -172 -299 -182 -299 -194 -300 c 4
 -201 -300 -208 -300 -216 -300 c 4
 -224 -298 -232 -297 -242 -295 c 4
 -250 -294 -259 -290 -271 -282 c 4
 -283 -276 -297 -262 -313 -240 c 4
 -323 -224 l 4
EndSplineSet
EndChar

StartChar: u1A29.sub
Encoding: 101 -1 101
Width: 1
VWidth: 0
Flags: HW
AnchorPoint: "LRD" -64 -314 basemark 0
AnchorPoint: "LD" -233.5 -302 basemark 0
AnchorPoint: "LD" -237.5 0 mark 0
AnchorPoint: "L" -237.5 0 mark 0
LayerCount: 2
Fore
SplineSet
-112 -199 m 0
 -129 -173 -140 -158 -147 -154 c 0
 -170 -134 -201 -124 -242 -124 c 0
 -251 -124 -259 -126 -268 -132 c 0
 -287 -150 l 0
 -312 -175 l 0
 -317 -181 -318 -186 -315 -190 c 0
 -303 -200 -292 -205 -282 -205 c 0
 -276 -205 -270 -203 -262 -198 c 0
 -256 -194 -251 -188 -245 -178 c 0
 -241 -170 -240 -163 -240 -156 c 0
 -213 -159 l 0
 -204 -160 -198 -161 -193 -164 c 0
 -177 -172 -164 -181 -154 -192 c 0
 -152 -194 -148 -198 -142 -206 c 0
 -137 -214 -132 -222 -125 -231 c 0
 -116 -243 -109 -265 -102 -297 c 0
 -88 -381 l 0
 -85 -356 l 0
 -84 -332 l 0
 -84 -316 -84 -304 -85 -295 c 0
 -85 -287 -87 -273 -91 -252 c 0
 -95 -232 -102 -215 -112 -199 c 0
-245 -242 m 0
 -256 -248 -261 -256 -262 -268 c 0
 -262 -275 -259 -282 -253 -289 c 0
 -248 -296 -242 -300 -234 -302 c 0
 -223 -302 -214 -299 -205 -292 c 0
 -198 -286 -195 -277 -194 -265 c 0
 -194 -246 -199 -232 -211 -223 c 0
 -222 -215 -238 -211 -261 -211 c 0
 -273 -211 -284 -217 -296 -229 c 0
 -320 -257 -339 -271 -354 -271 c 0
 -370 -271 -383 -265 -393 -252 c 0
 -403 -240 -408 -225 -408 -207 c 0
 -408 -189 -405 -175 -398 -164 c 0
 -389 -149 -370 -138 -341 -129 c 0
 -335 -128 -329 -126 -321 -121 c 0
 -307 -114 l 0
 -301 -111 -298 -106 -298 -97 c 0
 -298 -91 -300 -84 -306 -76 c 0
 -308 -74 -311 -75 -317 -81 c 0
 -326 -90 l 0
 -324 -96 -324 -100 -327 -103 c 0
 -357 -112 l 0
 -382 -118 -401 -128 -416 -144 c 0
 -430 -160 -437 -183 -437 -214 c 0
 -437 -236 -429 -256 -412 -274 c 0
 -396 -292 -375 -301 -348 -301 c 0
 -330 -301 -311 -286 -289 -256 c 0
 -279 -242 -270 -235 -261 -234 c 0
 -248 -234 -238 -236 -231 -242 c 0
 -225 -247 -221 -253 -219 -261 c 0
 -219 -270 -223 -275 -232 -278 c 0
 -238 -279 -241 -276 -242 -268 c 0
 -242 -263 -240 -259 -234 -255 c 0
 -234 -252 -234 -250 -236 -247 c 0
 -237 -246 -240 -245 -245 -242 c 0
-296 -177 m 0
 -289 -170 l 0
 -283 -164 l 0
 -277 -158 -268 -155 -256 -154 c 0
 -247 -155 l 0
 -247 -159 -248 -162 -250 -166 c 0
 -251 -169 -254 -172 -261 -177 c 0
 -276 -180 l 0
 -288 -179 l 0
 -296 -177 l 0
-340 -67 m 0
 -341 -71 -341 -74 -342 -77 c 0
 -340 -86 -336 -90 -328 -91 c 0
 -326 -91 -323 -91 -319 -89 c 0
 -279 -80 l 0
 -241 -78 l 0
 -229 -78 l 0
 -211 -78 -194 -80 -178 -84 c 0
 -136 -97 l 0
 -115 -105 -98 -113 -85 -122 c 0
 -48 -149 l 0
 -78 -103 l 0
 -92 -87 -111 -75 -135 -65 c 0
 -167 -54 -199 -49 -233 -48 c 0
 -253 -48 -273 -50 -293 -54 c 0
 -313 -58 -328 -62 -340 -67 c 0
EndSplineSet
EndChar

StartChar: u1A45.sub.low
Encoding: 102 -1 102
Width: 1
VWidth: 0
Flags: HW
AnchorPoint: "LRD" -48 -477 basemark 0
AnchorPoint: "LD" -207 -478 basemark 0
AnchorPoint: "LD" -197 -260 mark 0
AnchorPoint: "L" -197 -260 mark 0
LayerCount: 2
Fore
SplineSet
-335 -384 m 0
 -335 -402 -322 -417 -296 -430 c 0
 -271 -442 -242 -448 -207 -448 c 0
 -168 -448 l 0
 -153 -448 -141 -448 -131 -446 c 0
 -95 -442 -77 -422 -77 -386 c 0
 -77 -363 -90 -345 -117 -330 c 0
 -143 -317 -174 -311 -211 -310 c 0
 -293 -310 -334 -334 -335 -384 c 0
-360 -381 m 0
 -360 -356 -343 -334 -309 -313 c 0
 -275 -295 -238 -286 -198 -286 c 0
 -180 -286 -162 -288 -143 -293 c 0
 -125 -297 -108 -304 -92 -315 c 0
 -61 -334 -46 -358 -45 -388 c 0
 -45 -415 -62 -437 -97 -456 c 0
 -129 -470 -165 -477 -206 -478 c 0
 -246 -478 -281 -470 -311 -453 c 0
 -343 -435 -359 -411 -360 -381 c 0
EndSplineSet
EndChar

StartChar: u1A31_u1A2C
Encoding: 103 -1 103
Width: 714
VWidth: 0
Flags: HW
AnchorPoint: "UR" 675 416 basechar 0
AnchorPoint: "LR" 675 0 basechar 0
AnchorPoint: "U" 505.5 416 basechar 0
AnchorPoint: "L" 505.5 0 basechar 0
LayerCount: 2
Fore
SplineSet
195 281 m 0
 195 294 190 305 179 314 c 0
 169 323 156 327 139 328 c 0
 128 328 117 324 105 315 c 0
 94 307 89 296 88 282 c 0
 88 272 91 260 97 246 c 0
 103 233 110 226 119 225 c 0
 117 229 116 232 115 235 c 0
 115 247 119 253 129 255 c 0
 137 255 144 252 150 246 c 0
 157 229 l 0
 157 221 154 214 146 208 c 0
 140 203 132 201 120 201 c 0
 102 201 88 208 78 222 c 0
 68 236 63 255 63 280 c 0
 63 295 71 311 89 329 c 0
 107 347 124 356 141 356 c 0
 163 356 182 349 198 335 c 0
 213 322 220 306 221 287 c 0
 221 275 220 267 217 263 c 0
 213 254 l 0
 213 244 216 236 222 230 c 0
 228 224 236 221 248 221 c 0
 255 221 261 223 266 229 c 0
 270 235 272 242 273 251 c 0
 273 256 272 260 269 264 c 0
 261 274 257 283 257 292 c 0
 257 302 263 314 276 330 c 0
 291 347 307 355 324 356 c 0
 358 356 382 347 398 328 c 0
 406 315 410 298 411 277 c 0
 411 259 404 243 390 229 c 0
 382 223 374 219 366 215 c 0
 364 211 l 0
 368 211 l 0
 386 225 l 0
 390 228 395 230 402 233 c 0
 396 223 391 216 385 210 c 0
 380 206 374 203 366 200 c 0
 351 201 l 0
 347 201 344 202 341 206 c 0
 342 216 l 0
 342 223 342 228 344 233 c 0
 346 231 352 233 364 239 c 0
 375 246 381 251 384 256 c 0
 386 260 387 265 388 273 c 0
 388 291 383 305 372 316 c 0
 362 326 348 331 329 332 c 0
 316 332 306 329 297 323 c 0
 292 318 289 311 287 301 c 0
 289 286 l 0
 295 268 l 0
 299 256 l 0
 298 247 l 0
 296 237 290 227 279 215 c 0
 269 206 256 202 238 201 c 0
 207 201 192 216 191 247 c 0
 193 259 l 0
 195 281 l 0
372 97 m 0
 372 112 368 124 359 133 c 0
 347 145 327 151 299 151 c 0
 287 151 277 149 267 143 c 0
 248 132 235 126 227 124 c 0
 212 124 198 127 185 134 c 0
 181 136 175 139 166 143 c 0
 158 147 152 149 146 151 c 0
 131 154 l 0
 108 154 97 147 96 133 c 0
 96 125 101 121 113 120 c 0
 119 120 l 0
 123 121 l 0
 127 112 l 0
 130 103 l 0
 130 93 123 88 107 88 c 0
 92 88 81 92 72 100 c 0
 66 108 63 118 63 132 c 0
 63 140 71 150 88 163 c 0
 105 176 124 182 146 183 c 0
 158 183 172 178 188 167 c 0
 204 157 217 152 228 152 c 0
 238 152 250 157 266 168 c 0
 281 179 295 184 309 185 c 0
 334 185 356 179 376 167 c 0
 399 152 410 130 411 100 c 0
 411 61 395 34 363 18 c 0
 337 7 291 2 225 1 c 0
 191 1 l 0
 150 2 l 0
 114 8 l 0
 111 8 109 8 108 6 c 0
 105 -2 l 0
 106 -29 l 0
 106 -62 l 0
 106 -81 l 0
 106 -98 l 0
 106 -112 l 0
 106 -124 l 0
 106 -152 l 0
 105 -172 l 0
 105 -216 129 -255 177 -290 c 0
 225 -324 283 -341 351 -342 c 0
 389 -342 l 0
 405 -342 l 0
 419 -342 l 0
 430 -342 l 0
 442 -342 454 -342 466 -341 c 0
 478 -341 488 -340 497 -337 c 0
 509 -337 522 -335 538 -331 c 0
 553 -328 571 -323 594 -316 c 0
 645 -298 l 0
 676 -286 l 0
 642 -312 l 0
 614 -329 588 -342 563 -352 c 0
 541 -359 521 -364 501 -368 c 0
 435 -372 l 0
 397 -371 l 0
 364 -371 l 0
 351 -371 l 0
 270 -371 203 -353 148 -316 c 0
 95 -280 69 -234 68 -178 c 0
 68 3 l 0
 68 31 73 45 83 47 c 0
 111 42 l 0
 169 33 l 0
 232 29 l 0
 283 29 320 36 345 50 c 0
 359 58 368 73 372 97 c 0
511 36 m 0
 537 36 562 45 588 64 c 0
 618 88 633 121 634 165 c 0
 634 195 623 222 600 248 c 0
 578 272 554 284 528 285 c 0
 525 287 523 289 521 292 c 0
 521 295 520 297 517 299 c 0
 547 341 l 0
 557 351 566 356 575 356 c 0
 582 356 589 352 598 343 c 0
 603 338 607 334 610 330 c 0
 612 327 617 320 625 308 c 0
 638 288 l 0
 620 296 l 0
 586 317 l 0
 581 319 578 319 575 317 c 0
 575 315 576 313 578 310 c 0
 600 297 l 0
 622 284 l 0
 642 266 655 245 661 221 c 0
 663 211 664 202 665 192 c 0
 665 183 665 174 666 165 c 0
 666 127 649 90 613 52 c 0
 578 16 545 -2 514 -2 c 0
 483 -2 455 2 428 10 c 0
 403 18 391 29 390 44 c 0
 390 70 392 83 397 85 c 0
 401 81 403 77 405 72 c 0
 419 60 433 51 448 43 c 0
 462 39 483 37 511 36 c 0
EndSplineSet
EndChar

StartChar: u1A62_u1A75
Encoding: 104 -1 104
Width: 1
VWidth: 0
Flags: HW
AnchorPoint: "LRD" -72 -392 basemark 0
AnchorPoint: "LD" -303 0 mark 0
AnchorPoint: "L" -303 0 mark 0
LayerCount: 2
Fore
SplineSet
-454 -278 m 0
 -470 -276 l 0
 -488 -276 -504 -283 -519 -297 c 0
 -533 -311 -540 -327 -540 -346 c 0
 -540 -372 -530 -391 -508 -403 c 0
 -491 -412 -467 -416 -435 -417 c 0
 -406 -417 -380 -405 -357 -381 c 0
 -335 -358 -324 -333 -323 -304 c 0
 -291 -327 l 0
 -266 -342 -243 -349 -221 -350 c 0
 -174 -350 -129 -337 -86 -309 c 0
 -42 -270 l 0
 -127 -301 l 0
 -159 -309 -185 -313 -205 -314 c 0
 -242 -314 -275 -305 -304 -286 c 0
 -312 -280 -322 -271 -336 -257 c 0
 -336 -277 -343 -301 -357 -329 c 0
 -374 -363 -399 -382 -433 -388 c 0
 -446 -389 l 0
 -463 -389 -477 -386 -489 -378 c 0
 -501 -371 -507 -360 -507 -344 c 0
 -507 -328 -504 -317 -498 -310 c 0
 -492 -304 -484 -300 -473 -298 c 0
 -459 -298 -448 -303 -439 -315 c 0
 -437 -319 -437 -325 -439 -334 c 0
 -444 -350 l 0
 -442 -354 -441 -356 -439 -358 c 0
 -433 -361 -426 -361 -418 -356 c 0
 -412 -352 -408 -347 -405 -340 c 0
 -403 -325 l 0
 -403 -313 -407 -304 -416 -296 c 0
 -425 -290 -437 -284 -454 -278 c 0
-380 -221 m 0
 -380 -194 -394 -181 -422 -180 c 0
 -431 -180 -439 -184 -448 -193 c 0
 -456 -202 -460 -210 -460 -219 c 0
 -460 -223 -458 -226 -454 -228 c 0
 -471 -216 -482 -207 -487 -200 c 0
 -494 -190 -497 -174 -498 -151 c 0
 -498 -131 -490 -115 -473 -101 c 0
 -457 -89 -435 -83 -406 -83 c 0
 -381 -83 -359 -87 -340 -97 c 0
 -322 -107 -313 -119 -312 -133 c 0
 -315 -144 l 0
 -319 -153 -321 -162 -321 -171 c 0
 -321 -179 -320 -186 -317 -193 c 0
 -307 -220 l 0
 -301 -237 -285 -250 -259 -259 c 0
 -251 -261 -242 -263 -231 -266 c 0
 -221 -268 -211 -269 -200 -269 c 0
 -167 -269 -137 -258 -108 -236 c 0
 -81 -214 -68 -190 -67 -164 c 0
 -67 -150 -73 -135 -85 -119 c 0
 -91 -111 -94 -102 -94 -92 c 0
 -94 -84 -91 -73 -83 -58 c 0
 -83 -51 l 0
 -111 -60 l 0
 -120 -64 -124 -68 -125 -72 c 0
 -127 -90 l 0
 -131 -105 l 0
 -131 -110 -130 -114 -127 -118 c 0
 -100 -154 l 0
 -96 -172 l 0
 -95 -182 l 0
 -95 -201 -102 -216 -116 -227 c 0
 -130 -237 -156 -242 -195 -243 c 0
 -207 -243 -223 -240 -243 -234 c 0
 -262 -228 -273 -221 -278 -211 c 0
 -285 -188 l 0
 -286 -169 l 0
 -285 -154 l 0
 -283 -146 l 0
 -283 -115 -288 -93 -300 -79 c 0
 -318 -59 -353 -49 -405 -48 c 0
 -435 -48 -461 -57 -485 -76 c 0
 -508 -95 -519 -120 -520 -153 c 0
 -520 -185 -513 -211 -499 -231 c 0
 -486 -251 -468 -261 -443 -262 c 0
 -425 -262 -410 -259 -398 -252 c 0
 -386 -246 -380 -236 -380 -221 c 0
-414 -225 m 0
 -414 -233 -419 -237 -430 -237 c 0
 -440 -234 l 0
 -443 -230 -444 -227 -445 -224 c 0
 -445 -214 -441 -209 -432 -207 c 0
 -420 -207 -414 -213 -414 -225 c 0
EndSplineSet
EndChar

StartChar: u1A58
Encoding: 105 6744 105
Width: 0
VWidth: 0
Flags: HW
AnchorPoint: "UR" -39 416 mark 0
LayerCount: 2
Fore
SplineSet
182 493 m 0
 174 485 169 476 167 466 c 0
 165 456 162 450 157 447 c 0
 153 445 146 443 134 441 c 0
 122 441 115 440 111 437 c 0
 100 418 l 0
 96 412 86 409 70 408 c 0
 62 408 55 409 47 413 c 0
 28 428 l 0
 21 423 l 0
 9 417 l 0
 -7 413 l 0
 -18 416 l 0
 -22 416 -25 418 -29 424 c 0
 -39 435 l 0
 -52 444 l 0
 -58 448 -65 450 -73 452 c 0
 -85 452 -95 448 -104 440 c 0
 -109 436 -111 429 -112 417 c 0
 -108 406 l 0
 -106 404 -104 403 -100 402 c 0
 -98 403 -97 404 -96 405 c 0
 -93 407 -89 410 -84 416 c 0
 -80 421 -75 424 -68 427 c 0
 -64 428 -59 425 -51 416 c 0
 -45 408 -42 398 -41 384 c 0
 -52 393 l 0
 -61 398 l 0
 -66 398 -71 394 -77 385 c 0
 -82 377 -87 373 -94 372 c 0
 -104 372 -113 374 -122 379 c 0
 -130 385 -135 392 -138 402 c 0
 -142 419 l 0
 -142 429 -140 438 -134 447 c 0
 -129 455 -123 462 -115 468 c 0
 -102 475 l 0
 -93 479 -84 481 -73 481 c 0
 -57 477 l 0
 -52 477 -47 476 -42 473 c 0
 -26 461 l 0
 -21 456 -15 452 -8 448 c 0
 0 448 l 0
 10 454 l 0
 6 463 l 0
 0 478 -3 490 -3 501 c 0
 -3 511 1 519 9 526 c 0
 17 532 26 535 38 535 c 0
 46 535 53 534 60 531 c 0
 66 529 72 524 78 516 c 0
 84 508 87 501 87 494 c 0
 86 476 l 0
 86 470 83 464 76 457 c 0
 55 446 l 0
 63 440 l 0
 72 438 l 0
 77 438 82 442 88 450 c 0
 92 458 95 463 99 466 c 0
 111 469 l 0
 132 466 l 0
 143 469 l 0
 147 471 151 476 155 484 c 0
 159 492 163 497 169 500 c 0
 187 504 l 0
 208 503 l 0
 182 493 l 0
38 509 m 0
 31 509 27 506 24 500 c 0
 24 490 l 0
 31 475 l 0
 36 466 l 0
 55 477 l 0
 60 490 l 0
 60 496 58 500 53 504 c 0
 49 507 44 508 38 509 c 0
EndSplineSet
Comment: "classes: cConsUFinal"
EndChar

StartChar: u1A30.sub
Encoding: 106 -1 106
Width: 162
VWidth: 0
Flags: HW
AnchorPoint: "URD" 59 409 basemark 0
AnchorPoint: "LRD" 97 -287 basemark 0
AnchorPoint: "LD" -158 -300 basemark 0
AnchorPoint: "LR" -39 0 mark 0
LayerCount: 2
Fore
SplineSet
93 -176 m 0
 93 -212 77 -242 43 -266 c 0
 10 -290 -29 -302 -75 -302 c 0
 -105 -302 -128 -293 -145 -273 c 0
 -153 -263 -161 -257 -171 -255 c 0
 -196 -254 l 0
 -213 -254 -232 -259 -254 -269 c 0
 -301 -291 -337 -302 -362 -303 c 0
 -387 -303 -410 -298 -431 -288 c 0
 -451 -279 -461 -267 -462 -251 c 0
 -462 -227 -443 -210 -404 -199 c 0
 -233 -161 l 0
 -194 -152 l 0
 -174 -146 -164 -138 -164 -128 c 0
 -164 -107 l 0
 -164 -95 -169 -86 -180 -80 c 0
 -190 -74 -201 -71 -213 -71 c 0
 -228 -71 -243 -77 -259 -91 c 0
 -275 -105 -286 -112 -294 -112 c 0
 -302 -112 -312 -108 -324 -100 c 0
 -366 -71 l 0
 -380 -71 l 0
 -402 -74 l 0
 -407 -76 -411 -80 -416 -87 c 0
 -417 -93 l 0
 -418 -102 l 0
 -406 -99 l 0
 -386 -95 l 0
 -372 -95 -362 -99 -356 -108 c 0
 -352 -126 l 0
 -352 -134 -361 -142 -381 -151 c 0
 -389 -154 -396 -156 -402 -157 c 0
 -408 -158 -412 -158 -416 -159 c 0
 -420 -159 -423 -159 -426 -158 c 0
 -448 -151 -459 -136 -459 -113 c 0
 -457 -98 l 0
 -453 -83 -443 -71 -425 -62 c 0
 -409 -54 -390 -50 -366 -49 c 0
 -354 -49 -336 -58 -310 -77 c 0
 -301 -84 -293 -87 -285 -88 c 0
 -279 -88 -268 -82 -252 -68 c 0
 -237 -56 -223 -50 -208 -49 c 0
 -197 -49 -187 -50 -177 -52 c 0
 -168 -54 -159 -57 -149 -63 c 0
 -133 -73 -125 -85 -125 -101 c 0
 -125 -126 l 0
 -125 -138 -131 -149 -145 -159 c 0
 -158 -169 -184 -178 -223 -186 c 0
 -233 -187 -243 -188 -253 -190 c 0
 -262 -192 -271 -194 -280 -197 c 0
 -374 -218 l 0
 -406 -227 l 0
 -418 -231 -424 -238 -425 -249 c 0
 -425 -259 -419 -266 -406 -270 c 0
 -394 -274 -380 -276 -362 -277 c 0
 -340 -277 -310 -269 -270 -252 c 0
 -232 -236 -200 -228 -173 -227 c 0
 -154 -227 -132 -237 -105 -257 c 0
 -93 -267 -82 -272 -72 -272 c 0
 -35 -272 -4 -261 23 -237 c 0
 45 -218 56 -200 56 -182 c 0
 55 252 l 0
 55 261 55 267 53 272 c 0
 53 276 51 282 47 290 c 0
 28 324 l 0
 28 325 28 326 30 327 c 0
 33 331 38 336 47 342 c 0
 59 350 67 354 73 356 c 0
 77 355 80 354 82 352 c 0
 95 338 l 0
 97 312 l 0
 97 297 100 281 106 262 c 0
 100 263 l 0
 91 272 l 0
 83 318 l 0
 81 332 l 0
 70 324 l 0
 80 292 l 0
 91 256 l 0
 93 -176 l 0
-410 -120 m 0
 -404 -129 l 0
 -400 -133 -396 -135 -391 -135 c 0
 -385 -135 -380 -131 -376 -123 c 0
 -376 -121 -377 -118 -380 -113 c 0
 -394 -109 l 0
 -402 -109 -407 -112 -410 -120 c 0
EndSplineSet
EndChar

StartChar: u1A6C_u1A3F.sub
Encoding: 107 -1 107
Width: 204
VWidth: 0
Flags: HW
AnchorPoint: "LD" -200 -251 basemark 0
AnchorPoint: "LRD" 0 0 mark 0
AnchorPoint: "LR" 0 0 mark 0
AnchorPoint: "URD" 82 428 basemark 0
LayerCount: 2
Fore
SplineSet
-322 -53 m 0
 -327 -51 -335 -50 -346 -48 c 0
 -368 -48 -389 -56 -411 -73 c 0
 -431 -89 -441 -109 -442 -134 c 0
 -442 -170 -432 -199 -412 -223 c 0
 -392 -247 -368 -259 -340 -259 c 0
 -308 -259 -280 -252 -256 -238 c 0
 -232 -225 -216 -206 -208 -179 c 0
 -187 -201 l 0
 -170 -219 -157 -229 -147 -231 c 0
 -121 -236 l 0
 -95 -237 l 0
 -57 -237 -18 -228 22 -210 c 0
 64 -184 l 0
 16 -199 l 0
 -18 -207 -47 -211 -71 -212 c 0
 -86 -212 -98 -211 -108 -208 c 0
 -117 -206 -128 -202 -141 -195 c 0
 -154 -189 -168 -176 -185 -156 c 0
 -205 -129 l 0
 -225 -178 -239 -207 -249 -216 c 0
 -261 -228 -284 -234 -319 -234 c 0
 -345 -234 -366 -224 -384 -203 c 0
 -402 -183 -411 -161 -411 -136 c 0
 -411 -119 -404 -105 -389 -92 c 0
 -375 -81 -360 -76 -343 -75 c 0
 -334 -75 -327 -76 -320 -79 c 0
 -314 -81 -310 -86 -307 -96 c 0
 -305 -101 -306 -108 -310 -117 c 0
 -316 -133 l 0
 -314 -137 -313 -139 -311 -141 c 0
 -305 -145 -299 -145 -292 -139 c 0
 -286 -134 -281 -126 -276 -114 c 0
 -275 -102 l 0
 -275 -91 -279 -81 -289 -72 c 0
 -294 -68 -305 -62 -322 -53 c 0
127 262 m 0
 121 263 l 0
 117 266 114 270 111 275 c 0
 99 309 l 0
 96 318 l 0
 83 323 l 0
 97 298 l 0
 106 282 110 268 111 255 c 0
 110 -24 l 0
 110 -63 98 -98 74 -131 c 0
 46 -167 9 -185 -37 -186 c 0
 -81 -186 -115 -180 -139 -166 c 0
 -167 -151 -181 -130 -181 -101 c 0
 -177 -81 l 0
 -175 -60 l 0
 -178 -52 l 0
 -181 -54 l 0
 -178 -75 l 0
 -178 -81 -180 -88 -186 -97 c 0
 -191 -103 l 0
 -188 -75 l 0
 -188 -71 -189 -67 -193 -61 c 0
 -200 -49 l 0
 -200 -49 -200 -49 -199 -47 c 0
 -197 -45 -193 -42 -186 -37 c 0
 -166 -29 l 0
 -150 -38 l 0
 -143 -43 -139 -48 -136 -54 c 0
 -137 -60 -138 -65 -141 -69 c 0
 -145 -75 -147 -81 -149 -88 c 0
 -149 -110 -138 -127 -114 -140 c 0
 -91 -152 -66 -158 -38 -159 c 0
 -1 -159 27 -146 48 -120 c 0
 64 -96 72 -65 73 -25 c 0
 75 237 l 0
 75 249 71 263 63 280 c 0
 34 325 l 0
 34 326 34 327 36 328 c 0
 40 333 45 338 52 343 c 0
 63 350 71 354 77 356 c 0
 81 356 87 355 95 351 c 0
 103 348 110 344 116 338 c 0
 118 312 l 0
 118 297 121 281 127 262 c 0
EndSplineSet
EndChar

StartChar: u1A2F.sub
Encoding: 108 -1 108
Width: 1
VWidth: 0
Flags: HW
AnchorPoint: "LRD" -15 -416 basemark 0
AnchorPoint: "LD" -215.5 -296 basemark 0
AnchorPoint: "LD" -215.5 0 mark 0
AnchorPoint: "L" -215.5 0 mark 0
LayerCount: 2
Fore
SplineSet
-325 -130 m 0
 -323 -134 -321 -137 -319 -141 c 0
 -318 -143 -316 -144 -312 -145 c 0
 -309 -145 -306 -141 -301 -133 c 0
 -304 -124 l 0
 -306 -122 -309 -121 -314 -119 c 0
 -319 -119 -322 -122 -325 -130 c 0
-330 -105 m 0
 -308 -105 l 0
 -299 -105 -293 -108 -288 -115 c 0
 -284 -136 l 0
 -284 -144 -290 -152 -304 -160 c 0
 -318 -168 -328 -171 -336 -169 c 0
 -344 -166 -350 -160 -354 -149 c 0
 -358 -140 -360 -130 -360 -117 c 0
 -356 -94 l 0
 -354 -85 -347 -76 -334 -65 c 0
 -331 -63 -326 -61 -317 -57 c 0
 -309 -54 -300 -53 -290 -52 c 0
 -285 -52 -270 -58 -244 -70 c 0
 -232 -76 -221 -79 -211 -79 c 0
 -203 -79 -192 -75 -177 -66 c 0
 -163 -58 -151 -54 -141 -53 c 0
 -125 -53 -110 -58 -96 -70 c 0
 -83 -81 -77 -96 -76 -116 c 0
 -76 -178 l 0
 -76 -196 -86 -211 -108 -225 c 0
 -130 -239 -154 -246 -181 -246 c 0
 -250 -247 l 0
 -265 -247 -282 -250 -301 -258 c 0
 -305 -260 -308 -264 -311 -270 c 0
 -268 -265 l 0
 -219 -263 l 0
 -160 -266 l 0
 -137 -266 -116 -272 -95 -284 c 0
 -77 -296 -59 -313 -41 -337 c 0
 -23 -367 l 0
 -14 -398 l 0
 -10 -438 l 0
 -11 -467 l 0
 -15 -445 -17 -431 -19 -424 c 0
 -20 -418 -23 -409 -28 -396 c 0
 -35 -378 -44 -363 -57 -349 c 0
 -74 -331 -91 -318 -108 -309 c 0
 -124 -301 -143 -297 -165 -296 c 0
 -244 -296 l 0
 -301 -296 l 0
 -318 -296 -338 -298 -362 -302 c 0
 -358 -289 l 0
 -349 -267 l 0
 -339 -249 -322 -236 -296 -227 c 0
 -285 -225 -272 -223 -256 -220 c 0
 -242 -218 -228 -217 -212 -217 c 0
 -195 -217 l 0
 -161 -217 -138 -214 -125 -206 c 0
 -113 -200 -107 -190 -107 -175 c 0
 -107 -124 l 0
 -107 -95 -121 -81 -149 -80 c 0
 -159 -80 -171 -84 -185 -94 c 0
 -199 -104 -209 -109 -217 -109 c 0
 -227 -109 -240 -105 -256 -97 c 0
 -262 -94 -268 -91 -274 -88 c 0
 -280 -86 -285 -85 -290 -83 c 0
 -313 -80 l 0
 -320 -80 -324 -82 -327 -86 c 0
 -330 -97 l 0
 -330 -105 l 0
EndSplineSet
EndChar

StartChar: u1A32.sub
Encoding: 109 -1 109
Width: 1
VWidth: 0
Flags: HW
AnchorPoint: "LRD" -37 -289 basemark 0
AnchorPoint: "LD" -277.5 -295 basemark 0
AnchorPoint: "LD" -282.5 0 mark 0
AnchorPoint: "L" -282.5 0 mark 0
LayerCount: 2
Fore
SplineSet
-303 -180 m 4
 -303 -150 -313 -125 -335 -104 c 4
 -357 -85 -381 -76 -407 -75 c 4
 -436 -75 -460 -82 -479 -97 c 4
 -497 -112 -506 -137 -507 -172 c 4
 -507 -199 -496 -223 -473 -246 c 4
 -451 -268 -424 -279 -390 -279 c 4
 -356 -279 -333 -271 -321 -254 c 4
 -309 -238 -303 -214 -303 -180 c 4
-412 -299 m 4
 -447 -299 -475 -287 -498 -262 c 4
 -520 -238 -531 -209 -531 -174 c 4
 -531 -140 -519 -111 -494 -85 c 4
 -470 -61 -439 -49 -400 -48 c 4
 -360 -48 -329 -59 -305 -82 c 4
 -284 -105 -274 -136 -273 -175 c 4
 -273 -223 -289 -257 -323 -279 c 4
 -345 -292 -374 -298 -412 -299 c 4
-159 -276 m 4
 -127 -276 -104 -268 -89 -251 c 4
 -75 -235 -68 -210 -68 -176 c 4
 -68 -142 -78 -117 -98 -101 c 4
 -118 -85 -144 -77 -177 -77 c 4
 -200 -77 -221 -85 -241 -103 c 4
 -261 -121 -271 -139 -271 -158 c 4
 -271 -162 -272 -167 -275 -175 c 4
 -277 -181 -279 -186 -283 -190 c 4
 -283 -190 -283 -190 -285 -192 c 4
 -286 -191 -286 -190 -287 -188 c 4
 -289 -183 -290 -178 -290 -172 c 4
 -290 -141 -280 -114 -260 -89 c 4
 -237 -62 -206 -49 -166 -48 c 4
 -128 -48 -97 -61 -71 -87 c 4
 -47 -113 -35 -143 -34 -177 c 4
 -34 -209 -45 -237 -69 -262 c 4
 -92 -287 -121 -299 -158 -300 c 4
 -177 -300 -192 -298 -204 -294 c 4
 -216 -290 -222 -282 -222 -269 c 4
 -216 -263 -209 -260 -200 -259 c 4
 -194 -259 -187 -261 -178 -267 c 4
 -170 -273 -164 -276 -159 -276 c 4
EndSplineSet
EndChar

StartChar: u1A33.sub
Encoding: 110 -1 110
Width: 1
VWidth: 0
Flags: HW
AnchorPoint: "LRD" -44 -292 basemark 0
AnchorPoint: "LD" -266.5 -298 basemark 0
AnchorPoint: "LD" -247.5 0 mark 0
AnchorPoint: "L" -248.5 0 mark 0
LayerCount: 2
Fore
SplineSet
-334 -67 m 0
 -336 -77 l 0
 -334 -87 -327 -91 -313 -89 c 0
 -299 -85 -285 -82 -269 -79 c 0
 -225 -77 l 0
 -215 -77 -205 -77 -194 -77 c 0
 -186 -79 -179 -80 -171 -82 c 0
 -165 -83 -160 -84 -154 -86 c 0
 -150 -87 -143 -89 -132 -94 c 0
 -105 -104 -83 -123 -64 -151 c 0
 -31 -208 l 0
 -36 -186 -40 -172 -43 -164 c 0
 -45 -158 -47 -152 -51 -144 c 0
 -70 -100 -93 -73 -120 -63 c 0
 -136 -57 -150 -53 -164 -51 c 0
 -212 -49 l 0
 -226 -49 l 0
 -236 -49 -244 -49 -252 -49 c 0
 -260 -49 -270 -50 -283 -52 c 0
 -296 -54 -305 -56 -312 -58 c 0
 -318 -60 -325 -63 -334 -67 c 0
-258 -223 m 0
 -283 -247 l 0
 -304 -263 -325 -271 -346 -271 c 0
 -361 -271 -372 -264 -381 -250 c 0
 -389 -237 -393 -222 -393 -204 c 0
 -393 -186 -389 -170 -380 -156 c 0
 -372 -143 -361 -135 -346 -132 c 0
 -332 -130 -323 -128 -319 -125 c 0
 -307 -118 l 0
 -303 -116 -301 -106 -300 -88 c 0
 -300 -77 -302 -68 -308 -60 c 0
 -310 -58 -315 -59 -324 -63 c 0
 -337 -70 l 0
 -333 -83 l 0
 -332 -95 l 0
 -332 -103 -336 -108 -344 -112 c 0
 -370 -118 -389 -127 -402 -140 c 0
 -416 -156 -423 -178 -424 -208 c 0
 -424 -232 -417 -253 -402 -271 c 0
 -388 -289 -369 -298 -343 -299 c 0
 -326 -299 -308 -293 -288 -281 c 0
 -266 -262 l 0
 -259 -273 -248 -282 -233 -290 c 0
 -219 -297 -204 -300 -188 -301 c 0
 -166 -301 -147 -295 -129 -281 c 0
 -113 -269 -105 -253 -104 -231 c 0
 -104 -212 -109 -193 -121 -174 c 0
 -133 -156 -148 -145 -168 -140 c 0
 -183 -139 l 0
 -211 -139 -229 -146 -237 -160 c 0
 -237 -170 l 0
 -237 -176 -237 -181 -235 -185 c 0
 -235 -191 -234 -194 -231 -195 c 0
 -203 -181 l 0
 -193 -177 -183 -175 -172 -175 c 0
 -160 -175 -150 -180 -141 -191 c 0
 -133 -201 -129 -214 -128 -232 c 0
 -128 -243 -134 -252 -147 -260 c 0
 -159 -268 -173 -272 -189 -272 c 0
 -205 -272 -221 -264 -237 -247 c 0
 -258 -223 l 0
EndSplineSet
EndChar

StartChar: u1A5D
Encoding: 111 6749 111
Width: 1
VWidth: 0
Flags: HW
AnchorPoint: "LRD" -46 -300 basemark 0
AnchorPoint: "LD" -186 -301 basemark 0
AnchorPoint: "L" -191 0 mark 0
LayerCount: 2
Fore
SplineSet
-290 -74 m 0
 -296 -75 -300 -78 -302 -84 c 0
 -303 -91 -302 -96 -298 -100 c 0
 -294 -104 -290 -106 -284 -106 c 0
 -275 -104 -272 -98 -273 -86 c 0
 -275 -76 -280 -72 -290 -74 c 0
-307 -125 m 0
 -308 -124 -309 -123 -310 -122 c 0
 -312 -120 -315 -116 -319 -109 c 0
 -322 -104 -324 -98 -326 -90 c 0
 -323 -82 l 0
 -297 -56 l 0
 -293 -52 -288 -50 -282 -48 c 0
 -276 -48 -268 -52 -256 -60 c 0
 -248 -67 -244 -75 -242 -84 c 0
 -242 -100 -252 -118 -273 -139 c 0
 -294 -159 -304 -178 -305 -198 c 0
 -305 -220 -288 -237 -253 -250 c 0
 -227 -259 -204 -263 -182 -264 c 0
 -158 -264 -132 -256 -104 -238 c 0
 -78 -221 -65 -206 -64 -193 c 0
 -64 -173 -67 -156 -75 -140 c 0
 -83 -126 -94 -111 -110 -95 c 0
 -123 -91 l 0
 -142 -87 l 0
 -146 -87 -150 -84 -154 -78 c 0
 -158 -72 -160 -68 -161 -64 c 0
 -161 -64 -161 -64 -160 -63 c 0
 -156 -60 -151 -57 -144 -54 c 0
 -116 -49 l 0
 -112 -49 -109 -49 -106 -51 c 0
 -79 -73 l 0
 -76 -76 -73 -80 -68 -86 c 0
 -68 -87 -67 -88 -64 -91 c 0
 -70 -89 -76 -87 -82 -84 c 0
 -106 -73 l 0
 -110 -73 -113 -73 -117 -71 c 0
 -125 -71 l 0
 -121 -72 l 0
 -109 -76 l 0
 -86 -82 l 0
 -76 -92 l 0
 -64 -107 -55 -124 -49 -143 c 0
 -44 -161 -42 -177 -41 -193 c 0
 -43 -213 -62 -236 -100 -262 c 0
 -138 -288 -166 -301 -186 -301 c 0
 -217 -301 -248 -294 -281 -279 c 0
 -322 -260 -342 -235 -343 -203 c 0
 -343 -193 -332 -175 -308 -148 c 0
 -278 -115 l 0
 -294 -123 l 0
 -296 -124 -300 -124 -307 -125 c 0
EndSplineSet
Comment: "classes: cConsLFinal"
EndChar

